<?xml version="1.0" encoding="UTF-8"?>
<svg id="Layer_2" data-name="Layer 2" xmlns="http://www.w3.org/2000/svg" viewBox="0 0 153.97 171.79">
  <defs>
    <style>
      .cls-1 {
        fill: #fff;
      }

      .cls-2 {
        fill: #c4effd;
      }

      .cls-3 {
        fill: #7cbfff;
      }

      .cls-4 {
        fill: #0831b4;
      }
    </style>
  </defs>
  <g id="Lumen">
    <g>
      <path class="cls-3" d="M6.75,45.32c.08,6.92,2.54,12.3,6.93,15.15,1.49.97,3.13,1.6,4.87,1.93-2.28-4.58-3.46-9.42-3.46-14.32,0-17.27,14.5-32.2,35.43-39.16-.67-.68-1.4-1.28-2.19-1.79-9.41-6.11-24.83.88-34.38,15.59-4.73,7.27-7.28,15.3-7.2,22.59Z"/>
      <path class="cls-3" d="M103.61,8.99c20.84,6.98,35.26,21.88,35.26,39.1,0,4.9-1.18,9.76-3.47,14.34,1.85-.32,3.57-.96,5.1-1.96,4.39-2.85,6.85-8.23,6.93-15.15.08-7.3-2.47-15.32-7.2-22.59h0c-7.21-11.09-17.75-17.8-26.54-17.8-2.86,0-5.53.71-7.84,2.21-.82.53-1.57,1.16-2.24,1.85Z"/>
      <path class="cls-1" d="M144.54,76.89l-17.27-6.85h-44.58l-.12,1.57c-.04.47-.28.9-.66,1.17-.38.28-.86.37-1.32.26l-2.59-.62c-.61-.15-1.25-.15-1.85,0l-2.59.62c-.12.03-.25.04-.37.04-.34,0-.67-.11-.94-.31-.38-.28-.62-.7-.66-1.17l-.13-1.57H26.69l-17.27,6.85c-1.95.77-3.43,2.36-4.08,4.35-.65,1.99-.38,4.15.74,5.91l15,23.68c4.07,6.42,6.48,13.83,6.96,21.42l1.79,27.98c.13,2.09,1.18,3.99,2.87,5.22,1.69,1.23,3.83,1.64,5.85,1.12l27.16-6.95c3.68-.94,7.47-1.41,11.26-1.41s7.58.47,11.26,1.41l27.16,6.95c2.03.52,4.16.11,5.85-1.12s2.74-3.13,2.87-5.22l1.79-27.98c.48-7.59,2.89-15,6.96-21.42l15-23.68c1.12-1.77,1.39-3.92.74-5.91-.65-1.99-2.13-3.58-4.08-4.35ZM77.09,152.05c-20.45,0-37.09-16.64-37.09-37.09s16.64-37.09,37.09-37.09,37.09,16.64,37.09,37.09-16.64,37.09-37.09,37.09Z"/>
      <path class="cls-1" d="M76.98,9.77c-31.37,0-56.89,17.19-56.89,38.33,0,4.81,1.38,9.6,4.01,14.07h47.16l1.38-.57c.58-.24,1.09-.62,1.5-1.09l1.73-2.02c.31-.36.75-.56,1.22-.56h0c.47,0,.91.2,1.22.56l1.73,2.02c.4.47.92.85,1.5,1.09l1.38.57h46.94c2.63-4.47,4.01-9.26,4.01-14.07,0-21.13-25.52-38.33-56.89-38.33ZM53.27,46.4c-2.36,0-4.28-1.91-4.28-4.28s1.91-4.28,4.28-4.28,4.28,1.91,4.28,4.28-1.91,4.28-4.28,4.28ZM76.98,52.14c-2.4,0-4.35-1.29-4.35-2.87s1.95-2.87,4.35-2.87,4.35,1.29,4.35,2.87-1.95,2.87-4.35,2.87ZM76.98,32.8c-.66,0-1.33-.11-1.98-.36-2.11-.84-3.47-3.02-4.05-6.48-.03-.24-.69-5.22,2.35-7.53,2.05-1.56,5.15-1.45,9.22.32l-.8,1.83c-3.3-1.44-5.8-1.63-7.21-.56-2.11,1.59-1.59,5.6-1.59,5.64.45,2.69,1.4,4.36,2.81,4.92,2.45.98,5.75-1.47,5.78-1.5l1.21,1.59c-.14.11-2.85,2.13-5.74,2.13ZM117.23,35.14c.32.57.26,1.27-.15,1.78-.4.5-1.07.71-1.68.52-.64-.19-1.31-.25-1.99-.17-2.24.27-4.04,2.09-4.27,4.32-.15,1.41.29,2.76,1.23,3.8,1.17,1.3,3.03,1.89,4.72,1.5.7-.16,1.42.11,1.83.68.41.57.44,1.33.08,1.93-2.58,4.3-7.3,6.97-12.31,6.97-3.98,0-7.81-1.67-10.52-4.59-2.75-2.96-4.09-6.81-3.79-10.86.51-6.91,6.1-12.59,13-13.2,5.65-.5,11.09,2.36,13.85,7.31Z"/>
      <path class="cls-4" d="M153.38,79.69c-1.11-3.41-3.66-6.13-6.99-7.45l-11.76-4.67c3.12-.28,6.03-1.24,8.59-2.91,5.84-3.79,9.11-10.65,9.21-19.29.09-8.27-2.75-17.28-8.01-25.37C133.37,2.99,114.85-4.67,103.13,2.95c-1.86,1.21-3.43,2.73-4.73,4.5-6.68-1.73-13.89-2.68-21.42-2.68s-14.59.93-21.21,2.62c-1.31-1.76-2.89-3.25-4.72-4.44-11.71-7.61-30.24.04-41.3,17.06C4.5,28.09,1.66,37.11,1.75,45.38c.1,8.65,3.37,15.5,9.21,19.29,2.56,1.66,5.45,2.59,8.51,2.85l-11.89,4.72c-3.33,1.32-5.88,4.04-6.99,7.45-1.11,3.41-.64,7.1,1.28,10.13l15,23.68c3.62,5.72,5.76,12.31,6.19,19.06l1.79,27.98c.23,3.58,2.02,6.84,4.92,8.95,2.9,2.11,6.56,2.81,10.03,1.92l27.16-6.95c6.56-1.68,13.49-1.68,20.04,0l27.16,6.95c.99.25,1.99.38,2.99.38,2.51,0,4.97-.79,7.05-2.3,2.9-2.11,4.7-5.37,4.92-8.95l1.79-27.98c.43-6.75,2.57-13.35,6.19-19.06l15-23.68c1.92-3.03,2.38-6.72,1.28-10.13ZM147.88,87.15l-15,23.68c-4.07,6.42-6.48,13.83-6.96,21.42l-1.79,27.98c-.13,2.09-1.18,3.99-2.87,5.22s-3.83,1.64-5.85,1.12l-27.16-6.95c-3.68-.94-7.47-1.41-11.26-1.41s-7.58.47-11.26,1.41l-27.16,6.95c-2.03.52-4.16.11-5.85-1.12-1.69-1.23-2.74-3.13-2.87-5.22l-1.79-27.98c-.48-7.59-2.89-15-6.96-21.42l-15-23.68c-1.12-1.77-1.39-3.92-.74-5.91.65-1.99,2.13-3.58,4.08-4.35l17.27-6.85h44.79l.13,1.57c.04.47.28.9.66,1.17.28.2.61.31.94.31.12,0,.25-.01.37-.04l2.59-.62c.61-.15,1.25-.15,1.85,0l2.59.62c.46.11.94.01,1.32-.26.38-.28.62-.7.66-1.17l.12-1.57h44.58l17.27,6.85c1.94.77,3.43,2.36,4.08,4.35.65,1.99.38,4.15-.74,5.91ZM48.33,7.14c.8.52,1.52,1.12,2.19,1.79C29.6,15.89,15.09,30.83,15.09,48.09c0,4.89,1.18,9.74,3.46,14.32-1.74-.33-3.38-.97-4.87-1.93-4.39-2.85-6.85-8.23-6.93-15.15-.08-7.3,2.47-15.32,7.2-22.59C23.5,8.02,38.93,1.03,48.33,7.14ZM140.23,22.73h0c4.73,7.27,7.28,15.3,7.2,22.59-.08,6.92-2.54,12.3-6.93,15.15-1.53.99-3.24,1.64-5.1,1.96,2.28-4.58,3.47-9.44,3.47-14.34,0-17.22-14.43-32.12-35.26-39.1.68-.69,1.42-1.31,2.24-1.85,2.31-1.5,4.98-2.21,7.84-2.21,8.78,0,19.33,6.7,26.54,17.8ZM82.98,68.04c.1-.29.22-.57.39-.84l1.39-2.27c.14-.23.21-.5.23-.77h45.56v3.87h-47.56ZM80.62,70.99l-2.14-.51c-.91-.22-1.87-.22-2.78,0l-2.14.51-.17-2.19c-.07-.93-.37-1.85-.86-2.65l-1.15-1.87,2.03-.84c.86-.36,1.64-.92,2.25-1.64l1.43-1.67,1.43,1.67c.61.71,1.39,1.28,2.25,1.64l2.03.84-1.15,1.87c-.49.8-.79,1.71-.86,2.65l-.17,2.19ZM22.1,64.16h47.11c.01.27.08.53.23.77l1.39,2.27c.16.26.29.54.39.84H22.1v-3.87ZM133.87,48.09c0,4.81-1.38,9.6-4.01,14.07h-46.94l-1.38-.57c-.58-.24-1.09-.62-1.5-1.09l-1.73-2.02c-.31-.36-.75-.56-1.22-.56h0c-.47,0-.91.2-1.22.56l-1.73,2.02c-.4.47-.92.85-1.5,1.09l-1.38.57H24.11c-2.63-4.47-4.01-9.26-4.01-14.07,0-21.13,25.52-38.33,56.89-38.33s56.89,17.19,56.89,38.33Z"/>
      <path class="cls-4" d="M75.73,30.58c-1.41-.56-2.36-2.23-2.81-4.92,0-.04-.52-4.04,1.59-5.64,1.41-1.07,3.91-.87,7.21.56l.8-1.83c-4.07-1.77-7.17-1.88-9.22-.32-3.04,2.31-2.39,7.29-2.35,7.53.58,3.46,1.95,5.64,4.05,6.48.65.26,1.32.36,1.98.36,2.89,0,5.6-2.02,5.74-2.13l-1.21-1.59s-3.33,2.47-5.78,1.5Z"/>
      <path class="cls-4" d="M53.27,37.84c-2.36,0-4.28,1.91-4.28,4.28s1.91,4.28,4.28,4.28,4.28-1.91,4.28-4.28-1.91-4.28-4.28-4.28Z"/>
      <path class="cls-2" d="M92.37,41.17c-.26,3.48.9,6.8,3.26,9.35,2.33,2.51,5.63,3.95,9.06,3.95,4.19,0,8-2.06,10.3-5.53-2.26.33-4.58-.51-6.11-2.21-1.3-1.45-1.94-3.4-1.73-5.35.33-3.16,2.86-5.73,6.02-6.1.61-.07,1.22-.06,1.82.02-2.29-3.45-6.18-5.53-10.33-5.53-.37,0-.74.02-1.1.05-5.93.53-10.74,5.41-11.18,11.36ZM104.97,42.12c0,2.36-1.91,4.28-4.28,4.28s-4.28-1.91-4.28-4.28,1.91-4.28,4.28-4.28,4.28,1.91,4.28,4.28Z"/>
      <path class="cls-4" d="M90.38,41.03c-.3,4.04,1.05,7.9,3.79,10.86,2.71,2.92,6.54,4.59,10.52,4.59,5.01,0,9.73-2.67,12.31-6.97.36-.61.33-1.37-.08-1.93-.42-.57-1.14-.84-1.83-.68-1.7.39-3.55-.19-4.72-1.5-.94-1.04-1.38-2.39-1.23-3.8.23-2.24,2.03-4.06,4.27-4.32.68-.08,1.35-.02,1.99.17.62.19,1.28-.02,1.68-.52.41-.51.47-1.21.15-1.78-2.76-4.95-8.2-7.81-13.85-7.31-6.9.62-12.48,6.29-13,13.2ZM114.99,35.3c-.6-.09-1.21-.09-1.82-.02-3.16.38-5.69,2.94-6.02,6.1-.2,1.95.43,3.9,1.73,5.35,1.53,1.7,3.86,2.54,6.11,2.21-2.3,3.48-6.11,5.53-10.3,5.53-3.42,0-6.72-1.44-9.06-3.95-2.36-2.55-3.52-5.87-3.26-9.35.44-5.95,5.25-10.83,11.18-11.36.37-.03.74-.05,1.1-.05,4.15,0,8.04,2.08,10.33,5.53Z"/>
      <circle class="cls-4" cx="100.7" cy="42.12" r="4.28"/>
      <path class="cls-4" d="M76.98,46.4c-2.4,0-4.35,1.29-4.35,2.87s1.95,2.87,4.35,2.87,4.35-1.29,4.35-2.87-1.95-2.87-4.35-2.87Z"/>
      <path class="cls-3" d="M130.54,64.16h-45.56c-.01.27-.08.53-.23.77l-1.39,2.27c-.16.26-.29.54-.39.84h47.56v-3.87Z"/>
      <path class="cls-3" d="M71.21,68.04c-.1-.29-.22-.57-.39-.84l-1.39-2.27c-.14-.23-.21-.5-.23-.77H22.1v3.87h49.11Z"/>
      <path class="cls-2" d="M81.65,66.15l1.15-1.87-2.03-.84c-.86-.36-1.64-.92-2.25-1.64l-1.43-1.67-1.43,1.67c-.61.71-1.39,1.28-2.25,1.64l-2.03.84,1.15,1.87c.49.8.79,1.71.86,2.65l.17,2.19,2.14-.51c.91-.22,1.87-.22,2.78,0l2.14.51.17-2.19c.07-.93.37-1.85.86-2.65Z"/>
      <path class="cls-3" d="M77.09,79.87c-19.35,0-35.09,15.74-35.09,35.09s15.74,35.09,35.09,35.09,35.09-15.74,35.09-35.09-15.74-35.09-35.09-35.09ZM103.96,108.89s-.03.16-.07.28c-.02.07-.04.16-.06.22-.03.12-.07.29-.11.43l-.05.22c-.03.12-.06.25-.09.35-.03.1-.08.24-.12.35l-.05.14c-.03.09-.06.18-.09.26l-.04.12c-.03.09-.06.18-.08.25-.41,1-1.11,2.02-1.73,2.93l-.29.42c-.13.19-.27.36-.43.52l-21.22,21.22c-.7.71-1.63,1.06-2.56,1.06s-1.85-.35-2.55-1.05l-20.25-20.15c-1.62-1.71-2.77-3.44-3.53-5.3-.06-.16-.11-.31-.14-.42l-.04-.12c-.03-.1-.06-.19-.08-.25-.01-.05-.04-.12-.06-.18-.03-.09-.05-.16-.06-.19l-.04-.15c-.03-.12-.06-.25-.08-.34l-.03-.16c-.03-.15-.07-.32-.09-.45l-.04-.25c-.03-.16-.06-.33-.08-.47-.08-1.09-.08-2.63,0-3.63.02-.18.05-.37.08-.55l.04-.22c.03-.18.08-.44.12-.63.03-.15.09-.36.13-.5.01-.05.04-.14.08-.24l.08-.26c.03-.12.06-.24.09-.34l.13-.26c1.4-3.7,4.31-6.66,8.19-8.34l.12-.08.29-.1c.1-.03.2-.07.28-.09l.17-.06c.09-.03.18-.06.21-.07l.12-.03c.13-.03.27-.07.38-.09.06-.01.15-.04.22-.06.12-.03.22-.06.27-.07.07-.01.14-.03.22-.04.14-.03.28-.06.39-.08l.29-.04c.19-.03.39-.06.55-.07.89-.08,2.17-.05,3,0h.05c.25.03.6.08.86.13.18.03.43.08.62.12.15.03.35.09.5.12l.15.04c.12.03.24.06.34.09.11.03.26.09.38.12l.12.04c.08.03.17.05.24.08,1.15.43,2.9,1.47,3.85,2.2.48.37,1.41,1.33,2.77,2.77.56.6,1.29,1.36,1.72,1.78.47-.45,1.27-1.27,1.9-1.92,1.37-1.41,2.24-2.3,2.69-2.64.89-.68,2.48-1.66,3.48-2.07.08-.03.17-.06.26-.09l.48-.16c.17-.06.29-.1.38-.12.1-.03.22-.06.35-.09l.25-.06c.13-.04.29-.08.4-.1.25-.05.46-.1.61-.12.26-.04.6-.09.85-.12.96-.06,2.19-.06,3.04,0,.25.03.52.07.76.1l.12.02c.12.02.26.05.4.08l.21.04c.08.01.19.04.32.08l.37.1c.05.02.13.05.19.06.09.03.15.04.2.05.13.03.24.06.33.09l.12.04c.09.03.18.06.25.09,3.96,1.57,7.08,4.79,8.57,8.81l.06.17c.03.09.06.19.08.25.04.15.09.34.12.5l.04.15c.03.12.06.25.08.35.01.06.04.15.06.22.03.12.06.22.06.27.04.26.09.58.12.84.07,1.01.07,2.42,0,3.39-.04.31-.08.64-.13.9Z"/>
      <path class="cls-4" d="M77.09,77.87c-20.45,0-37.09,16.64-37.09,37.09s16.64,37.09,37.09,37.09,37.09-16.64,37.09-37.09-16.64-37.09-37.09-37.09ZM77.09,150.05c-19.35,0-35.09-15.74-35.09-35.09s15.74-35.09,35.09-35.09,35.09,15.74,35.09,35.09-15.74,35.09-35.09,35.09Z"/>
      <path class="cls-2" d="M101.99,104.08l-.02-.06c-.03-.12-.07-.26-.09-.36-.01-.06-.03-.14-.05-.22l-.05-.2c-.03-.13-.07-.3-.1-.42l-.1-.31c-1.25-3.4-4.03-6.26-7.41-7.6l-.39-.12c-.11-.02-.22-.05-.33-.08-.08-.02-.22-.07-.31-.1l-.2-.05c-.07-.02-.13-.04-.18-.04l-.25-.05c-.1-.02-.2-.04-.29-.06l-.12-.02c-.21-.03-.44-.07-.63-.09-.73-.05-1.87-.05-2.69,0-.18.02-.48.07-.7.1-.13.02-.31.06-.46.09-.16.03-.27.06-.38.09l-.3.07c-.08.02-.16.04-.22.06l-.64.21c-.06.02-.14.05-.21.07l-.1.03c-.79.32-2.25,1.22-3.03,1.81-.36.27-1.53,1.47-2.46,2.44-2.34,2.41-2.54,2.56-2.95,2.66-.22.05-.55.05-.77,0-.43-.09-.66-.31-2.78-2.54-.95-1.01-2.13-2.26-2.52-2.55-.83-.63-2.4-1.57-3.34-1.92l-.32-.11c-.1-.03-.22-.08-.31-.1-.06-.02-.13-.03-.21-.05l-.21-.05c-.13-.03-.3-.08-.42-.1-.16-.03-.37-.08-.52-.11-.21-.04-.5-.08-.72-.1-.82-.05-1.96-.06-2.69,0-.12.01-.27.04-.41.06l-.35.05c-.06,0-.14.03-.22.05-.11.02-.22.05-.31.06l-.1.03c-.11.03-.23.06-.32.08-.08.02-.19.05-.29.07l-.13.03c-.13.05-.23.08-.3.1l-.2.07c-.08.05-.18.1-.32.15-3.32,1.44-5.85,4-7.05,7.18-.04.11-.08.2-.12.27,0,.03-.01.05-.02.08-.02.08-.04.17-.06.25l-.12.35c-.03.11-.07.28-.1.4-.03.15-.08.37-.1.52l-.05.26c-.02.13-.05.27-.06.38-.06.86-.06,2.31,0,3.24,0,.05.03.18.05.31l.05.29c.02.1.04.23.07.35l.04.18c.01.06.04.15.06.23l.05.19c.04.09.08.21.11.31l.1.31c.03.1.07.22.1.31.65,1.58,1.67,3.1,3.1,4.61l20.23,20.12c.63.63,1.66.63,2.29,0l21.22-21.22c.07-.07.13-.15.19-.23l.29-.43c.56-.82,1.2-1.75,1.53-2.56.04-.15.07-.23.1-.32l.1-.31c.04-.12.08-.23.1-.31.02-.07.04-.14.06-.22l.05-.2c.05-.18.08-.32.1-.41.02-.09.05-.21.08-.32l.03-.12c.03-.2.08-.5.1-.72.06-.83.06-2.14,0-3.01-.02-.19-.07-.48-.1-.71Z"/>
      <path class="cls-4" d="M104.08,104.61c-.03-.26-.08-.58-.12-.84,0-.04-.03-.15-.06-.27-.02-.07-.04-.16-.06-.22-.02-.1-.05-.22-.08-.35l-.04-.15c-.04-.15-.08-.35-.12-.5-.02-.07-.05-.16-.08-.25l-.06-.17c-1.48-4.02-4.6-7.23-8.57-8.81-.08-.03-.16-.06-.25-.09l-.12-.04c-.09-.03-.2-.06-.33-.09-.05-.01-.11-.02-.2-.05-.06-.02-.14-.05-.19-.06l-.37-.1c-.12-.03-.24-.06-.32-.08l-.21-.04c-.14-.03-.28-.06-.4-.08l-.12-.02c-.24-.04-.51-.08-.76-.1-.85-.06-2.08-.06-3.04,0-.25.03-.59.08-.85.12-.16.03-.37.07-.61.12-.11.02-.27.06-.4.1l-.25.06c-.12.03-.25.06-.35.09-.09.03-.21.07-.38.12l-.48.16c-.09.03-.19.06-.26.09-1,.41-2.59,1.39-3.48,2.07-.45.34-1.31,1.22-2.69,2.64-.63.65-1.43,1.47-1.9,1.92-.43-.43-1.15-1.19-1.72-1.78-1.36-1.44-2.29-2.4-2.77-2.77-.95-.72-2.7-1.77-3.85-2.2-.07-.03-.16-.05-.24-.08l-.12-.04c-.11-.04-.26-.09-.38-.12-.1-.03-.22-.06-.34-.09l-.15-.04c-.15-.04-.35-.09-.5-.12-.18-.04-.44-.09-.62-.12-.26-.04-.61-.09-.86-.12h-.05c-.83-.05-2.11-.08-3,0-.16.01-.36.04-.55.07l-.29.04c-.11.01-.25.04-.39.08-.07.02-.15.03-.22.04-.05,0-.15.03-.27.07-.07.02-.16.04-.22.06-.11.02-.25.06-.38.09l-.12.03s-.11.03-.21.07l-.17.06c-.08.02-.18.06-.28.09l-.29.1-.12.08c-3.88,1.68-6.79,4.64-8.19,8.34l-.13.26c-.03.1-.06.22-.09.34l-.08.26c-.03.1-.06.19-.08.24-.04.15-.09.36-.13.5-.04.18-.1.45-.12.63l-.04.22c-.03.18-.07.36-.08.55-.07,1-.07,2.54,0,3.63.02.14.05.3.08.47l.04.25c.02.13.05.29.09.45l.03.16c.02.1.05.22.08.34l.04.15s.03.1.06.19c.02.05.04.12.06.18.02.06.05.15.08.25l.04.12c.04.11.08.26.14.42.76,1.86,1.91,3.58,3.53,5.3l20.25,20.15c.7.7,1.63,1.05,2.55,1.05s1.85-.35,2.56-1.06l21.22-21.22c.16-.16.3-.34.43-.52l.29-.42c.62-.9,1.32-1.93,1.73-2.93.03-.07.06-.15.08-.25l.04-.12c.03-.08.06-.17.09-.26l.05-.14c.04-.11.09-.25.12-.35.03-.1.06-.23.09-.35l.05-.22c.04-.14.08-.31.11-.43.01-.06.04-.15.06-.22.03-.12.06-.23.07-.28.04-.26.09-.59.13-.9.07-.97.07-2.38,0-3.39ZM102.09,107.81c-.03.23-.07.52-.1.72l-.03.12c-.03.11-.06.23-.08.32-.02.1-.06.23-.1.41l-.05.2c-.02.07-.03.15-.06.22-.02.08-.06.19-.1.31l-.1.31c-.03.09-.06.17-.1.32-.33.81-.97,1.74-1.53,2.56l-.29.43c-.06.08-.12.16-.19.23l-21.22,21.22c-.63.63-1.65.63-2.29,0l-20.23-20.12c-1.43-1.51-2.45-3.03-3.1-4.61-.03-.09-.07-.22-.1-.31l-.1-.31c-.03-.1-.07-.22-.11-.31l-.05-.19c-.02-.08-.04-.17-.06-.23l-.04-.18c-.03-.12-.05-.25-.07-.35l-.05-.29c-.02-.13-.05-.26-.05-.31-.07-.94-.07-2.38,0-3.24.01-.11.04-.24.06-.38l.05-.26c.02-.15.07-.37.1-.52.03-.12.07-.29.1-.4l.12-.35c.02-.08.04-.16.06-.25,0-.03.01-.05.02-.08.04-.07.08-.16.12-.27,1.2-3.18,3.73-5.74,7.05-7.18.14-.05.24-.1.32-.15l.2-.07c.08-.02.18-.06.3-.1l.13-.03c.1-.03.21-.06.29-.07.09-.02.22-.05.32-.08l.1-.03c.09-.02.2-.04.31-.06.08-.02.16-.04.22-.05l.35-.05c.14-.02.29-.05.41-.06.72-.06,1.86-.05,2.69,0,.22.02.5.07.72.1.15.03.37.07.52.11.12.03.29.07.42.1l.21.05c.07.02.15.03.21.05.09.03.22.07.31.1l.32.11c.94.35,2.52,1.29,3.34,1.92.39.29,1.57,1.54,2.52,2.55,2.11,2.23,2.35,2.45,2.78,2.54.22.05.56.05.77,0,.42-.09.61-.25,2.95-2.66.94-.96,2.1-2.16,2.46-2.44.78-.59,2.24-1.49,3.03-1.81l.1-.03c.07-.02.14-.04.21-.07l.64-.21c.07-.02.15-.04.22-.06l.3-.07c.1-.03.22-.06.38-.09.15-.03.33-.07.46-.09.23-.04.52-.08.7-.1.82-.05,1.96-.05,2.69,0,.18.02.42.06.63.09l.12.02c.08.01.19.04.29.06l.25.05s.11.03.18.04l.2.05c.09.03.24.08.31.1.11.03.23.06.33.08l.39.12c3.38,1.34,6.16,4.2,7.41,7.6l.1.31c.04.12.07.29.1.42l.05.2c.02.08.04.16.05.22.02.11.06.25.09.36l.02.06c.04.24.08.53.1.71.06.87.06,2.18,0,3.01Z"/>
    </g>
  </g>
</svg>