<svg width="40" height="40" viewBox="0 0 40 40" fill="none" xmlns="http://www.w3.org/2000/svg">
<mask id="mask0_104001_536" style="mask-type:alpha" maskUnits="userSpaceOnUse" x="0" y="0" width="40" height="40">
<rect width="40" height="40" fill="#D9D9D9"/>
</mask>
<g mask="url(#mask0_104001_536)">
<path d="M18.3334 36.6667C17.4167 36.6667 16.632 36.3403 15.9792 35.6875C15.3264 35.0347 15 34.25 15 33.3333V26.6667H10C9.08335 26.6667 8.29863 26.3403 7.64585 25.6875C6.99308 25.0347 6.66669 24.25 6.66669 23.3333V11.6667C6.66669 9.83333 7.31946 8.26389 8.62502 6.95833C9.93058 5.65278 11.5 5 13.3334 5H33.3334V23.3333C33.3334 24.25 33.007 25.0347 32.3542 25.6875C31.7014 26.3403 30.9167 26.6667 30 26.6667H25V33.3333C25 34.25 24.6736 35.0347 24.0209 35.6875C23.3681 36.3403 22.5834 36.6667 21.6667 36.6667H18.3334ZM10 16.6667H30V8.33333H28.3334V15H25V8.33333H23.3334V11.6667H20V8.33333H13.3334C12.4167 8.33333 11.632 8.65972 10.9792 9.3125C10.3264 9.96528 10 10.75 10 11.6667V16.6667ZM10 23.3333H30V20H10V23.3333Z" fill="#0831B4"/>
</g>
</svg>
