<svg width="40" height="40" viewBox="0 0 40 40" fill="none" xmlns="http://www.w3.org/2000/svg">
<mask id="mask0_104006_194" style="mask-type:alpha" maskUnits="userSpaceOnUse" x="0" y="0" width="40" height="40">
<rect width="40" height="40" fill="#D9D9D9"/>
</mask>
<g mask="url(#mask0_104006_194)">
<path d="M11.6666 35C10.75 35 9.96524 34.6736 9.31246 34.0208C8.65968 33.3681 8.33329 32.5833 8.33329 31.6667V10H6.66663V6.66667H15V5H25V6.66667H33.3333V10H31.6666V31.6667C31.6666 32.5833 31.3402 33.3681 30.6875 34.0208C30.0347 34.6736 29.25 35 28.3333 35H11.6666ZM28.3333 10H11.6666V31.6667H28.3333V10ZM15 28.3333H18.3333V13.3333H15V28.3333ZM21.6666 28.3333H25V13.3333H21.6666V28.3333Z" fill="#0831B4"/>
</g>
</svg>
