<?xml version="1.0" encoding="UTF-8"?>
<svg id="Layer_2" data-name="Layer 2" xmlns="http://www.w3.org/2000/svg" viewBox="0 0 118.99 145.17">
  <defs>
    <style>
      .cls-1 {
        fill: #5a75cd;
      }

      .cls-2 {
        fill: #8da0dd;
      }

      .cls-3 {
        fill: #0831b4;
      }
    </style>
  </defs>
  <g id="Lamp">
    <g>
      <rect class="cls-2" x="51.31" y="93.45" width="15.43" height="20.43"/>
      <polygon class="cls-1" points="112.79 88.45 99.86 5 18.2 5 5.26 88.45 112.79 88.45"/>
      <rect class="cls-1" x="5.63" y="118.87" width="108.36" height="21.3"/>
      <path class="cls-3" d="M115.91,113.87h-44.17v-20.43h42.92c1,0,1.94-.43,2.58-1.18.65-.76.93-1.77.77-2.79L104.57,2.74c-.24-1.56-1.69-2.74-3.36-2.74H16.85c-1.68,0-3.12,1.18-3.36,2.74L.04,89.48c-.16,1.01.12,2.03.77,2.79.64.75,1.58,1.18,2.58,1.18h42.92v20.43H3.72c-1.7,0-3.09,1.38-3.09,3.09v25.13c0,1.7,1.38,3.09,3.09,3.09h112.19c1.7,0,3.09-1.38,3.09-3.09v-25.13c0-1.7-1.38-3.09-3.09-3.09ZM113.99,140.17H5.63v-21.3h108.36v21.3ZM99.86,5l12.93,83.45H5.26L18.2,5h81.66ZM66.74,93.45v20.43h-15.43v-20.43h15.43Z"/>
    </g>
  </g>
</svg>