<?xml version="1.0" encoding="UTF-8"?>
<svg id="Layer_2" data-name="Layer 2" xmlns="http://www.w3.org/2000/svg" viewBox="0 0 134.59 141.84">
  <defs>
    <style>
      .cls-1 {
        fill: #5a75cd;
      }

      .cls-2 {
        fill: #0831b4;
      }
    </style>
  </defs>
  <g id="Teddy_Bear" data-name="Teddy Bear">
    <g>
      <path class="cls-1" d="M38.14,24.51c3.11-6.5,8.33-11.8,14.77-15.02-1.94-2.71-5.11-4.49-8.7-4.49-5.9,0-10.71,4.8-10.71,10.71,0,3.65,1.84,6.87,4.63,8.81Z"/>
      <path class="cls-1" d="M96.7,24.95c3.18-1.86,5.33-5.3,5.33-9.24,0-5.9-4.8-10.71-10.71-10.71-3.73,0-7.02,1.92-8.94,4.82,6.28,3.32,11.33,8.65,14.31,15.12Z"/>
      <path class="cls-1" d="M24.21,87.85c0-9.53,3.56-18.28,9.5-25.19-4.68,2.04-10.01,5.55-15.21,10.58-5.64,5.46-9.93,11.57-12.09,17.21-1.89,4.94-1.88,8.91.03,10.89h0c2.86,2.95,10.48,1.77,19.06-3.67-.85-3.14-1.3-6.43-1.3-9.82Z"/>
      <path class="cls-1" d="M100.94,62.67c5.94,6.9,9.5,15.66,9.5,25.19,0,3.39-.45,6.67-1.3,9.82,8.59,5.44,16.2,6.63,19.06,3.67,3.88-4.01-.12-16.53-12.06-28.09-5.2-5.03-10.52-8.54-15.21-10.58Z"/>
      <path class="cls-2" d="M119.62,69.66c-8.39-8.12-17.66-13.05-25.02-13.93,3.19-5.01,5.05-10.95,5.05-17.31,0-3.02-.43-5.95-1.21-8.73,5.09-2.6,8.59-7.88,8.59-13.98,0-8.66-7.05-15.71-15.71-15.71-5.79,0-10.84,3.15-13.56,7.83-3.28-1.12-6.79-1.74-10.44-1.74-3.38,0-6.64.52-9.7,1.49-2.76-4.53-7.73-7.57-13.41-7.57-8.66,0-15.71,7.05-15.71,15.71,0,5.78,3.15,10.83,7.81,13.56-.86,2.9-1.33,5.98-1.33,9.15,0,6.37,1.86,12.3,5.05,17.31-7.36.88-16.63,5.81-25.02,13.93-6.15,5.95-10.87,12.7-13.28,19.01-2.66,6.93-2.26,12.67,1.11,16.15,2,2.07,4.85,3.05,8.22,3.05,4.65,0,10.3-1.88,16.1-5.37,1.73,4.12,4.15,7.9,7.15,11.23-3.56,2.96-5.81,7.19-5.81,11.9,0,8.93,8.04,16.19,17.92,16.19,8.98,0,16.42-6.01,17.7-13.82,1.06.07,2.12.12,3.19.12,1.38,0,2.73-.07,4.08-.19,1.25,7.83,8.71,13.88,17.71,13.88,9.88,0,17.92-7.27,17.92-16.19,0-4.93-2.46-9.35-6.32-12.33,2.82-3.23,5.11-6.87,6.77-10.81,5.8,3.48,11.45,5.37,16.1,5.37,3.37,0,6.22-.98,8.22-3.05h0c6.55-6.77,1.2-22.21-12.17-35.16ZM128.2,101.34c-2.86,2.95-10.48,1.77-19.06-3.67.85-3.14,1.3-6.43,1.3-9.82,0-9.53-3.56-18.28-9.5-25.19,4.68,2.04,10.01,5.55,15.21,10.58,11.94,11.56,15.94,24.08,12.06,28.09ZM89.11,136.84c-7.12,0-12.92-5.02-12.92-11.19s5.79-11.2,12.92-11.2,12.92,5.02,12.92,11.2-5.79,11.19-12.92,11.19ZM89.11,109.45c-8.86,0-16.21,5.84-17.65,13.48-1.36.14-2.74.21-4.15.21-1.09,0-2.17-.05-3.24-.14-1.4-7.68-8.77-13.56-17.66-13.56-2.79,0-5.42.59-7.77,1.63-5.88-6.21-9.45-14.33-9.45-23.22,0-11.14,5.61-21.08,14.35-27.55,5.91,6.42,14.38,10.45,23.77,10.45s17.86-4.03,23.77-10.45c8.74,6.47,14.35,16.42,14.35,27.55,0,8.75-3.47,16.77-9.19,22.94-2.19-.86-4.6-1.35-7.14-1.35ZM59.34,125.64c0,6.17-5.8,11.19-12.92,11.19s-12.92-5.02-12.92-11.19,5.79-11.2,12.92-11.2,12.92,5.02,12.92,11.2ZM6.44,101.34h0c-1.91-1.98-1.93-5.94-.03-10.89,2.16-5.64,6.45-11.75,12.09-17.21,5.2-5.03,10.52-8.54,15.21-10.58-5.94,6.9-9.5,15.66-9.5,25.19,0,3.39.45,6.67,1.3,9.82-8.59,5.44-16.2,6.63-19.06,3.67ZM67.32,11.09c15.07,0,27.33,12.26,27.33,27.33s-12.26,27.33-27.33,27.33-27.33-12.26-27.33-27.33,12.26-27.33,27.33-27.33ZM44.21,5c3.58,0,6.75,1.78,8.7,4.49-6.44,3.22-11.66,8.52-14.77,15.02-2.79-1.93-4.63-5.16-4.63-8.81,0-5.9,4.8-10.71,10.71-10.71ZM91.33,5c5.9,0,10.71,4.8,10.71,10.71,0,3.94-2.15,7.38-5.33,9.24-2.98-6.47-8.03-11.8-14.31-15.12,1.92-2.9,5.2-4.82,8.94-4.82Z"/>
      <path class="cls-1" d="M105.44,87.85c0-11.14-5.61-21.08-14.35-27.55-5.91,6.42-14.38,10.45-23.77,10.45s-17.86-4.03-23.77-10.45c-8.74,6.47-14.35,16.42-14.35,27.55,0,8.88,3.57,17.01,9.45,23.22,2.35-1.03,4.98-1.63,7.77-1.63,8.89,0,16.26,5.88,17.66,13.56,1.07.08,2.15.14,3.24.14,1.4,0,2.78-.08,4.15-.21,1.43-7.64,8.79-13.48,17.65-13.48,2.54,0,4.95.49,7.14,1.35,5.72-6.17,9.19-14.19,9.19-22.94Z"/>
      <path class="cls-1" d="M67.32,65.75c15.07,0,27.33-12.26,27.33-27.33s-12.26-27.33-27.33-27.33-27.33,12.26-27.33,27.33,12.26,27.33,27.33,27.33ZM51.36,28.91c0-2.16,1.75-3.91,3.91-3.91s3.91,1.75,3.91,3.91-1.75,3.91-3.91,3.91-3.91-1.75-3.91-3.91ZM79.37,25c2.16,0,3.91,1.75,3.91,3.91s-1.75,3.91-3.91,3.91-3.91-1.75-3.91-3.91,1.75-3.91,3.91-3.91ZM67.32,35.69c2.16,0,3.91,1.22,3.91,2.72s-1.75,2.72-3.91,2.72-3.91-1.22-3.91-2.72,1.75-2.72,3.91-2.72Z"/>
      <path class="cls-1" d="M89.11,114.45c-7.12,0-12.92,5.02-12.92,11.2s5.79,11.19,12.92,11.19,12.92-5.02,12.92-11.19-5.79-11.2-12.92-11.2Z"/>
      <path class="cls-1" d="M46.43,114.45c-7.12,0-12.92,5.02-12.92,11.2s5.79,11.19,12.92,11.19,12.92-5.02,12.92-11.19-5.8-11.2-12.92-11.2Z"/>
      <path class="cls-2" d="M55.27,32.82c2.16,0,3.91-1.75,3.91-3.91s-1.75-3.91-3.91-3.91-3.91,1.75-3.91,3.91,1.75,3.91,3.91,3.91Z"/>
      <path class="cls-2" d="M79.37,32.82c2.16,0,3.91-1.75,3.91-3.91s-1.75-3.91-3.91-3.91-3.91,1.75-3.91,3.91,1.75,3.91,3.91,3.91Z"/>
      <path class="cls-2" d="M67.32,41.14c2.16,0,3.91-1.22,3.91-2.72s-1.75-2.72-3.91-2.72-3.91,1.22-3.91,2.72,1.75,2.72,3.91,2.72Z"/>
    </g>
  </g>
</svg>