<?xml version="1.0" encoding="UTF-8"?>
<svg id="Layer_2" data-name="Layer 2" xmlns="http://www.w3.org/2000/svg" viewBox="0 0 124.68 122.26">
  <defs>
    <style>
      .cls-1 {
        fill: #f9fdff;
      }

      .cls-2 {
        fill: #a7d4ff;
      }

      .cls-3 {
        fill: #7cbfff;
      }

      .cls-4 {
        fill: #c3e2ff;
      }

      .cls-5 {
        fill: #edfafe;
      }
    </style>
  </defs>
  <g id="Telescope">
    <g>
      <rect class="cls-1" x="6.88" y="59.32" width="7.75" height="11.89" transform="translate(-17.9 5.65) rotate(-16.31)"/>
      <path class="cls-5" d="M49.78,68.2v-10.43c0-2.39.65-4.62,1.78-6.54l-3.31-11.3-31.89,9.33,7.74,26.45,25.68-7.51Z"/>
      <path class="cls-4" d="M100.41,57.31l-11-37.6-37.6,11,4.6,15.71c1.89-1.07,4.08-1.7,6.41-1.7,7.19,0,13.03,5.85,13.03,13.03v6.73l24.56-7.19Z"/>
      <path class="cls-2" d="M54.78,100.14h16.07v-42.37c0-4.43-3.6-8.03-8.03-8.03s-8.03,3.6-8.03,8.03v42.37Z"/>
      <rect class="cls-2" x="6.37" y="105.14" width="112.88" height="12.12"/>
      <path class="cls-3" d="M120.76,100.14h-44.91v-30.43l26.92-7.88,1.89,6.46c.25.84.8,1.53,1.57,1.95.49.27,1.03.4,1.57.4.31,0,.62-.04.93-.13l13.59-3.98c1.74-.51,2.74-2.33,2.23-4.07L106.96,2.36c-.51-1.74-2.33-2.74-4.07-2.23l-13.59,3.98c-.84.25-1.54.8-1.96,1.57s-.52,1.66-.27,2.5l1.89,6.46-39.98,11.7c-.9.26-1.65.86-2.1,1.69-.45.82-.55,1.77-.29,2.67l1.22,4.15-34.32,10.04c-.89.26-1.63.85-2.07,1.66-.44.81-.55,1.75-.29,2.64l1.23,4.19-9.85,2.88c-1.85.54-2.91,2.48-2.37,4.33l4.19,14.31c.45,1.52,1.84,2.51,3.35,2.51.32,0,.65-.05.98-.14l9.85-2.88,1.23,4.19c.26.89.85,1.62,1.66,2.07.52.28,1.09.43,1.66.43.33,0,.66-.05.98-.14l25.74-7.53v26.73H4.87c-1.93,0-3.5,1.57-3.5,3.5v15.12c0,1.93,1.57,3.5,3.5,3.5h115.88c1.93,0,3.5-1.57,3.5-3.5v-15.12c0-1.93-1.57-3.5-3.5-3.5ZM119.26,117.26H6.37v-12.12h112.88v12.12ZM8.7,72.06l-3.34-11.41,7.44-2.18,3.34,11.41-7.44,2.18ZM16.36,49.26l31.89-9.33,3.31,11.3c-1.12,1.93-1.78,4.16-1.78,6.54v10.43l-25.68,7.51-7.74-26.45ZM102.64,5.41l16.62,56.8-10.29,3.01-16.62-56.8,10.29-3.01ZM62.82,44.73c-2.33,0-4.51.62-6.41,1.7l-4.6-15.71,37.6-11,11,37.6-24.56,7.19v-6.73c0-7.19-5.85-13.03-13.03-13.03ZM54.78,57.77c0-4.43,3.6-8.03,8.03-8.03s8.03,3.6,8.03,8.03v42.37h-16.07v-42.37Z"/>
      <rect class="cls-2" x="100.45" y="5.73" width="10.72" height="59.19" transform="translate(-5.66 31.14) rotate(-16.31)"/>
    </g>
  </g>
</svg>