<?xml version="1.0" encoding="UTF-8"?>
<svg id="Layer_2" data-name="Layer 2" xmlns="http://www.w3.org/2000/svg" viewBox="0 0 163.5 167.48">
  <defs>
    <style>
      .cls-1 {
        fill: #e6eaf8;
      }

      .cls-2 {
        fill: #b2bfe8;
      }

      .cls-3 {
        fill: #5a75cd;
      }

      .cls-4 {
        fill: #8da0dd;
      }

      .cls-5 {
        fill: #0831b4;
      }
    </style>
  </defs>
  <g id="Bed">
    <g>
      <rect class="cls-3" x="22.81" y="138.03" width="12.81" height="24.45"/>
      <rect class="cls-1" x="22.81" y="67.15" width="12.81" height="65.88"/>
      <rect class="cls-2" x="22.81" y="31.37" width="12.81" height="30.78"/>
      <rect class="cls-3" x="145.69" y="153.26" width="12.81" height="9.22"/>
      <rect class="cls-4" x="40.62" y="67.15" width="117.88" height="81.11"/>
      <path class="cls-5" d="M160.52,62.15H40.62V29.8c0-1.89-1.54-3.43-3.43-3.43h-14.38V3.24c0-1.79-1.46-3.24-3.24-3.24H3.24C1.46,0,0,1.46,0,3.24v131.54c0,1.79,1.46,3.24,3.24,3.24h14.57v25.88c0,1.97,1.6,3.57,3.57,3.57h15.68c1.97,0,3.57-1.6,3.57-3.57v-10.65h100.06v10.4c0,2.11,1.71,3.82,3.82,3.82h15.62c1.86,0,3.37-1.51,3.37-3.37v-98.98c0-1.64-1.34-2.98-2.98-2.98ZM145.69,153.26h12.81v9.22h-12.81v-9.22ZM22.81,67.15h12.81v65.88h-12.81v-65.88ZM35.62,62.15h-12.81v-30.78h12.81v30.78ZM5,5h12.81v128.03H5V5ZM22.81,138.03h12.81v24.45h-12.81v-24.45ZM40.62,67.15h117.88v81.11H40.62v-81.11Z"/>
      <rect class="cls-3" x="5" y="5" width="12.81" height="128.03"/>
    </g>
  </g>
</svg>