<?xml version="1.0" encoding="UTF-8"?>
<svg id="Layer_2" data-name="Layer 2" xmlns="http://www.w3.org/2000/svg" viewBox="0 0 179.69 104.06">
  <defs>
    <style>
      .cls-1 {
        fill: #1863ff;
      }

      .cls-2 {
        fill: #e8efff;
      }

      .cls-3 {
        fill: #96baff;
      }

      .cls-4 {
        fill: #b7cfff;
      }
    </style>
  </defs>
  <g id="Giant_Pillow" data-name="Giant Pillow">
    <g>
      <rect class="cls-2" x="162.38" y="5" width="12.31" height="94.06"/>
      <path class="cls-1" d="M176.24,0H3.45C1.55,0,0,1.55,0,3.45v97.16c0,1.9,1.55,3.45,3.45,3.45h172.79c1.9,0,3.45-1.55,3.45-3.45V3.45c0-1.9-1.55-3.45-3.45-3.45ZM144.46,99.29H4.77V4.77h139.69v94.51ZM149,4.87h8.63v94.31h-8.63V4.87ZM174.69,99.06h-12.31V5h12.31v94.06Z"/>
      <rect class="cls-3" x="149" y="4.87" width="8.63" height="94.31"/>
      <rect class="cls-4" x="4.77" y="4.77" width="139.69" height="94.51"/>
    </g>
  </g>
</svg>