<?xml version="1.0" encoding="UTF-8"?>
<svg id="Layer_2" data-name="Layer 2" xmlns="http://www.w3.org/2000/svg" viewBox="0 0 392.82 851.71">
  <defs>
    <style>
      .cls-1 {
        fill: #c4effd;
      }

      .cls-2 {
        fill: #7cbfff;
      }

      .cls-3 {
        fill: #5a75cd;
      }

      .cls-4 {
        fill: #395ac3;
      }

      .cls-5 {
        fill: #8da0dd;
      }

      .cls-6 {
        fill: #0831b4;
      }

      .cls-7 {
        fill: #06227f;
      }
    </style>
  </defs>
  <g id="Planet_Interface_Background" data-name="Planet Interface Background">
    <g>
      <path class="cls-5" d="M381.99,110.85c-.81-.07-1.62-.12-2.43-.17-1-.07-2-.14-2.99-.2-.83-.05-1.65-.09-2.48-.13-.97-.05-1.94-.09-2.91-.13-.83-.03-1.67-.05-2.5-.07-.95-.02-1.9-.05-2.85-.06-.84-.01-1.67-.01-2.5-.02-.94,0-1.87,0-2.81,0-.83,0-1.66.02-2.49.04-.93.02-1.85.04-2.78.08-.83.03-1.65.06-2.48.1-.92.04-1.84.09-2.75.14-.82.05-1.64.1-2.45.15-.91.06-1.83.13-2.74.21-.15.01-.31.03-.46.04,14.73,4.88,27.63,10.52,38.22,16.83v-16.77c-.2-.02-.41-.04-.62-.06Z"/>
      <path class="cls-5" d="M266.66,138.36c-2.48,3.38-4.03,7.31-4.24,11.96-.25,8.13.36,16.58,1.02,25.53,1.26,17.24,2.53,34.87-2.65,50.88,26.78,2.1,51.34,5.53,72.05,10.12,23.45,5.21,40.08,11.42,49.78,18.58v-82.01c-24.43-16.4-66.46-28.81-115.94-35.06ZM348.34,193.01c-.03.29-.08.53-.13.78l-.09.63c-.05.23-.13.53-.19.77l-.03.14c-.05.23-.11.47-.17.64-.11.36-.25.78-.37,1.12-.36.91-.82,1.9-1.26,2.71l-.12.21c-.21.35-.46.78-.68,1.1-.1.14-.22.31-.34.47l-.11.15c-.09.13-.21.27-.34.42-.16.2-.29.36-.41.5-.13.15-.24.27-.37.42-.11.12-.21.23-.31.33-.16.17-.31.33-.42.44l-.17.16c-1.44,1.3-3.18,2.43-5.31,3.48l-.46.19-32.55,10.9-1.28-.79c-.26-.1-.6-.26-.97-.52-1.05-.75-1.55-1.8-2.26-3.44l-.12-.28c-2.28-5.04-4.18-10.47-6.01-15.72-1.54-4.42-3.14-9-4.92-13.18l-.17-.39-.07-.42c-.31-1.75-.58-3.64-.49-5.6l.07-.69c.03-.27.05-.41.06-.52l.08-.58c.05-.27.09-.46.12-.61.08-.34.14-.59.19-.78l.06-.21c.06-.23.13-.47.19-.66l.13-.38c.15-.44.32-.93.48-1.29.15-.36.34-.74.52-1.11.23-.47.6-1.08.89-1.55.19-.3.34-.52.49-.73l.11-.15c.06-.08.18-.25.34-.43.14-.18.26-.33.38-.47l.11-.14c.13-.16.28-.35.4-.49.07-.09.18-.2.29-.32l.93-.88c3.74-3.23,8.42-4.96,13.2-4.82l.29-.02.22.02c.06,0,.12.01.18.02h.1s.46.03.46.03c.31.03.5.06.63.08.15.02.35.06.54.1l.24.05c.19.03.39.07.54.11l.15.04c.22.05.46.11.64.16l.14.03c.26.06.49.12.62.16.51.17,1.18.42,1.68.62.52.21,1.06.47,1.56.73l.04.02c.33.18.75.43,1.11.66l.19.11c.2.13.42.28.63.43l.17.12c.18.12.41.3.61.45.16.12.31.24.45.36l.46.41c.12.11.24.22.36.34.16.15.31.3.43.41l.13.14c1.86,2.03,3.11,4.32,4.04,6.55.12-.04.23-.07.33-.11,1.26-.41,2-.65,2.6-.75,1.35-.24,3.01-.3,4.05-.29l.21-.03.46.04c.16.02.37.04.52.06.24.02.39.04.5.06.19.03.4.07.59.11l.23.05c.17.03.35.07.49.1.33.06.52.1.62.13l.23.06c.24.06.49.13.69.2.59.2,1.29.45,1.78.66.46.2.95.42,1.41.66.39.2.94.53,1.37.79.35.22.67.45.91.62.09.07.25.19.42.33l.12.1c.16.12.37.3.53.43.23.18.39.31.52.44.11.1.26.24.38.36.16.15.28.26.37.36,3.45,3.64,5.46,9.05,5.25,14.14,0,.14-.02.33-.05.54-.01.12-.03.27-.05.42Z"/>
      <path class="cls-4" d="M9.89,194.53c.62.11,1.25.23,1.88.34.86.16,1.73.31,2.59.47,1.45.27,2.9.54,4.36.82.8.15,1.6.31,2.41.46,1.63.32,3.25.63,4.87.95.62.12,1.23.24,1.85.36,2.18.43,4.35.87,6.51,1.3,43.25,8.67,87.96,17.63,128.2-2.53l.37-.17s0,0,0,0c.38-.15.77-.34,1.18-.55.01,0,.02-.01.03-.02,4.34-2.28,7.32-6.77,8-12.02.02-.19.04-.37.06-.56.09-.8.18-1.6.25-2.4.04-.38.07-.75.1-1.13.07-.88.14-1.77.19-2.66.02-.37.04-.73.06-1.1.04-.72.07-1.45.09-2.18.01-.3.02-.59.03-.89.03-.95.05-1.91.06-2.86,0-.32,0-.64,0-.96,0-.98.01-1.95,0-2.93,0-.2,0-.4,0-.6,0-.91-.02-1.82-.03-2.73,0-.22,0-.44-.01-.66-.02-1.03-.04-2.05-.07-3.08,0-.26-.01-.51-.02-.77-.03-1-.05-2-.08-2.99-.02-.65-.03-1.3-.05-1.94-.03-1.3-.07-2.6-.09-3.9-.01-.65-.03-1.3-.04-1.95-.07-4.51-.06-9.03.19-13.52-67.39,2.2-128.23,15.28-162.9,35.32v25.04Z"/>
      <path class="cls-4" d="M222.32,72.58c7.24-1.84,15.25-2.97,24.01-3.37,3.06-.1,6.1-.19,9.14-.27.71-.02,1.42-.03,2.13-.04,2.31-.05,4.62-.1,6.92-.14.93-.02,1.85-.02,2.78-.03,2.07-.03,4.14-.06,6.2-.07,1.03,0,2.05,0,3.08,0,1.94,0,3.89-.01,5.83-.01,1.1,0,2.19.01,3.28.02,1.86.01,3.72.02,5.57.04,1.14.01,2.27.03,3.4.05,1.8.03,3.59.06,5.38.09,1.17.02,2.34.06,3.51.09,1.74.04,3.48.09,5.22.14,1.2.04,2.4.08,3.6.12,1.69.06,3.39.12,5.08.19,1.23.05,2.45.11,3.68.16,1.65.07,3.3.15,4.95.23,1.25.06,2.49.13,3.74.2,1.62.09,3.23.18,4.84.28,1.27.08,2.53.16,3.8.24,1.58.1,3.17.21,4.75.32,1.28.09,2.56.18,3.83.28,1.56.12,3.13.24,4.69.37,1.29.1,2.57.21,3.85.32,1.55.13,3.09.27,4.64.41,1.29.12,2.58.24,3.87.36,1.54.15,3.07.3,4.61.45,1.29.13,2.57.26,3.86.4,1.53.16,3.06.33,4.59.5,1.29.14,2.57.29,3.86.44.54.06,1.08.12,1.62.18V9.79H9.89v114.35c39.95-20.97,107.68-33.9,180.43-34.21,8.02-8.16,18.72-13.97,32-17.35ZM81.87,55.04l-3.07,9.46,1.88,9.77c.51,2.68-.19,5.42-1.92,7.52-1.74,2.1-4.3,3.31-7.02,3.31h-9.94l-8.71,4.8c-1.37.75-2.88,1.13-4.4,1.13-1.13,0-2.27-.21-3.35-.64-2.54-1-4.47-3.06-5.32-5.66l-3.07-9.46-7.26-6.8c-1.99-1.87-3.03-4.5-2.86-7.22.17-2.72,1.53-5.2,3.74-6.8l8.05-5.85,4.22-9c1.16-2.47,3.34-4.27,5.98-4.95,2.64-.68,5.42-.15,7.63,1.45h0l8.04,5.85,9.87,1.23c2.71.34,5.1,1.85,6.56,4.15s1.82,5.11.97,7.7Z"/>
      <path class="cls-7" d="M9.89,124.14V9.79h372.71v64.73c-.54-.06-1.08-.12-1.62-.18-1.29-.15-2.57-.29-3.86-.44-1.53-.17-3.06-.34-4.59-.5-1.29-.14-2.57-.27-3.86-.4-1.54-.16-3.07-.31-4.61-.45-1.29-.12-2.58-.24-3.87-.36-1.54-.14-3.09-.28-4.64-.41-1.28-.11-2.57-.22-3.85-.32-1.56-.13-3.12-.25-4.69-.37-1.28-.1-2.55-.19-3.83-.28-1.58-.11-3.16-.22-4.75-.32-1.26-.08-2.53-.16-3.8-.24-1.61-.1-3.23-.19-4.84-.28-1.24-.07-2.49-.14-3.74-.2-1.65-.08-3.3-.16-4.95-.23-1.22-.06-2.45-.11-3.68-.16-1.69-.07-3.38-.13-5.08-.19-1.2-.04-2.4-.09-3.6-.12-1.74-.05-3.48-.1-5.22-.14-1.17-.03-2.34-.06-3.51-.09-1.79-.04-3.59-.07-5.38-.09-1.13-.02-2.26-.04-3.4-.05-1.85-.02-3.71-.03-5.57-.04-1.09,0-2.18-.02-3.28-.02-1.94,0-3.88,0-5.83.01-1.03,0-2.05,0-3.08,0-2.06.01-4.13.04-6.2.07-.93.01-1.85.02-2.78.03-2.3.04-4.61.09-6.92.14-.71.02-1.42.03-2.13.04-3.03.08-6.08.17-9.14.27-8.76.4-16.77,1.52-24.01,3.37-13.28,3.38-23.97,9.19-32,17.35.92,0,1.83-.02,2.75-.02,4.23,0,8.43.05,12.61.13,10.29-6.57,24.02-10.28,41.04-11.05,47.53-1.61,92.03.15,135.88,5.39v16.7c-21.37-1.71-41.93-.66-61.41,3.08,8.14,2.03,15.89,4.27,23.19,6.69.15-.01.31-.03.46-.04.91-.07,1.82-.15,2.74-.21.82-.06,1.63-.11,2.45-.15.92-.05,1.83-.1,2.75-.14.82-.04,1.65-.07,2.48-.1.92-.03,1.85-.06,2.78-.08.83-.02,1.66-.03,2.49-.04.93,0,1.87-.01,2.81,0,.83,0,1.67,0,2.5.02.95.01,1.9.03,2.85.06.83.02,1.66.04,2.5.07.97.03,1.94.08,2.91.13.83.04,1.65.08,2.48.13.99.06,1.99.13,2.99.2.81.06,1.61.11,2.43.17.2.02.41.04.62.06v16.77c2.71,1.61,5.27,3.27,7.67,4.96l2.11,1.49v46.18l-7.88-5.57c-.62-.44-1.26-.88-1.91-1.31v82.01c5.5,4.06,8.76,8.42,9.79,13.07V0H.11v129.75l2.3-1.4c2.37-1.44,4.87-2.84,7.49-4.22Z"/>
      <path class="cls-3" d="M253.67,176.56c-.64-8.81-1.31-17.91-1.03-26.62.22-4.84,1.42-9.09,3.33-12.83-20.11-2.14-41.29-3.28-62.9-3.28-3.5,0-6.99.04-10.46.1-.39,6.29-.27,12.8-.1,19.43.02.62.03,1.24.05,1.86.33,12.45.68,25.31-2.07,37.91l-.13.6-.27.55c-1.53,3.06-7.31,8.79-13.33,11.28-43.19,21.56-89.53,12.27-134.33,3.29-7.41-1.49-15.03-3.01-22.53-4.37v51.19c9.65-7.26,26.39-13.55,50.1-18.82,36.49-8.1,84.94-12.56,136.42-12.56,18.62,0,36.84.59,54.25,1.72,5.54-14.71,4.3-31.72,3.01-49.44Z"/>
      <path class="cls-3" d="M382.6,101.07v-16.7c-43.85-5.24-88.35-7-135.88-5.39-17.02.78-30.75,4.49-41.04,11.05,42.46.83,82.27,5.81,115.51,14.11,19.48-3.74,40.04-4.79,61.41-3.08Z"/>
      <path class="cls-7" d="M9.89,255.67v-51.19c7.5,1.36,15.11,2.88,22.53,4.37,44.81,8.98,91.14,18.27,134.33-3.29,6.02-2.49,11.8-8.21,13.33-11.28l.27-.55.13-.6c2.75-12.6,2.41-25.47,2.07-37.91-.02-.62-.03-1.24-.05-1.86-.17-6.64-.3-13.14.1-19.43-3.28.06-6.56.13-9.82.24-.25,4.49-.27,9.01-.19,13.52.01.65.02,1.3.04,1.95.03,1.3.06,2.6.09,3.9.02.65.03,1.3.05,1.94.03.99.05,1.99.08,2.99,0,.26.01.51.02.77.02,1.02.05,2.05.07,3.08,0,.22,0,.44.01.66.01.91.03,1.82.03,2.73,0,.2,0,.4,0,.6,0,.98,0,1.95,0,2.93,0,.32,0,.64,0,.96-.01.96-.03,1.91-.06,2.86,0,.3-.02.59-.03.89-.03.73-.06,1.45-.09,2.18-.02.37-.04.73-.06,1.1-.05.89-.12,1.77-.19,2.66-.03.38-.07.75-.1,1.13-.08.8-.16,1.6-.25,2.4-.02.19-.04.37-.06.56-.68,5.25-3.66,9.74-8,12.02-.01,0-.02.01-.03.02-.41.21-.8.4-1.18.55,0,0,0,0,0,0l-.37.17c-40.23,20.16-84.95,11.2-128.2,2.53-2.15-.43-4.33-.87-6.51-1.3-.61-.12-1.23-.24-1.85-.36-1.62-.32-3.24-.64-4.87-.95-.8-.16-1.6-.31-2.41-.46-1.45-.28-2.9-.55-4.36-.82-.87-.16-1.73-.32-2.59-.47-.63-.11-1.25-.23-1.88-.34v-25.04c-.77.45-1.55.89-2.3,1.34L.11,175.38v95.42c.33-5.43,3.6-10.48,9.79-15.13Z"/>
      <path class="cls-7" d="M263.43,175.85c-.65-8.95-1.27-17.4-1.02-25.53.21-4.65,1.77-8.58,4.24-11.96-3.53-.45-7.09-.86-10.69-1.24-1.91,3.75-3.11,7.99-3.33,12.83-.27,8.71.39,17.81,1.03,26.62,1.29,17.72,2.53,34.73-3.01,49.44,3.41.22,6.78.46,10.12.72,5.18-16.01,3.91-33.64,2.65-50.88Z"/>
      <path class="cls-1" d="M382.82,272.57l.03-.29c.02-.2.04-.39.04-.56,0-6.29-13.67-16.68-52.2-25.23-35.81-7.95-83.5-12.33-134.28-12.33s-98.47,4.38-134.28,12.33c-38.53,8.55-52.2,18.94-52.2,25.23,0,.17.01.36.04.58l.04.6v386.99c13.16-16.8,37.97-28.17,66.37-28.17,23.61,0,45.61,7.83,60.02,21.16,14.41-13.33,36.4-21.16,60.02-21.16s45.61,7.83,60.02,21.16c14.41-13.33,36.4-21.16,60.02-21.16,28.4,0,53.22,11.37,66.38,28.17v-387.34Z"/>
      <path class="cls-2" d="M10.01,659.89v-386.99l-.04-.6c-.03-.22-.04-.42-.04-.58,0-6.29,13.67-16.68,52.2-25.23,35.81-7.95,83.5-12.33,134.28-12.33s98.47,4.38,134.28,12.33c38.53,8.55,52.2,18.94,52.2,25.23,0,.17-.01.36-.04.56l-.03.29v387.34c5.67,7.24,9.18,15.48,9.87,24.27v-411.05c.05-.48.07-.95.07-1.4,0-1.09-.13-2.16-.36-3.21-1.02-4.65-4.29-9.01-9.79-13.07-9.7-7.16-26.33-13.37-49.78-18.58-20.71-4.6-45.27-8.02-72.05-10.12-3.34-.26-6.72-.5-10.12-.72-17.41-1.13-35.63-1.72-54.25-1.72-51.48,0-99.92,4.46-136.42,12.56-23.71,5.26-40.45,11.56-50.1,18.82-6.19,4.65-9.46,9.7-9.79,15.13-.02.3-.04.61-.04.91,0,.25.03.51.04.76.01.23.01.46.04.7v410.93c.7-8.77,4.21-16.99,9.87-24.21Z"/>
      <path class="cls-2" d="M316.44,558.66c-22.97,0-44.02,11.28-56.31,30.17l-3.7,5.69-3.7-5.69c-12.29-18.89-33.35-30.16-56.31-30.16s-44.02,11.28-56.31,30.17l-3.7,5.69-3.7-5.69c-12.29-18.89-33.35-30.16-56.31-30.16-36.6,0-66.38,28.59-66.38,63.73v215.38h372.82v-215.38c0-35.14-29.78-63.73-66.38-63.73Z"/>
      <path class="cls-6" d="M392.68,617.9c-.69-12.27-4.2-23.77-9.87-33.87-13.16-23.46-37.97-39.32-66.38-39.32-23.61,0-45.61,10.93-60.02,29.53-14.4-18.6-36.4-29.53-60.02-29.53s-45.61,10.93-60.02,29.53c-14.4-18.6-36.4-29.53-60.02-29.53-28.4,0-53.21,15.86-66.37,39.31-5.66,10.08-9.16,21.55-9.87,33.79-.09,1.52-.14,3.04-.14,4.58v229.33h392.82v-229.33c0-1.51-.05-3-.14-4.49ZM382.82,622.38v215.38H10v-215.38c0-35.14,29.78-63.73,66.38-63.73,22.97,0,44.02,11.28,56.31,30.16l3.7,5.69,3.7-5.69c12.3-18.89,33.35-30.17,56.31-30.17s44.02,11.28,56.31,30.16l3.7,5.69,3.7-5.69c12.3-18.89,33.35-30.17,56.31-30.17,36.6,0,66.38,28.59,66.38,63.73Z"/>
      <path class="cls-6" d="M193.07,123.85c78.79,0,149.91,14.28,189.33,37.64v-22.15c-35.98-24.01-109.77-39.44-189.33-39.44-75.22,0-144.93,13.59-183.08,35.58v22.55c40.47-21.2,109.35-34.18,183.08-34.18Z"/>
      <path class="cls-7" d="M7.59,170.83c.75-.45,1.53-.9,2.3-1.34,34.67-20.04,95.51-33.12,162.9-35.32,3.26-.11,6.53-.18,9.82-.24,3.48-.06,6.96-.1,10.46-.1,21.61,0,42.79,1.14,62.9,3.28,3.6.38,7.16.8,10.69,1.24,49.48,6.26,91.51,18.67,115.94,35.06.65.43,1.29.87,1.91,1.31l7.88,5.57v-46.18l-2.11-1.49c-2.4-1.7-4.97-3.35-7.67-4.96-10.59-6.3-23.49-11.94-38.22-16.83-7.3-2.42-15.05-4.65-23.19-6.69-33.25-8.31-73.05-13.29-115.51-14.11-4.18-.08-8.38-.13-12.61-.13-.92,0-1.83.01-2.75.02-72.75.32-140.47,13.25-180.43,34.21-2.61,1.37-5.12,2.78-7.49,4.22l-2.3,1.4-.1.06v45.63l.1-.06,7.49-4.55ZM9.99,135.47c38.15-21.99,107.85-35.58,183.08-35.58,79.56,0,153.35,15.43,189.33,39.44v22.15c-39.42-23.36-110.54-37.64-189.33-37.64-73.73,0-142.61,12.98-183.08,34.18v-22.55Z"/>
      <path class="cls-2" d="M73.44,50.34l-10.24-1.28c-.96-.12-1.88-.48-2.66-1.05l-8.35-6.07c-.39-.28-.79-.36-1.11-.36-.2,0-.36.03-.49.06-.32.08-.92.33-1.25,1.03l-4.38,9.34c-.41.88-1.04,1.64-1.82,2.21l-8.35,6.07c-.63.46-.76,1.09-.78,1.42-.02.33.03.97.6,1.51l7.53,7.06c.71.66,1.24,1.5,1.54,2.42l3.19,9.82c.24.74.8,1.06,1.11,1.18.31.12.93.27,1.62-.1l9.04-4.98c.85-.47,1.8-.71,2.77-.71h10.32c.78,0,1.25-.43,1.47-.69.21-.26.55-.81.4-1.57l-1.95-10.14c-.18-.95-.12-1.94.18-2.86l3.19-9.81c.24-.74-.02-1.33-.2-1.61-.18-.28-.6-.77-1.37-.87Z"/>
      <path class="cls-6" d="M74.34,43.18l-9.87-1.23-8.04-5.85h0c-2.21-1.6-4.99-2.13-7.63-1.45-2.64.68-4.82,2.49-5.98,4.95l-4.22,9-8.05,5.85c-2.21,1.6-3.57,4.08-3.74,6.8-.17,2.72.87,5.35,2.86,7.22l7.26,6.8,3.07,9.46c.84,2.59,2.78,4.66,5.32,5.66,1.08.43,2.22.64,3.35.64,1.52,0,3.03-.38,4.4-1.13l8.71-4.8h9.94c2.73,0,5.29-1.21,7.02-3.31,1.74-2.1,2.44-4.84,1.92-7.52l-1.88-9.77,3.07-9.46c.84-2.59.49-5.4-.97-7.7s-3.85-3.82-6.56-4.15ZM75.02,52.81l-3.19,9.81c-.3.92-.36,1.91-.18,2.86l1.95,10.14c.15.77-.19,1.31-.4,1.57-.21.26-.69.69-1.47.69h-10.32c-.97,0-1.93.25-2.77.71l-9.04,4.98c-.68.38-1.31.23-1.62.1-.31-.12-.87-.44-1.11-1.18l-3.19-9.82c-.3-.92-.83-1.76-1.54-2.42l-7.53-7.06c-.57-.53-.62-1.17-.6-1.51.02-.33.15-.96.78-1.42l8.35-6.07c.78-.57,1.41-1.33,1.82-2.21l4.38-9.34c.33-.71.92-.95,1.25-1.03.12-.03.29-.06.49-.06.32,0,.71.08,1.11.36l8.35,6.07c.78.57,1.7.93,2.66,1.05l10.24,1.28c.77.1,1.19.59,1.37.87.18.28.44.87.2,1.61Z"/>
      <path class="cls-2" d="M337.1,182.44c-.08-.07-.2-.16-.28-.23-.09-.07-.21-.17-.32-.26-.1-.08-.29-.22-.43-.31-.29-.18-.65-.4-.92-.54-.31-.16-.62-.3-.91-.43-.35-.15-.83-.31-1.18-.43-.04-.01-.17-.05-.29-.08l-.1-.03c-.22-.04-.41-.08-.55-.11l-1.06-.18c-.11,0-.22,0-.33,0-.85,0-1.95.06-2.6.17-.29.07-.91.28-1.61.5-3.61,1.17-5.42,1.76-7.25.36l-.92-.7-.36-1.1c-.8-2.46-1.79-5-3.56-6.97l-.35-.33c-.11-.1-.23-.22-.34-.32l-.18-.15c-.16-.12-.29-.22-.38-.29l-.68-.46c-.22-.14-.47-.29-.67-.4-.31-.16-.64-.32-.96-.45-.31-.13-.73-.29-1.07-.4-.27-.06-.47-.11-.63-.16l-1.14-.24c-.17,0-.32,0-.48-.02-.08,0-.16-.02-.24-.03-.09,0-.18,0-.28,0-2.85-.08-5.74.99-8.07,3.01-.08.08-.17.15-.26.22l-.64.74c-.16.2-.29.37-.41.5l-.05.07c-.08.11-.16.23-.22.32-.17.28-.42.69-.58,1-.12.23-.23.48-.34.71-.1.23-.19.51-.28.76l-.11.33s-.03.12-.06.23l-.08.29c-.03.1-.06.23-.09.35l-.07.34c-.02.16-.04.32-.06.45l-.05.49c-.04,1.08.12,2.27.31,3.43,1.81,4.3,3.4,8.85,4.93,13.25,1.73,4.95,3.51,10.07,5.58,14.7l27.97-9.37c1.37-.69,2.43-1.37,3.3-2.14l.34-.35c.09-.1.2-.21.29-.31l.17-.21c.07-.09.17-.21.26-.32l.33-.44c.13-.19.29-.46.42-.68.28-.52.62-1.25.83-1.76.04-.13.14-.45.22-.71l.11-.47c.02-.09.05-.2.08-.3.01-.12.03-.25.05-.37.03-.16.06-.32.09-.48v-.1c.03-.16.04-.3.06-.43.09-3.07-1.16-6.41-3.2-8.56l-.7-.61Z"/>
      <path class="cls-6" d="M343.19,177.92c-.09-.1-.21-.21-.37-.36-.11-.11-.27-.26-.38-.36-.13-.12-.29-.25-.52-.44-.16-.13-.37-.31-.53-.43l-.12-.1c-.17-.14-.32-.26-.42-.33-.24-.17-.57-.4-.91-.62-.43-.26-.98-.6-1.37-.79-.46-.24-.95-.47-1.41-.66-.49-.21-1.2-.46-1.78-.66-.2-.06-.45-.13-.69-.2l-.23-.06c-.1-.03-.28-.07-.62-.13-.14-.03-.31-.07-.49-.1l-.23-.05c-.18-.04-.39-.08-.59-.11-.11-.02-.26-.04-.5-.06-.15-.02-.36-.05-.52-.06l-.46-.04-.21.03c-1.05-.02-2.7.05-4.05.29-.59.11-1.34.34-2.6.75-.1.03-.21.07-.33.11-.93-2.23-2.18-4.52-4.04-6.55l-.13-.14c-.12-.11-.27-.26-.43-.41-.12-.12-.24-.23-.36-.34l-.46-.41c-.14-.12-.29-.24-.45-.36-.19-.15-.43-.32-.61-.45l-.17-.12c-.21-.15-.43-.3-.63-.43l-.19-.11c-.36-.22-.78-.48-1.11-.66l-.04-.02c-.5-.26-1.03-.51-1.56-.73-.5-.21-1.18-.46-1.68-.62-.13-.04-.36-.1-.62-.16l-.14-.03c-.18-.05-.42-.11-.64-.16l-.15-.04c-.15-.04-.35-.07-.54-.11l-.24-.05c-.19-.04-.39-.08-.54-.1-.13-.02-.32-.04-.63-.08l-.46-.04h-.1c-.06,0-.12,0-.18,0l-.22-.02-.29.02c-4.78-.14-9.46,1.59-13.2,4.82l-.93.88c-.11.12-.22.23-.29.32-.12.14-.27.33-.4.49l-.11.14c-.12.14-.24.29-.38.47-.16.18-.28.35-.34.43l-.11.15c-.15.21-.3.43-.49.73-.28.47-.65,1.09-.89,1.55-.18.37-.37.75-.52,1.11-.16.36-.33.85-.48,1.29l-.13.38c-.06.19-.13.43-.19.66l-.06.21c-.05.19-.11.44-.19.78-.03.15-.07.34-.12.61l-.08.58c-.02.1-.03.25-.06.52l-.07.69c-.1,1.97.18,3.86.49,5.6l.07.42.17.39c1.78,4.19,3.38,8.76,4.92,13.18,1.83,5.25,3.73,10.68,6.01,15.72l.12.28c.7,1.64,1.21,2.69,2.26,3.44.37.26.71.42.97.52l1.28.79,32.55-10.9.46-.19c2.13-1.05,3.87-2.18,5.31-3.48l.17-.16c.11-.12.26-.27.42-.44.1-.11.21-.21.31-.33.14-.14.25-.26.37-.42.12-.14.25-.3.41-.5.13-.15.25-.3.34-.42l.11-.15c.12-.16.25-.33.34-.47.22-.32.47-.75.68-1.1l.12-.21c.44-.81.9-1.8,1.26-2.71.12-.34.26-.77.37-1.12.05-.17.11-.41.17-.64l.03-.14c.06-.23.14-.53.19-.77l.09-.63c.06-.25.1-.49.13-.78.02-.15.04-.29.05-.42.03-.21.05-.4.05-.54.21-5.09-1.8-10.5-5.25-14.14ZM340.96,192.05v.1c-.05.16-.08.32-.11.48-.02.12-.04.25-.05.37-.03.1-.05.21-.08.3l-.11.47c-.08.26-.18.58-.22.71-.21.52-.54,1.24-.83,1.76-.13.22-.29.49-.42.68l-.33.44c-.09.11-.19.22-.26.32l-.17.21c-.1.1-.2.21-.29.31l-.34.35c-.87.77-1.93,1.45-3.3,2.14l-27.97,9.37c-2.07-4.62-3.85-9.74-5.58-14.7-1.54-4.4-3.12-8.95-4.93-13.25-.2-1.16-.35-2.35-.31-3.43l.05-.49c.02-.13.04-.28.06-.45l.07-.34c.03-.12.06-.26.09-.35l.08-.29c.03-.11.06-.23.06-.23l.11-.33c.09-.25.18-.53.28-.76.1-.24.22-.48.34-.71.16-.31.41-.72.58-1,.06-.1.15-.21.22-.32l.05-.07c.12-.14.25-.3.41-.5l.64-.74c.09-.07.17-.15.26-.22,2.33-2.01,5.23-3.08,8.07-3.01.09,0,.19,0,.28,0,.08,0,.15.02.24.03.16.01.31.02.48.02l1.14.24c.16.05.37.1.63.16.34.12.76.27,1.07.4.32.13.65.29.96.45.21.11.45.27.67.4l.68.46c.1.07.23.17.38.29l.18.15c.1.1.23.22.34.32l.35.33c1.77,1.97,2.76,4.51,3.56,6.97l.36,1.1.92.7c1.83,1.4,3.65.81,7.25-.36.69-.22,1.31-.44,1.61-.5.64-.11,1.74-.18,2.6-.17.11,0,.22,0,.33,0l1.06.18c.15.04.34.07.55.11l.1.03c.12.03.26.07.29.08.35.12.83.28,1.18.43.29.13.6.26.91.43.27.14.63.36.92.54.14.09.33.23.43.31.11.09.23.19.32.26.08.06.2.16.28.23l.7.61c2.04,2.15,3.29,5.49,3.2,8.56-.02.13-.03.27-.05.43Z"/>
    </g>
  </g>
</svg>