<svg width="393" height="852" viewBox="0 0 393 852" fill="none" xmlns="http://www.w3.org/2000/svg">
<g clip-path="url(#clip0_70001_6)">
<rect width="393" height="852" fill="#0831B4"/>
<path d="M16.0024 320.163H24.1639C24.2973 321.03 24.7774 321.789 25.6042 322.439C26.431 323.089 27.5246 323.6 28.8848 323.972C30.2451 324.313 31.8054 324.483 33.5657 324.483C35.2461 324.483 36.593 324.359 37.6065 324.111C38.6467 323.864 39.3935 323.508 39.8469 323.043C40.3004 322.547 40.5271 321.928 40.5271 321.185C40.5271 320.472 40.1937 319.93 39.5269 319.559C38.8868 319.156 37.7799 318.846 36.2062 318.63C34.6593 318.413 32.5255 318.227 29.805 318.072C27.7246 317.948 25.8709 317.7 24.2439 317.329C22.6436 316.957 21.2834 316.446 20.1632 315.796C19.0429 315.114 18.1894 314.278 17.6027 313.287C17.0159 312.265 16.7225 311.057 16.7225 309.663C16.7225 307.588 17.2826 305.838 18.4028 304.413C19.523 302.989 21.2034 301.905 23.4438 301.161C25.7109 300.387 28.5114 300 31.8454 300C36.7797 300 40.5537 300.976 43.1676 302.927C45.8081 304.878 47.115 307.635 47.0883 311.196H39.2868C39.1801 309.772 38.4333 308.719 37.0464 308.037C35.6861 307.356 33.8458 307.015 31.5253 307.015C29.2849 307.015 27.5512 307.263 26.3243 307.758C25.0974 308.223 24.484 309.044 24.484 310.221C24.484 310.716 24.644 311.15 24.9641 311.521C25.2841 311.862 25.8309 312.156 26.6044 312.404C27.4045 312.621 28.4981 312.822 29.885 313.008C31.272 313.163 33.019 313.318 35.126 313.473C37.3131 313.597 39.2068 313.844 40.8071 314.216C42.4341 314.588 43.781 315.099 44.8479 315.749C45.9148 316.4 46.7016 317.236 47.2084 318.258C47.7418 319.28 48.0085 320.503 48.0085 321.928C48.0085 324.003 47.4884 325.753 46.4482 327.178C45.408 328.602 43.7677 329.686 41.5273 330.43C39.2868 331.142 36.3796 331.498 32.8056 331.498C30.5652 331.498 28.5514 331.281 26.7644 330.848C24.9774 330.445 23.4038 329.888 22.0435 329.175C20.6833 328.432 19.5497 327.58 18.6429 326.62C17.736 325.629 17.0559 324.592 16.6025 323.508C16.1757 322.424 15.9757 321.309 16.0024 320.163ZM50.529 307.758H70.0127V313.612H50.529V307.758ZM56.5702 301.115H63.9716V330.708H56.5702V301.115ZM84.9484 331.266C82.5213 331.266 80.3476 330.786 78.4272 329.826C76.5068 328.835 74.9865 327.441 73.8663 325.645C72.7461 323.848 72.186 321.711 72.186 319.233C72.186 316.694 72.7461 314.526 73.8663 312.729C74.9865 310.933 76.5202 309.555 78.4672 308.595C80.4142 307.635 82.628 307.154 85.1085 307.154C87.8557 307.154 90.1628 307.681 92.0298 308.734C93.8968 309.756 95.2971 311.181 96.2306 313.008C97.1908 314.835 97.6709 316.911 97.6709 319.233C97.6709 320.813 97.3908 322.331 96.8307 323.786C96.2973 325.211 95.4971 326.496 94.4303 327.642C93.3634 328.757 92.0298 329.64 90.4295 330.29C88.8559 330.941 87.0288 331.266 84.9484 331.266ZM87.589 325.412C89.4026 325.412 91.0163 325.196 92.4299 324.762C93.8435 324.297 94.9637 323.616 95.7905 322.718C96.6174 321.789 97.0308 320.627 97.0308 319.233C97.0308 317.778 96.6174 316.601 95.7905 315.703C94.9637 314.804 93.8435 314.139 92.4299 313.705C91.0163 313.271 89.4026 313.055 87.589 313.055C85.1351 313.055 83.2281 313.597 81.8679 314.681C80.5076 315.765 79.8275 317.282 79.8275 319.233C79.8275 320.534 80.1342 321.649 80.7476 322.578C81.3878 323.477 82.2813 324.173 83.4282 324.669C84.6017 325.165 85.9886 325.412 87.589 325.412ZM97.0308 307.758H104.432V330.708H97.4708C97.4708 330.708 97.4308 330.383 97.3508 329.733C97.2708 329.051 97.1908 328.153 97.1108 327.038C97.0574 325.892 97.0308 324.654 97.0308 323.322V307.758ZM108.576 307.758H115.978V330.708H108.576V307.758ZM124.939 314.541C123.339 314.541 121.899 314.804 120.618 315.331C119.365 315.858 118.311 316.492 117.458 317.236C116.631 317.948 116.018 318.66 115.618 319.373L115.577 316.957C115.631 316.461 115.791 315.811 116.058 315.006C116.324 314.201 116.698 313.349 117.178 312.451C117.658 311.552 118.258 310.701 118.978 309.895C119.725 309.09 120.592 308.44 121.579 307.944C122.566 307.418 123.686 307.154 124.939 307.154V314.541ZM158.563 315.563V300.79H166.244V316.957C166.244 319.249 165.911 321.231 165.244 322.904C164.577 324.576 163.644 325.97 162.443 327.085C161.243 328.169 159.843 329.036 158.243 329.686C156.669 330.337 154.962 330.786 153.122 331.034C151.308 331.312 149.441 331.452 147.52 331.452C145.493 331.452 143.546 331.312 141.679 331.034C139.812 330.786 138.092 330.337 136.518 329.686C134.945 329.036 133.571 328.169 132.398 327.085C131.251 325.97 130.344 324.576 129.677 322.904C129.037 321.231 128.717 319.249 128.717 316.957V300.79H136.358V315.563C136.358 317.979 136.812 319.822 137.719 321.092C138.652 322.362 139.946 323.229 141.599 323.693C143.28 324.158 145.253 324.39 147.52 324.39C149.708 324.39 151.628 324.158 153.282 323.693C154.935 323.229 156.229 322.362 157.162 321.092C158.096 319.822 158.563 317.979 158.563 315.563ZM190.728 331.312C188.647 331.312 186.807 330.987 185.207 330.337C183.633 329.686 182.313 328.804 181.245 327.689C180.179 326.543 179.365 325.242 178.805 323.786C178.272 322.331 178.005 320.813 178.005 319.233C178.005 317.499 178.272 315.904 178.805 314.448C179.365 312.962 180.179 311.676 181.245 310.592C182.313 309.508 183.633 308.672 185.207 308.084C186.78 307.495 188.621 307.201 190.728 307.201C193.155 307.201 195.329 307.696 197.249 308.688C199.196 309.648 200.716 311.041 201.81 312.869C202.93 314.665 203.49 316.787 203.49 319.233C203.49 321.804 202.93 323.988 201.81 325.784C200.69 327.58 199.169 328.959 197.249 329.919C195.329 330.848 193.155 331.312 190.728 331.312ZM188.087 325.412C189.687 325.412 191.074 325.165 192.248 324.669C193.421 324.173 194.315 323.477 194.928 322.578C195.542 321.649 195.849 320.534 195.849 319.233C195.849 317.313 195.168 315.811 193.808 314.727C192.475 313.612 190.568 313.055 188.087 313.055C186.353 313.055 184.766 313.271 183.326 313.705C181.913 314.139 180.779 314.82 179.925 315.749C179.098 316.647 178.685 317.809 178.685 319.233C178.685 320.627 179.085 321.789 179.885 322.718C180.712 323.616 181.833 324.297 183.246 324.762C184.686 325.196 186.3 325.412 188.087 325.412ZM171.284 307.758H178.285L178.685 315.238V340H171.284V307.758ZM206.312 320.163H214.474C214.607 321.03 215.087 321.789 215.914 322.439C216.741 323.089 217.835 323.6 219.195 323.972C220.555 324.313 222.115 324.483 223.876 324.483C225.556 324.483 226.903 324.359 227.916 324.111C228.957 323.864 229.703 323.508 230.157 323.043C230.61 322.547 230.837 321.928 230.837 321.185C230.837 320.472 230.504 319.93 229.837 319.559C229.197 319.156 228.09 318.846 226.516 318.63C224.969 318.413 222.835 318.227 220.115 318.072C218.035 317.948 216.181 317.7 214.554 317.329C212.954 316.957 211.593 316.446 210.473 315.796C209.353 315.114 208.499 314.278 207.913 313.287C207.326 312.265 207.032 311.057 207.032 309.663C207.032 307.588 207.593 305.838 208.713 304.413C209.833 302.989 211.513 301.905 213.754 301.161C216.021 300.387 218.821 300 222.155 300C227.09 300 230.864 300.976 233.477 302.927C236.118 304.878 237.425 307.635 237.398 311.196H229.597C229.49 309.772 228.743 308.719 227.356 308.037C225.996 307.356 224.156 307.015 221.835 307.015C219.595 307.015 217.861 307.263 216.634 307.758C215.407 308.223 214.794 309.044 214.794 310.221C214.794 310.716 214.954 311.15 215.274 311.521C215.594 311.862 216.141 312.156 216.914 312.404C217.714 312.621 218.808 312.822 220.195 313.008C221.582 313.163 223.329 313.318 225.436 313.473C227.623 313.597 229.517 313.844 231.117 314.216C232.744 314.588 234.091 315.099 235.158 315.749C236.225 316.4 237.012 317.236 237.518 318.258C238.052 319.28 238.318 320.503 238.318 321.928C238.318 324.003 237.798 325.753 236.758 327.178C235.718 328.602 234.078 329.686 231.837 330.43C229.597 331.142 226.69 331.498 223.116 331.498C220.875 331.498 218.861 331.281 217.074 330.848C215.287 330.445 213.714 329.888 212.353 329.175C210.993 328.432 209.86 327.58 208.953 326.62C208.046 325.629 207.366 324.592 206.912 323.508C206.486 322.424 206.286 321.309 206.312 320.163ZM261.483 331.312C259.402 331.312 257.562 330.987 255.962 330.337C254.388 329.686 253.068 328.804 252.001 327.689C250.934 326.543 250.121 325.242 249.561 323.786C249.027 322.331 248.76 320.813 248.76 319.233C248.76 317.499 249.027 315.904 249.561 314.448C250.121 312.962 250.934 311.676 252.001 310.592C253.068 309.508 254.388 308.672 255.962 308.084C257.535 307.495 259.376 307.201 261.483 307.201C263.91 307.201 266.084 307.696 268.004 308.688C269.951 309.648 271.471 311.041 272.565 312.869C273.685 314.665 274.245 316.787 274.245 319.233C274.245 321.804 273.685 323.988 272.565 325.784C271.445 327.58 269.924 328.959 268.004 329.919C266.084 330.848 263.91 331.312 261.483 331.312ZM258.842 325.412C260.443 325.412 261.83 325.165 263.003 324.669C264.177 324.173 265.07 323.477 265.684 322.578C266.297 321.649 266.604 320.534 266.604 319.233C266.604 317.313 265.924 315.811 264.563 314.727C263.23 313.612 261.323 313.055 258.842 313.055C257.109 313.055 255.522 313.271 254.081 313.705C252.668 314.139 251.534 314.82 250.681 315.749C249.854 316.647 249.441 317.809 249.441 319.233C249.441 320.627 249.841 321.789 250.641 322.718C251.468 323.616 252.588 324.297 254.001 324.762C255.442 325.196 257.055 325.412 258.842 325.412ZM242.039 307.758H249.04L249.441 315.238V340H242.039V307.758ZM289.87 331.266C287.443 331.266 285.269 330.786 283.349 329.826C281.428 328.835 279.908 327.441 278.788 325.645C277.668 323.848 277.108 321.711 277.108 319.233C277.108 316.694 277.668 314.526 278.788 312.729C279.908 310.933 281.442 309.555 283.389 308.595C285.336 307.635 287.55 307.154 290.03 307.154C292.777 307.154 295.084 307.681 296.951 308.734C298.818 309.756 300.219 311.181 301.152 313.008C302.112 314.835 302.592 316.911 302.592 319.233C302.592 320.813 302.312 322.331 301.752 323.786C301.219 325.211 300.419 326.496 299.352 327.642C298.285 328.757 296.951 329.64 295.351 330.29C293.777 330.941 291.95 331.266 289.87 331.266ZM292.51 325.412C294.324 325.412 295.938 325.196 297.351 324.762C298.765 324.297 299.885 323.616 300.712 322.718C301.539 321.789 301.952 320.627 301.952 319.233C301.952 317.778 301.539 316.601 300.712 315.703C299.885 314.804 298.765 314.139 297.351 313.705C295.938 313.271 294.324 313.055 292.51 313.055C290.057 313.055 288.15 313.597 286.789 314.681C285.429 315.765 284.749 317.282 284.749 319.233C284.749 320.534 285.056 321.649 285.669 322.578C286.309 323.477 287.203 324.173 288.35 324.669C289.523 325.165 290.91 325.412 292.51 325.412ZM301.952 307.758H309.354V330.708H302.392C302.392 330.708 302.352 330.383 302.272 329.733C302.192 329.051 302.112 328.153 302.032 327.038C301.979 325.892 301.952 324.654 301.952 323.322V307.758ZM343.584 321.185C343.504 323.322 342.917 325.149 341.823 326.667C340.756 328.184 339.143 329.346 336.982 330.151C334.849 330.925 332.155 331.312 328.901 331.312C325.62 331.312 322.766 330.894 320.339 330.058C317.939 329.222 316.085 327.921 314.778 326.156C313.471 324.359 312.818 322.067 312.818 319.28C312.818 316.492 313.471 314.216 314.778 312.451C316.085 310.654 317.939 309.322 320.339 308.455C322.766 307.588 325.62 307.154 328.901 307.154C332.155 307.154 334.835 307.557 336.942 308.362C339.076 309.168 340.676 310.329 341.743 311.847C342.837 313.333 343.437 315.13 343.544 317.236H336.742C336.316 315.842 335.422 314.774 334.062 314.03C332.702 313.256 330.981 312.869 328.901 312.869C327.247 312.869 325.767 313.086 324.46 313.519C323.18 313.953 322.166 314.65 321.419 315.61C320.699 316.539 320.339 317.762 320.339 319.28C320.339 320.798 320.699 322.021 321.419 322.95C322.14 323.879 323.14 324.561 324.42 324.994C325.727 325.428 327.221 325.645 328.901 325.645C331.035 325.645 332.768 325.257 334.102 324.483C335.462 323.709 336.356 322.609 336.782 321.185H343.584ZM369.664 322.764H376.905C376.692 324.468 376.025 325.97 374.905 327.271C373.811 328.54 372.251 329.532 370.224 330.244C368.197 330.956 365.663 331.312 362.622 331.312C359.342 331.312 356.488 330.894 354.061 330.058C351.634 329.222 349.753 327.921 348.42 326.156C347.086 324.359 346.419 322.067 346.419 319.28C346.419 316.523 347.059 314.247 348.34 312.451C349.646 310.654 351.5 309.322 353.901 308.455C356.328 307.588 359.208 307.154 362.542 307.154C365.876 307.154 368.623 307.604 370.784 308.502C372.944 309.4 374.545 310.809 375.585 312.729C376.625 314.619 377.092 317.112 376.985 320.209H353.901C354.034 321.2 354.407 322.114 355.021 322.95C355.661 323.755 356.581 324.406 357.781 324.901C358.982 325.397 360.515 325.645 362.382 325.645C364.356 325.645 365.983 325.381 367.263 324.855C368.57 324.328 369.37 323.631 369.664 322.764ZM362.222 312.822C359.848 312.822 357.995 313.256 356.661 314.123C355.328 314.959 354.501 315.904 354.181 316.957H369.744C369.584 315.78 368.89 314.804 367.663 314.03C366.463 313.225 364.649 312.822 362.222 312.822Z" fill="white"/>
<path d="M98.892 366.232V361.192H113.22C114.204 361.192 115.008 360.964 115.632 360.508C116.256 360.052 116.568 359.332 116.568 358.348C116.568 357.316 116.256 356.584 115.632 356.152C115.008 355.696 114.204 355.468 113.22 355.468H99.468V373H92.592V349.816H112.284C113.844 349.816 115.296 349.96 116.64 350.248C118.008 350.536 119.196 351.004 120.204 351.652C121.212 352.3 122.004 353.176 122.58 354.28C123.156 355.36 123.444 356.716 123.444 358.348C123.444 359.956 123.156 361.276 122.58 362.308C122.004 363.34 121.212 364.144 120.204 364.72C119.196 365.296 118.008 365.692 116.64 365.908C115.296 366.124 113.844 366.232 112.284 366.232H98.892ZM127.24 355.216H133.9V373H127.24V355.216ZM141.964 360.472C140.524 360.472 139.228 360.676 138.076 361.084C136.948 361.492 136 361.984 135.232 362.56C134.488 363.112 133.936 363.664 133.576 364.216L133.54 362.344C133.588 361.96 133.732 361.456 133.972 360.832C134.212 360.208 134.548 359.548 134.98 358.852C135.412 358.156 135.952 357.496 136.6 356.872C137.272 356.248 138.052 355.744 138.94 355.36C139.828 354.952 140.836 354.748 141.964 354.748V360.472ZM164.911 366.844H171.427C171.235 368.164 170.635 369.328 169.627 370.336C168.643 371.32 167.239 372.088 165.415 372.64C163.591 373.192 161.311 373.468 158.575 373.468C155.623 373.468 153.055 373.144 150.871 372.496C148.687 371.848 146.995 370.84 145.795 369.472C144.595 368.08 143.995 366.304 143.995 364.144C143.995 362.008 144.571 360.244 145.723 358.852C146.899 357.46 148.567 356.428 150.727 355.756C152.911 355.084 155.503 354.748 158.503 354.748C161.503 354.748 163.975 355.096 165.919 355.792C167.863 356.488 169.303 357.58 170.239 359.068C171.175 360.532 171.595 362.464 171.499 364.864H150.727C150.847 365.632 151.183 366.34 151.735 366.988C152.311 367.612 153.139 368.116 154.219 368.5C155.299 368.884 156.679 369.076 158.359 369.076C160.135 369.076 161.599 368.872 162.751 368.464C163.927 368.056 164.647 367.516 164.911 366.844ZM158.215 359.14C156.079 359.14 154.411 359.476 153.211 360.148C152.011 360.796 151.267 361.528 150.979 362.344H164.983C164.839 361.432 164.215 360.676 163.111 360.076C162.031 359.452 160.399 359.14 158.215 359.14ZM174.233 366.844H180.389C180.677 367.564 181.265 368.116 182.153 368.5C183.041 368.884 184.265 369.076 185.825 369.076C186.977 369.076 187.841 369.004 188.417 368.86C188.993 368.692 189.377 368.464 189.569 368.176C189.785 367.888 189.893 367.576 189.893 367.24C189.893 366.784 189.701 366.448 189.317 366.232C188.933 366.016 188.309 365.86 187.445 365.764C186.605 365.668 185.477 365.584 184.061 365.512C182.669 365.416 181.397 365.272 180.245 365.08C179.093 364.888 178.097 364.612 177.257 364.252C176.417 363.868 175.757 363.364 175.277 362.74C174.821 362.116 174.593 361.348 174.593 360.436C174.593 359.428 174.881 358.564 175.457 357.844C176.057 357.124 176.861 356.536 177.869 356.08C178.877 355.624 180.053 355.288 181.397 355.072C182.741 354.856 184.169 354.748 185.681 354.748C188.081 354.748 190.049 355.036 191.585 355.612C193.145 356.164 194.297 356.932 195.041 357.916C195.785 358.9 196.157 360.016 196.157 361.264H190.217C189.977 360.496 189.533 359.956 188.885 359.644C188.237 359.332 187.169 359.176 185.681 359.176C184.241 359.176 183.185 359.332 182.513 359.644C181.841 359.932 181.505 360.376 181.505 360.976C181.505 361.408 181.685 361.744 182.045 361.984C182.429 362.2 183.065 362.368 183.953 362.488C184.841 362.608 186.065 362.716 187.625 362.812C188.777 362.908 189.893 363.04 190.973 363.208C192.077 363.376 193.061 363.628 193.925 363.964C194.813 364.3 195.509 364.792 196.013 365.44C196.517 366.064 196.769 366.892 196.769 367.924C196.769 369.172 196.325 370.216 195.437 371.056C194.549 371.872 193.289 372.484 191.657 372.892C190.025 373.276 188.093 373.468 185.861 373.468C183.893 373.468 182.213 373.312 180.821 373C179.453 372.688 178.325 372.28 177.437 371.776C176.549 371.248 175.865 370.684 175.385 370.084C174.905 369.484 174.581 368.896 174.413 368.32C174.245 367.744 174.185 367.252 174.233 366.844ZM220.317 366.844H226.833C226.641 368.164 226.041 369.328 225.033 370.336C224.049 371.32 222.645 372.088 220.821 372.64C218.997 373.192 216.717 373.468 213.981 373.468C211.029 373.468 208.461 373.144 206.277 372.496C204.093 371.848 202.401 370.84 201.201 369.472C200.001 368.08 199.401 366.304 199.401 364.144C199.401 362.008 199.977 360.244 201.129 358.852C202.305 357.46 203.973 356.428 206.133 355.756C208.317 355.084 210.909 354.748 213.909 354.748C216.909 354.748 219.381 355.096 221.325 355.792C223.269 356.488 224.709 357.58 225.645 359.068C226.581 360.532 227.001 362.464 226.905 364.864H206.133C206.253 365.632 206.589 366.34 207.141 366.988C207.717 367.612 208.545 368.116 209.625 368.5C210.705 368.884 212.085 369.076 213.765 369.076C215.541 369.076 217.005 368.872 218.157 368.464C219.333 368.056 220.053 367.516 220.317 366.844ZM213.621 359.14C211.485 359.14 209.817 359.476 208.617 360.148C207.417 360.796 206.673 361.528 206.385 362.344H220.389C220.245 361.432 219.621 360.676 218.517 360.076C217.437 359.452 215.805 359.14 213.621 359.14ZM230.107 355.216H236.767V373H230.107V355.216ZM247.387 354.748C248.659 354.748 249.859 354.904 250.987 355.216C252.115 355.504 253.111 355.984 253.975 356.656C254.839 357.304 255.523 358.168 256.027 359.248C256.531 360.328 256.783 361.66 256.783 363.244V373H250.123V364.216C250.123 362.56 249.703 361.372 248.863 360.652C248.047 359.908 246.607 359.536 244.543 359.536C243.271 359.536 242.083 359.728 240.979 360.112C239.875 360.496 238.927 360.976 238.135 361.552C237.343 362.104 236.779 362.668 236.443 363.244L236.407 361.66C236.503 361.012 236.803 360.304 237.307 359.536C237.811 358.744 238.507 357.988 239.395 357.268C240.307 356.524 241.423 355.924 242.743 355.468C244.087 354.988 245.635 354.748 247.387 354.748ZM259.473 355.216H277.005V359.752H259.473V355.216ZM264.909 350.068H271.569V373H264.909V350.068ZM279.21 366.844H285.366C285.654 367.564 286.242 368.116 287.13 368.5C288.018 368.884 289.242 369.076 290.802 369.076C291.954 369.076 292.818 369.004 293.394 368.86C293.97 368.692 294.354 368.464 294.546 368.176C294.762 367.888 294.87 367.576 294.87 367.24C294.87 366.784 294.678 366.448 294.294 366.232C293.91 366.016 293.286 365.86 292.422 365.764C291.582 365.668 290.454 365.584 289.038 365.512C287.646 365.416 286.374 365.272 285.222 365.08C284.07 364.888 283.074 364.612 282.234 364.252C281.394 363.868 280.734 363.364 280.254 362.74C279.798 362.116 279.57 361.348 279.57 360.436C279.57 359.428 279.858 358.564 280.434 357.844C281.034 357.124 281.838 356.536 282.846 356.08C283.854 355.624 285.03 355.288 286.374 355.072C287.718 354.856 289.146 354.748 290.658 354.748C293.058 354.748 295.026 355.036 296.562 355.612C298.122 356.164 299.274 356.932 300.018 357.916C300.762 358.9 301.134 360.016 301.134 361.264H295.194C294.954 360.496 294.51 359.956 293.862 359.644C293.214 359.332 292.146 359.176 290.658 359.176C289.218 359.176 288.162 359.332 287.49 359.644C286.818 359.932 286.482 360.376 286.482 360.976C286.482 361.408 286.662 361.744 287.022 361.984C287.406 362.2 288.042 362.368 288.93 362.488C289.818 362.608 291.042 362.716 292.602 362.812C293.754 362.908 294.87 363.04 295.95 363.208C297.054 363.376 298.038 363.628 298.902 363.964C299.79 364.3 300.486 364.792 300.99 365.44C301.494 366.064 301.746 366.892 301.746 367.924C301.746 369.172 301.302 370.216 300.414 371.056C299.526 371.872 298.266 372.484 296.634 372.892C295.002 373.276 293.07 373.468 290.838 373.468C288.87 373.468 287.19 373.312 285.798 373C284.43 372.688 283.302 372.28 282.414 371.776C281.526 371.248 280.842 370.684 280.362 370.084C279.882 369.484 279.558 368.896 279.39 368.32C279.222 367.744 279.162 367.252 279.21 366.844Z" fill="white"/>
<mask id="mask0_70001_6" style="mask-type:alpha" maskUnits="userSpaceOnUse" x="16" y="28" width="150" height="150">
<rect x="16" y="28" width="150" height="150" fill="#D9D9D9"/>
</mask>
<g mask="url(#mask0_70001_6)">
<path d="M86.1564 93.7813C88.3439 93.7813 90.1929 93.026 91.7033 91.5156C93.2137 90.0052 93.9689 88.1562 93.9689 85.9688C93.9689 83.7812 93.2137 81.9323 91.7033 80.4219C90.1929 78.9115 88.3439 78.1562 86.1564 78.1562C83.9689 78.1562 82.1199 78.9115 80.6095 80.4219C79.0991 81.9323 78.3439 83.7812 78.3439 85.9688C78.3439 88.1562 79.0991 90.0052 80.6095 91.5156C82.1199 93.026 83.9689 93.7813 86.1564 93.7813ZM144.438 165.5C140.063 165.5 134.177 163.677 126.781 160.031C119.386 156.385 111.469 151.438 103.031 145.188C101.052 145.708 99.047 146.099 97.0158 146.359C94.9845 146.62 92.9272 146.75 90.8439 146.75C78.6564 146.75 68.3439 142.531 59.9064 134.094C51.4689 125.656 47.2502 115.344 47.2502 103.156C47.2502 101.073 47.4064 98.9896 47.7189 96.9063C48.0314 94.8229 48.4481 92.7917 48.9689 90.8125C42.8231 82.375 37.9012 74.4844 34.2033 67.1406C30.5054 59.7969 28.6564 53.9375 28.6564 49.5625C28.6564 46.75 29.4377 44.5365 31.0002 42.9219C32.5627 41.3073 34.6981 40.5 37.4064 40.5C40.1147 40.5 43.6304 41.4375 47.9533 43.3125C52.2762 45.1875 58.2397 48.3646 65.8439 52.8438C63.6564 53.9896 61.6252 55.1875 59.7502 56.4375C57.8752 57.6875 56.0522 59.0417 54.2814 60.5C52.3022 59.3542 50.3752 58.3646 48.5002 57.5312C46.6252 56.6979 44.646 55.8125 42.5627 54.875C44.4377 58.8333 46.4429 62.6875 48.5783 66.4375C50.7137 70.1875 52.9793 73.8854 55.3752 77.5312C59.3335 71.9063 64.3856 67.4792 70.5314 64.25C76.6772 61.0208 83.4481 59.4062 90.8439 59.4062C103.031 59.4062 113.37 63.651 121.86 72.1406C130.349 80.6302 134.594 90.9688 134.594 103.156C134.594 110.552 132.953 117.323 129.672 123.469C126.391 129.615 121.938 134.667 116.313 138.625C119.958 141.021 123.682 143.313 127.485 145.5C131.287 147.688 135.167 149.667 139.125 151.438C138.292 149.458 137.432 147.531 136.547 145.656C135.662 143.781 134.646 141.854 133.5 139.875C135.063 138.104 136.469 136.229 137.719 134.25C138.969 132.271 140.115 130.24 141.156 128.156C145.948 136.281 149.203 142.349 150.922 146.359C152.641 150.37 153.5 153.729 153.5 156.438C153.5 159.458 152.667 161.724 151 163.234C149.333 164.745 147.146 165.5 144.438 165.5ZM101.781 121.906C103.552 121.906 105.037 121.307 106.235 120.109C107.432 118.911 108.031 117.427 108.031 115.656C108.031 113.885 107.432 112.401 106.235 111.203C105.037 110.005 103.552 109.406 101.781 109.406C100.011 109.406 98.5262 110.005 97.3283 111.203C96.1304 112.401 95.5314 113.885 95.5314 115.656C95.5314 117.427 96.1304 118.911 97.3283 120.109C98.5262 121.307 100.011 121.906 101.781 121.906ZM109.594 100.031C110.948 100.031 112.068 99.5885 112.953 98.7031C113.839 97.8177 114.281 96.6979 114.281 95.3438C114.281 93.9896 113.839 92.8698 112.953 91.9844C112.068 91.099 110.948 90.6563 109.594 90.6563C108.24 90.6563 107.12 91.099 106.235 91.9844C105.349 92.8698 104.906 93.9896 104.906 95.3438C104.906 96.6979 105.349 97.8177 106.235 98.7031C107.12 99.5885 108.24 100.031 109.594 100.031ZM89.1252 134.094C83.8127 129.51 78.7085 124.771 73.8127 119.875C68.9168 114.979 64.2293 109.875 59.7502 104.562C59.9585 108.521 60.8439 112.245 62.4064 115.734C63.9689 119.224 66.1043 122.323 68.8127 125.031C71.521 127.74 74.5939 129.875 78.0314 131.438C81.4689 133 85.1668 133.885 89.1252 134.094ZM105.219 130.812C110.219 128.208 114.281 124.432 117.406 119.484C120.531 114.536 122.094 109.042 122.094 103C122.094 94.3542 119.047 87.0104 112.953 80.9688C106.86 74.9271 99.4897 71.9062 90.8439 71.9062C84.8022 71.9062 79.3335 73.4688 74.4377 76.5938C69.5418 79.7188 65.7918 83.7812 63.1877 88.7812C69.1252 96.6979 75.6356 104.198 82.7189 111.281C89.8022 118.365 97.3022 124.875 105.219 130.812Z" fill="white"/>
</g>
<mask id="mask1_70001_6" style="mask-type:alpha" maskUnits="userSpaceOnUse" x="209" y="103" width="198" height="198">
<rect x="209" y="162.483" width="150" height="150" transform="rotate(-23.363 209 162.483)" fill="#D9D9D9"/>
</mask>
<g mask="url(#mask1_70001_6)">
<path d="M268.611 180.305L275.692 152.567C276.178 150.541 277.056 148.829 278.324 147.43C279.592 146.031 281.086 144.96 282.808 144.217C284.529 143.473 286.333 143.119 288.221 143.155C290.109 143.191 291.957 143.725 293.765 144.76L318.815 158.619L346.731 156.261C349.548 155.952 352.118 156.516 354.44 157.952C356.763 159.389 358.461 161.35 359.535 163.836C360.031 164.984 360.359 166.204 360.52 167.496C360.681 168.788 360.606 170.125 360.296 171.507L354.183 200.7L364.919 223.976C366.46 227.281 366.579 230.577 365.276 233.864C363.972 237.15 361.79 239.454 358.73 240.776C358.539 240.859 357.425 241.17 355.388 241.709L326.615 245.628L304.037 263.891C303.642 264.289 303.167 264.636 302.614 264.932C302.061 265.227 301.546 265.478 301.067 265.685C298.007 267.007 294.834 267.016 291.548 265.712C288.261 264.409 285.943 262.063 284.593 258.674L274.943 234.759L249.704 219.28C248.485 218.558 247.46 217.696 246.629 216.693C245.799 215.69 245.136 214.615 244.64 213.468C243.608 211.077 243.34 208.554 243.839 205.899C244.337 203.244 245.644 200.95 247.758 199.015L268.611 180.305ZM279.915 187.167L256.053 208.367L284.931 226.36L296.192 254.004L321.472 233.723L353.63 229.363L341.159 202.071L347.978 168.999L316.062 171.552L287.765 155.692L279.915 187.167Z" fill="white"/>
</g>
<mask id="mask2_70001_6" style="mask-type:alpha" maskUnits="userSpaceOnUse" x="16" y="440" width="150" height="150">
<rect x="16" y="440" width="150" height="150" fill="#D9D9D9"/>
</mask>
<g mask="url(#mask2_70001_6)">
<path d="M91.625 577.5C82.875 577.5 74.6719 575.833 67.0156 572.5C59.3594 569.167 52.6927 564.661 47.0156 558.984C41.3385 553.307 36.8333 546.641 33.5 538.984C30.1667 531.328 28.5 523.125 28.5 514.375C28.5 499.167 33.3438 485.755 43.0312 474.141C52.7188 462.526 65.0625 455.312 80.0625 452.5C78.1875 462.812 78.7604 472.891 81.7813 482.734C84.8021 492.578 90.0104 501.198 97.4062 508.594C104.802 515.99 113.422 521.198 123.266 524.219C133.109 527.24 143.188 527.812 153.5 525.938C150.792 540.938 143.604 553.281 131.938 562.969C120.271 572.656 106.833 577.5 91.625 577.5ZM91.625 565C100.792 565 109.281 562.708 117.094 558.125C124.906 553.542 131.052 547.24 135.531 539.219C126.573 538.385 118.083 536.12 110.062 532.422C102.042 528.724 94.8542 523.698 88.5 517.344C82.1458 510.99 77.0938 503.802 73.3438 495.781C69.5938 487.76 67.3542 479.271 66.625 470.312C58.6042 474.792 52.3281 480.964 47.7969 488.828C43.2656 496.693 41 505.208 41 514.375C41 528.438 45.9219 540.391 55.7656 550.234C65.6094 560.078 77.5625 565 91.625 565Z" fill="white"/>
</g>
<mask id="mask3_70001_6" style="mask-type:alpha" maskUnits="userSpaceOnUse" x="182" y="603" width="195" height="195">
<rect x="237.677" y="603" width="150" height="150" transform="rotate(21.7883 237.677 603)" fill="#D9D9D9"/>
</mask>
<g mask="url(#mask3_70001_6)">
<path d="M258.602 752.712L253.202 741.804C246.952 729.097 241.91 718.275 238.078 709.34C234.246 700.404 231.459 692.643 229.717 686.057C227.974 679.471 227.204 673.751 227.406 668.895C227.608 664.04 228.598 659.388 230.377 654.938C234.011 645.846 240.093 639.471 248.623 635.813C257.152 632.156 265.963 632.144 275.055 635.778C280.085 637.789 284.448 640.767 288.143 644.712C291.839 648.657 294.557 653.222 296.299 658.405C301.135 655.851 306.251 654.418 311.647 654.107C317.044 653.797 322.257 654.647 327.287 656.657C336.379 660.292 342.754 666.374 346.412 674.903C350.07 683.433 350.081 692.244 346.447 701.336C344.668 705.785 342.179 709.838 338.978 713.495C335.778 717.151 331.277 720.765 325.474 724.335C319.672 727.905 312.303 731.606 303.368 735.438C294.432 739.27 283.32 743.635 270.033 748.531L258.602 752.712ZM264.865 737.043C277.476 732.436 287.969 728.357 296.344 724.806C304.718 721.254 311.527 717.974 316.768 714.965C322.009 711.956 325.993 709.005 328.72 706.113C331.447 703.22 333.487 700.081 334.84 696.696C337.16 690.892 337.159 685.283 334.836 679.867C332.514 674.452 328.451 670.584 322.647 668.264C318.101 666.447 313.381 666.047 308.488 667.063C303.594 668.08 299.629 670.281 296.593 673.667L285.566 669.259C285.701 664.713 284.346 660.386 281.501 656.276C278.657 652.166 274.962 649.203 270.416 647.385C264.612 645.066 259.003 645.067 253.587 647.389C248.171 649.712 244.304 653.775 241.984 659.578C240.631 662.964 239.945 666.644 239.926 670.619C239.908 674.594 240.76 679.478 242.483 685.271C244.206 691.064 246.877 698.133 250.496 706.479C254.115 714.825 258.905 725.013 264.865 737.043Z" fill="white"/>
</g>
</g>
<defs>
<clipPath id="clip0_70001_6">
<rect width="393" height="852" fill="white"/>
</clipPath>
</defs>
</svg>
