<?xml version="1.0" encoding="UTF-8"?>
<svg id="Layer_2" data-name="Layer 2" xmlns="http://www.w3.org/2000/svg" viewBox="0 0 392.82 851.71">
  <defs>
    <style>
      .cls-1 {
        fill: #e6eaf8;
      }

      .cls-2 {
        fill: #fff;
      }

      .cls-3 {
        fill: #b2bfe8;
      }

      .cls-4 {
        fill: none;
      }

      .cls-5 {
        fill: #c4effd;
      }

      .cls-6 {
        fill: #7cbfff;
      }

      .cls-7 {
        fill: #f2f9ff;
        stroke: #041b63;
        stroke-miterlimit: 10;
        stroke-width: 5px;
      }

      .cls-8 {
        fill: #5a75cd;
      }

      .cls-9 {
        fill: #1863ff;
      }

      .cls-10 {
        fill: #395ac3;
      }

      .cls-11 {
        fill: #e8efff;
      }

      .cls-12 {
        fill: #96baff;
      }

      .cls-13 {
        fill: #8da0dd;
      }

      .cls-14 {
        fill: #0831b4;
      }

      .cls-15 {
        fill: #e4f8fe;
      }

      .cls-16 {
        fill: #b7cfff;
      }

      .cls-17 {
        fill: #06227f;
      }
    </style>
  </defs>
  <g id="Welcome_Screen_Background" data-name="Welcome Screen Background">
    <g>
      <path class="cls-13" d="M381.99,110.85c-.81-.07-1.62-.12-2.43-.17-1-.07-2-.14-2.99-.2-.83-.05-1.65-.09-2.48-.13-.97-.05-1.94-.09-2.91-.13-.83-.03-1.67-.05-2.5-.07-.95-.02-1.9-.05-2.85-.06-.84-.01-1.67-.01-2.5-.02-.94,0-1.87,0-2.81,0-.83,0-1.66.02-2.49.04-.93.02-1.85.04-2.78.08-.83.03-1.65.06-2.48.1-.92.04-1.84.09-2.75.14-.82.05-1.64.1-2.45.15-.91.06-1.83.13-2.74.21-.15.01-.31.03-.46.04,14.73,4.88,27.63,10.52,38.22,16.83v-16.77c-.2-.02-.41-.04-.62-.06Z"/>
      <path class="cls-13" d="M266.66,138.36c-2.48,3.38-4.03,7.31-4.24,11.96-.25,8.13.36,16.58,1.02,25.53,1.26,17.24,2.53,34.87-2.65,50.88,26.78,2.1,51.34,5.53,72.05,10.12,23.45,5.21,40.08,11.42,49.78,18.58v-82.01c-24.43-16.4-66.46-28.81-115.94-35.06ZM348.34,193.01c-.03.29-.08.53-.13.78l-.09.63c-.05.23-.13.53-.19.77l-.03.14c-.05.23-.11.47-.17.64-.11.36-.25.78-.37,1.12-.36.91-.82,1.9-1.26,2.71l-.12.21c-.21.35-.46.78-.68,1.1-.1.14-.22.31-.34.47l-.11.15c-.09.13-.21.27-.34.42-.16.2-.29.36-.41.5-.13.15-.24.27-.37.42-.11.12-.21.23-.31.33-.16.17-.31.33-.42.44l-.17.16c-1.44,1.3-3.18,2.43-5.31,3.48l-.46.19-32.55,10.9-1.28-.79c-.26-.1-.6-.26-.97-.52-1.05-.75-1.55-1.8-2.26-3.44l-.12-.28c-2.28-5.04-4.18-10.47-6.01-15.72-1.54-4.42-3.14-9-4.92-13.18l-.17-.39-.07-.42c-.31-1.75-.58-3.64-.49-5.6l.07-.69c.03-.27.05-.41.06-.52l.08-.58c.05-.27.09-.46.12-.61.08-.34.14-.59.19-.78l.06-.21c.06-.23.13-.47.19-.66l.13-.38c.15-.44.32-.93.48-1.29.15-.36.34-.74.52-1.11.23-.47.6-1.08.89-1.55.19-.3.34-.52.49-.73l.11-.15c.06-.08.18-.25.34-.43.14-.18.26-.33.38-.47l.11-.14c.13-.16.28-.35.4-.49.07-.09.18-.2.29-.32l.93-.88c3.74-3.23,8.42-4.96,13.2-4.82l.29-.02.22.02c.06,0,.12.01.18.02h.1s.46.03.46.03c.31.03.5.06.63.08.15.02.35.06.54.1l.24.05c.19.03.39.07.54.11l.15.04c.22.05.46.11.64.16l.14.03c.26.06.49.12.62.16.51.17,1.18.42,1.68.62.52.21,1.06.47,1.56.73l.04.02c.33.18.75.43,1.11.66l.19.11c.2.13.42.28.63.43l.17.12c.18.12.41.3.61.45.16.12.31.24.45.36l.46.41c.12.11.24.22.36.34.16.15.31.3.43.41l.13.14c1.86,2.03,3.11,4.32,4.04,6.55.12-.04.23-.07.33-.11,1.26-.41,2-.65,2.6-.75,1.35-.24,3.01-.3,4.05-.29l.21-.03.46.04c.16.02.37.04.52.06.24.02.39.04.5.06.19.03.4.07.59.11l.23.05c.17.03.35.07.49.1.33.06.52.1.62.13l.23.06c.24.06.49.13.69.2.59.2,1.29.45,1.78.66.46.2.95.42,1.41.66.39.2.94.53,1.37.79.35.22.67.45.91.62.09.07.25.19.42.33l.12.1c.16.12.37.3.53.43.23.18.39.31.52.44.11.1.26.24.38.36.16.15.28.26.37.36,3.45,3.64,5.46,9.05,5.25,14.14,0,.14-.02.33-.05.54-.01.12-.03.27-.05.42Z"/>
      <path class="cls-10" d="M9.89,194.53c.62.11,1.25.23,1.88.34.86.16,1.73.31,2.59.47,1.45.27,2.9.54,4.36.82.8.15,1.6.31,2.41.46,1.63.32,3.25.63,4.87.95.62.12,1.23.24,1.85.36,2.18.43,4.35.87,6.51,1.3,43.25,8.67,87.96,17.63,128.2-2.53l.37-.17s0,0,0,0c.38-.15.77-.34,1.18-.55.01,0,.02-.01.03-.02,4.34-2.28,7.32-6.77,8-12.02.02-.19.04-.37.06-.56.09-.8.18-1.6.25-2.4.04-.38.07-.75.1-1.13.07-.88.14-1.77.19-2.66.02-.37.04-.73.06-1.1.04-.72.07-1.45.09-2.18.01-.3.02-.59.03-.89.03-.95.05-1.91.06-2.86,0-.32,0-.64,0-.96,0-.98.01-1.95,0-2.93,0-.2,0-.4,0-.6,0-.91-.02-1.82-.03-2.73,0-.22,0-.44-.01-.66-.02-1.03-.04-2.05-.07-3.08,0-.26-.01-.51-.02-.77-.03-1-.05-2-.08-2.99-.02-.65-.03-1.3-.05-1.94-.03-1.3-.07-2.6-.09-3.9-.01-.65-.03-1.3-.04-1.95-.07-4.51-.06-9.03.19-13.52-67.39,2.2-128.23,15.28-162.9,35.32v25.04Z"/>
      <path class="cls-10" d="M222.32,72.58c7.24-1.84,15.25-2.97,24.01-3.37,3.06-.1,6.1-.19,9.14-.27.71-.02,1.42-.03,2.13-.04,2.31-.05,4.62-.1,6.92-.14.93-.02,1.85-.02,2.78-.03,2.07-.03,4.14-.06,6.2-.07,1.03,0,2.05,0,3.08,0,1.94,0,3.89-.01,5.83-.01,1.1,0,2.19.01,3.28.02,1.86.01,3.72.02,5.57.04,1.14.01,2.27.03,3.4.05,1.8.03,3.59.06,5.38.09,1.17.02,2.34.06,3.51.09,1.74.04,3.48.09,5.22.14,1.2.04,2.4.08,3.6.12,1.69.06,3.39.12,5.08.19,1.23.05,2.45.11,3.68.16,1.65.07,3.3.15,4.95.23,1.25.06,2.49.13,3.74.2,1.62.09,3.23.18,4.84.28,1.27.08,2.53.16,3.8.24,1.58.1,3.17.21,4.75.32,1.28.09,2.56.18,3.83.28,1.56.12,3.13.24,4.69.37,1.29.1,2.57.21,3.85.32,1.55.13,3.09.27,4.64.41,1.29.12,2.58.24,3.87.36,1.54.15,3.07.3,4.61.45,1.29.13,2.57.26,3.86.4,1.53.16,3.06.33,4.59.5,1.29.14,2.57.29,3.86.44.54.06,1.08.12,1.62.18V9.79H9.89v114.35c39.95-20.97,107.68-33.9,180.43-34.21,8.02-8.16,18.72-13.97,32-17.35ZM81.87,55.04l-3.07,9.46,1.88,9.77c.51,2.68-.19,5.42-1.92,7.52-1.74,2.1-4.3,3.31-7.02,3.31h-9.94l-8.71,4.8c-1.37.75-2.88,1.13-4.4,1.13-1.13,0-2.27-.21-3.35-.64-2.54-1-4.47-3.06-5.32-5.66l-3.07-9.46-7.26-6.8c-1.99-1.87-3.03-4.5-2.86-7.22.17-2.72,1.53-5.2,3.74-6.8l8.05-5.85,4.22-9c1.16-2.47,3.34-4.27,5.98-4.95,2.64-.68,5.42-.15,7.63,1.45h0l8.04,5.85,9.87,1.23c2.71.34,5.1,1.85,6.56,4.15s1.82,5.11.97,7.7Z"/>
      <path class="cls-17" d="M9.89,124.14V9.79h372.71v64.73c-.54-.06-1.08-.12-1.62-.18-1.29-.15-2.57-.29-3.86-.44-1.53-.17-3.06-.34-4.59-.5-1.29-.14-2.57-.27-3.86-.4-1.54-.16-3.07-.31-4.61-.45-1.29-.12-2.58-.24-3.87-.36-1.54-.14-3.09-.28-4.64-.41-1.28-.11-2.57-.22-3.85-.32-1.56-.13-3.12-.25-4.69-.37-1.28-.1-2.55-.19-3.83-.28-1.58-.11-3.16-.22-4.75-.32-1.26-.08-2.53-.16-3.8-.24-1.61-.1-3.23-.19-4.84-.28-1.24-.07-2.49-.14-3.74-.2-1.65-.08-3.3-.16-4.95-.23-1.22-.06-2.45-.11-3.68-.16-1.69-.07-3.38-.13-5.08-.19-1.2-.04-2.4-.09-3.6-.12-1.74-.05-3.48-.1-5.22-.14-1.17-.03-2.34-.06-3.51-.09-1.79-.04-3.59-.07-5.38-.09-1.13-.02-2.26-.04-3.4-.05-1.85-.02-3.71-.03-5.57-.04-1.09,0-2.18-.02-3.28-.02-1.94,0-3.88,0-5.83.01-1.03,0-2.05,0-3.08,0-2.06.01-4.13.04-6.2.07-.93.01-1.85.02-2.78.03-2.3.04-4.61.09-6.92.14-.71.02-1.42.03-2.13.04-3.03.08-6.08.17-9.14.27-8.76.4-16.77,1.52-24.01,3.37-13.28,3.38-23.97,9.19-32,17.35.92,0,1.83-.02,2.75-.02,4.23,0,8.43.05,12.61.13,10.29-6.57,24.02-10.28,41.04-11.05,47.53-1.61,92.03.15,135.88,5.39v16.7c-21.37-1.71-41.93-.66-61.41,3.08,8.14,2.03,15.89,4.27,23.19,6.69.15-.01.31-.03.46-.04.91-.07,1.82-.15,2.74-.21.82-.06,1.63-.11,2.45-.15.92-.05,1.83-.1,2.75-.14.82-.04,1.65-.07,2.48-.1.92-.03,1.85-.06,2.78-.08.83-.02,1.66-.03,2.49-.04.93,0,1.87-.01,2.81,0,.83,0,1.67,0,2.5.02.95.01,1.9.03,2.85.06.83.02,1.66.04,2.5.07.97.03,1.94.08,2.91.13.83.04,1.65.08,2.48.13.99.06,1.99.13,2.99.2.81.06,1.61.11,2.43.17.2.02.41.04.62.06v16.77c2.71,1.61,5.27,3.27,7.67,4.96l2.11,1.49v46.18l-7.88-5.57c-.62-.44-1.26-.88-1.91-1.31v82.01c5.5,4.06,8.76,8.42,9.79,13.07V0H.11v129.75l2.3-1.4c2.37-1.44,4.87-2.84,7.49-4.22Z"/>
      <path class="cls-8" d="M253.67,176.56c-.64-8.81-1.31-17.91-1.03-26.62.22-4.84,1.42-9.09,3.33-12.83-20.11-2.14-41.29-3.28-62.9-3.28-3.5,0-6.99.04-10.46.1-.39,6.29-.27,12.8-.1,19.43.02.62.03,1.24.05,1.86.33,12.45.68,25.31-2.07,37.91l-.13.6-.27.55c-1.53,3.06-7.31,8.79-13.33,11.28-43.19,21.56-89.53,12.27-134.33,3.29-7.41-1.49-15.03-3.01-22.53-4.37v51.19c9.65-7.26,26.39-13.55,50.1-18.82,36.49-8.1,84.94-12.56,136.42-12.56,18.62,0,36.84.59,54.25,1.72,5.54-14.71,4.3-31.72,3.01-49.44Z"/>
      <path class="cls-8" d="M382.6,101.07v-16.7c-43.85-5.24-88.35-7-135.88-5.39-17.02.78-30.75,4.49-41.04,11.05,42.46.83,82.27,5.81,115.51,14.11,19.48-3.74,40.04-4.79,61.41-3.08Z"/>
      <path class="cls-17" d="M9.89,255.67v-51.19c7.5,1.36,15.11,2.88,22.53,4.37,44.81,8.98,91.14,18.27,134.33-3.29,6.02-2.49,11.8-8.21,13.33-11.28l.27-.55.13-.6c2.75-12.6,2.41-25.47,2.07-37.91-.02-.62-.03-1.24-.05-1.86-.17-6.64-.3-13.14.1-19.43-3.28.06-6.56.13-9.82.24-.25,4.49-.27,9.01-.19,13.52.01.65.02,1.3.04,1.95.03,1.3.06,2.6.09,3.9.02.65.03,1.3.05,1.94.03.99.05,1.99.08,2.99,0,.26.01.51.02.77.02,1.02.05,2.05.07,3.08,0,.22,0,.44.01.66.01.91.03,1.82.03,2.73,0,.2,0,.4,0,.6,0,.98,0,1.95,0,2.93,0,.32,0,.64,0,.96-.01.96-.03,1.91-.06,2.86,0,.3-.02.59-.03.89-.03.73-.06,1.45-.09,2.18-.02.37-.04.73-.06,1.1-.05.89-.12,1.77-.19,2.66-.03.38-.07.75-.1,1.13-.08.8-.16,1.6-.25,2.4-.02.19-.04.37-.06.56-.68,5.25-3.66,9.74-8,12.02-.01,0-.02.01-.03.02-.41.21-.8.4-1.18.55,0,0,0,0,0,0l-.37.17c-40.23,20.16-84.95,11.2-128.2,2.53-2.15-.43-4.33-.87-6.51-1.3-.61-.12-1.23-.24-1.85-.36-1.62-.32-3.24-.64-4.87-.95-.8-.16-1.6-.31-2.41-.46-1.45-.28-2.9-.55-4.36-.82-.87-.16-1.73-.32-2.59-.47-.63-.11-1.25-.23-1.88-.34v-25.04c-.77.45-1.55.89-2.3,1.34L.11,175.38v95.42c.33-5.43,3.6-10.48,9.79-15.13Z"/>
      <path class="cls-17" d="M263.43,175.85c-.65-8.95-1.27-17.4-1.02-25.53.21-4.65,1.77-8.58,4.24-11.96-3.53-.45-7.09-.86-10.69-1.24-1.91,3.75-3.11,7.99-3.33,12.83-.27,8.71.39,17.81,1.03,26.62,1.29,17.72,2.53,34.73-3.01,49.44,3.41.22,6.78.46,10.12.72,5.18-16.01,3.91-33.64,2.65-50.88Z"/>
      <path class="cls-5" d="M382.82,272.57l.03-.29c.02-.2.04-.39.04-.56,0-6.29-13.67-16.68-52.2-25.23-35.81-7.95-83.5-12.33-134.28-12.33s-98.47,4.38-134.28,12.33c-38.53,8.55-52.2,18.94-52.2,25.23,0,.17.01.36.04.58l.04.6v386.99c13.16-16.8,37.97-28.17,66.37-28.17,23.61,0,45.61,7.83,60.02,21.16,14.41-13.33,36.4-21.16,60.02-21.16s45.61,7.83,60.02,21.16c14.41-13.33,36.4-21.16,60.02-21.16,28.4,0,53.22,11.37,66.38,28.17v-387.34Z"/>
      <path class="cls-6" d="M10.01,659.89v-386.99l-.04-.6c-.03-.22-.04-.42-.04-.58,0-6.29,13.67-16.68,52.2-25.23,35.81-7.95,83.5-12.33,134.28-12.33s98.47,4.38,134.28,12.33c38.53,8.55,52.2,18.94,52.2,25.23,0,.17-.01.36-.04.56l-.03.29v387.34c5.67,7.24,9.18,15.48,9.87,24.27v-411.05c.05-.48.07-.95.07-1.4,0-1.09-.13-2.16-.36-3.21-1.02-4.65-4.29-9.01-9.79-13.07-9.7-7.16-26.33-13.37-49.78-18.58-20.71-4.6-45.27-8.02-72.05-10.12-3.34-.26-6.72-.5-10.12-.72-17.41-1.13-35.63-1.72-54.25-1.72-51.48,0-99.92,4.46-136.42,12.56-23.71,5.26-40.45,11.56-50.1,18.82-6.19,4.65-9.46,9.7-9.79,15.13-.02.3-.04.61-.04.91,0,.25.03.51.04.76.01.23.01.46.04.7v410.93c.7-8.77,4.21-16.99,9.87-24.21Z"/>
      <g>
        <path class="cls-6" d="M316.44,558.32c-22.97,0-44.02,11.29-56.31,30.2l-3.7,5.69-3.7-5.69c-12.29-18.91-33.35-30.2-56.31-30.2s-44.02,11.29-56.31,30.2l-3.7,5.69-3.7-5.69c-12.29-18.91-33.35-30.2-56.31-30.2-36.6,0-66.38,28.62-66.38,63.8v215.62h372.82v-215.62c0-35.18-29.78-63.8-66.38-63.8Z"/>
        <path class="cls-14" d="M392.68,617.63c-.69-12.28-4.2-23.8-9.87-33.91-13.16-23.49-37.97-39.37-66.38-39.37-23.61,0-45.61,10.94-60.02,29.56-14.4-18.62-36.4-29.56-60.02-29.56s-45.61,10.94-60.02,29.56c-14.4-18.62-36.4-29.56-60.02-29.56-28.4,0-53.21,15.87-66.37,39.35-5.66,10.09-9.16,21.58-9.87,33.83-.09,1.52-.14,3.05-.14,4.59v229.6h392.82v-229.6c0-1.51-.05-3-.14-4.49ZM382.82,622.12v215.62H10v-215.62c0-35.18,29.78-63.8,66.38-63.8,22.97,0,44.02,11.29,56.31,30.2l3.7,5.69,3.7-5.69c12.3-18.91,33.35-30.2,56.31-30.2s44.02,11.29,56.31,30.2l3.7,5.69,3.7-5.69c12.3-18.91,33.35-30.2,56.31-30.2,36.6,0,66.38,28.62,66.38,63.8Z"/>
      </g>
      <path class="cls-14" d="M193.07,123.85c78.79,0,149.91,14.28,189.33,37.64v-22.15c-35.98-24.01-109.77-39.44-189.33-39.44-75.22,0-144.93,13.59-183.08,35.58v22.55c40.47-21.2,109.35-34.18,183.08-34.18Z"/>
      <path class="cls-17" d="M7.59,170.83c.75-.45,1.53-.9,2.3-1.34,34.67-20.04,95.51-33.12,162.9-35.32,3.26-.11,6.53-.18,9.82-.24,3.48-.06,6.96-.1,10.46-.1,21.61,0,42.79,1.14,62.9,3.28,3.6.38,7.16.8,10.69,1.24,49.48,6.26,91.51,18.67,115.94,35.06.65.43,1.29.87,1.91,1.31l7.88,5.57v-46.18l-2.11-1.49c-2.4-1.7-4.97-3.35-7.67-4.96-10.59-6.3-23.49-11.94-38.22-16.83-7.3-2.42-15.05-4.65-23.19-6.69-33.25-8.31-73.05-13.29-115.51-14.11-4.18-.08-8.38-.13-12.61-.13-.92,0-1.83.01-2.75.02-72.75.32-140.47,13.25-180.43,34.21-2.61,1.37-5.12,2.78-7.49,4.22l-2.3,1.4-.1.06v45.63l.1-.06,7.49-4.55ZM9.99,135.47c38.15-21.99,107.85-35.58,183.08-35.58,79.56,0,153.35,15.43,189.33,39.44v22.15c-39.42-23.36-110.54-37.64-189.33-37.64-73.73,0-142.61,12.98-183.08,34.18v-22.55Z"/>
      <path class="cls-6" d="M73.44,50.34l-10.24-1.28c-.96-.12-1.88-.48-2.66-1.05l-8.35-6.07c-.39-.28-.79-.36-1.11-.36-.2,0-.36.03-.49.06-.32.08-.92.33-1.25,1.03l-4.38,9.34c-.41.88-1.04,1.64-1.82,2.21l-8.35,6.07c-.63.46-.76,1.09-.78,1.42-.02.33.03.97.6,1.51l7.53,7.06c.71.66,1.24,1.5,1.54,2.42l3.19,9.82c.24.74.8,1.06,1.11,1.18.31.12.93.27,1.62-.1l9.04-4.98c.85-.47,1.8-.71,2.77-.71h10.32c.78,0,1.25-.43,1.47-.69.21-.26.55-.81.4-1.57l-1.95-10.14c-.18-.95-.12-1.94.18-2.86l3.19-9.81c.24-.74-.02-1.33-.2-1.61-.18-.28-.6-.77-1.37-.87Z"/>
      <path class="cls-14" d="M74.34,43.18l-9.87-1.23-8.04-5.85h0c-2.21-1.6-4.99-2.13-7.63-1.45-2.64.68-4.82,2.49-5.98,4.95l-4.22,9-8.05,5.85c-2.21,1.6-3.57,4.08-3.74,6.8-.17,2.72.87,5.35,2.86,7.22l7.26,6.8,3.07,9.46c.84,2.59,2.78,4.66,5.32,5.66,1.08.43,2.22.64,3.35.64,1.52,0,3.03-.38,4.4-1.13l8.71-4.8h9.94c2.73,0,5.29-1.21,7.02-3.31,1.74-2.1,2.44-4.84,1.92-7.52l-1.88-9.77,3.07-9.46c.84-2.59.49-5.4-.97-7.7s-3.85-3.82-6.56-4.15ZM75.02,52.81l-3.19,9.81c-.3.92-.36,1.91-.18,2.86l1.95,10.14c.15.77-.19,1.31-.4,1.57-.21.26-.69.69-1.47.69h-10.32c-.97,0-1.93.25-2.77.71l-9.04,4.98c-.68.38-1.31.23-1.62.1-.31-.12-.87-.44-1.11-1.18l-3.19-9.82c-.3-.92-.83-1.76-1.54-2.42l-7.53-7.06c-.57-.53-.62-1.17-.6-1.51.02-.33.15-.96.78-1.42l8.35-6.07c.78-.57,1.41-1.33,1.82-2.21l4.38-9.34c.33-.71.92-.95,1.25-1.03.12-.03.29-.06.49-.06.32,0,.71.08,1.11.36l8.35,6.07c.78.57,1.7.93,2.66,1.05l10.24,1.28c.77.1,1.19.59,1.37.87.18.28.44.87.2,1.61Z"/>
      <path class="cls-6" d="M337.1,182.44c-.08-.07-.2-.16-.28-.23-.09-.07-.21-.17-.32-.26-.1-.08-.29-.22-.43-.31-.29-.18-.65-.4-.92-.54-.31-.16-.62-.3-.91-.43-.35-.15-.83-.31-1.18-.43-.04-.01-.17-.05-.29-.08l-.1-.03c-.22-.04-.41-.08-.55-.11l-1.06-.18c-.11,0-.22,0-.33,0-.85,0-1.95.06-2.6.17-.29.07-.91.28-1.61.5-3.61,1.17-5.42,1.76-7.25.36l-.92-.7-.36-1.1c-.8-2.46-1.79-5-3.56-6.97l-.35-.33c-.11-.1-.23-.22-.34-.32l-.18-.15c-.16-.12-.29-.22-.38-.29l-.68-.46c-.22-.14-.47-.29-.67-.4-.31-.16-.64-.32-.96-.45-.31-.13-.73-.29-1.07-.4-.27-.06-.47-.11-.63-.16l-1.14-.24c-.17,0-.32,0-.48-.02-.08,0-.16-.02-.24-.03-.09,0-.18,0-.28,0-2.85-.08-5.74.99-8.07,3.01-.08.08-.17.15-.26.22l-.64.74c-.16.2-.29.37-.41.5l-.05.07c-.08.11-.16.23-.22.32-.17.28-.42.69-.58,1-.12.23-.23.48-.34.71-.1.23-.19.51-.28.76l-.11.33s-.03.12-.06.23l-.08.29c-.03.1-.06.23-.09.35l-.07.34c-.02.16-.04.32-.06.45l-.05.49c-.04,1.08.12,2.27.31,3.43,1.81,4.3,3.4,8.85,4.93,13.25,1.73,4.95,3.51,10.07,5.58,14.7l27.97-9.37c1.37-.69,2.43-1.37,3.3-2.14l.34-.35c.09-.1.2-.21.29-.31l.17-.21c.07-.09.17-.21.26-.32l.33-.44c.13-.19.29-.46.42-.68.28-.52.62-1.25.83-1.76.04-.13.14-.45.22-.71l.11-.47c.02-.09.05-.2.08-.3.01-.12.03-.25.05-.37.03-.16.06-.32.09-.48v-.1c.03-.16.04-.3.06-.43.09-3.07-1.16-6.41-3.2-8.56l-.7-.61Z"/>
      <path class="cls-14" d="M343.19,177.92c-.09-.1-.21-.21-.37-.36-.11-.11-.27-.26-.38-.36-.13-.12-.29-.25-.52-.44-.16-.13-.37-.31-.53-.43l-.12-.1c-.17-.14-.32-.26-.42-.33-.24-.17-.57-.4-.91-.62-.43-.26-.98-.6-1.37-.79-.46-.24-.95-.47-1.41-.66-.49-.21-1.2-.46-1.78-.66-.2-.06-.45-.13-.69-.2l-.23-.06c-.1-.03-.28-.07-.62-.13-.14-.03-.31-.07-.49-.1l-.23-.05c-.18-.04-.39-.08-.59-.11-.11-.02-.26-.04-.5-.06-.15-.02-.36-.05-.52-.06l-.46-.04-.21.03c-1.05-.02-2.7.05-4.05.29-.59.11-1.34.34-2.6.75-.1.03-.21.07-.33.11-.93-2.23-2.18-4.52-4.04-6.55l-.13-.14c-.12-.11-.27-.26-.43-.41-.12-.12-.24-.23-.36-.34l-.46-.41c-.14-.12-.29-.24-.45-.36-.19-.15-.43-.32-.61-.45l-.17-.12c-.21-.15-.43-.3-.63-.43l-.19-.11c-.36-.22-.78-.48-1.11-.66l-.04-.02c-.5-.26-1.03-.51-1.56-.73-.5-.21-1.18-.46-1.68-.62-.13-.04-.36-.1-.62-.16l-.14-.03c-.18-.05-.42-.11-.64-.16l-.15-.04c-.15-.04-.35-.07-.54-.11l-.24-.05c-.19-.04-.39-.08-.54-.1-.13-.02-.32-.04-.63-.08l-.46-.04h-.1c-.06,0-.12,0-.18,0l-.22-.02-.29.02c-4.78-.14-9.46,1.59-13.2,4.82l-.93.88c-.11.12-.22.23-.29.32-.12.14-.27.33-.4.49l-.11.14c-.12.14-.24.29-.38.47-.16.18-.28.35-.34.43l-.11.15c-.15.21-.3.43-.49.73-.28.47-.65,1.09-.89,1.55-.18.37-.37.75-.52,1.11-.16.36-.33.85-.48,1.29l-.13.38c-.06.19-.13.43-.19.66l-.06.21c-.05.19-.11.44-.19.78-.03.15-.07.34-.12.61l-.08.58c-.02.1-.03.25-.06.52l-.07.69c-.1,1.97.18,3.86.49,5.6l.07.42.17.39c1.78,4.19,3.38,8.76,4.92,13.18,1.83,5.25,3.73,10.68,6.01,15.72l.12.28c.7,1.64,1.21,2.69,2.26,3.44.37.26.71.42.97.52l1.28.79,32.55-10.9.46-.19c2.13-1.05,3.87-2.18,5.31-3.48l.17-.16c.11-.12.26-.27.42-.44.1-.11.21-.21.31-.33.14-.14.25-.26.37-.42.12-.14.25-.3.41-.5.13-.15.25-.3.34-.42l.11-.15c.12-.16.25-.33.34-.47.22-.32.47-.75.68-1.1l.12-.21c.44-.81.9-1.8,1.26-2.71.12-.34.26-.77.37-1.12.05-.17.11-.41.17-.64l.03-.14c.06-.23.14-.53.19-.77l.09-.63c.06-.25.1-.49.13-.78.02-.15.04-.29.05-.42.03-.21.05-.4.05-.54.21-5.09-1.8-10.5-5.25-14.14ZM340.96,192.05v.1c-.05.16-.08.32-.11.48-.02.12-.04.25-.05.37-.03.1-.05.21-.08.3l-.11.47c-.08.26-.18.58-.22.71-.21.52-.54,1.24-.83,1.76-.13.22-.29.49-.42.68l-.33.44c-.09.11-.19.22-.26.32l-.17.21c-.1.1-.2.21-.29.31l-.34.35c-.87.77-1.93,1.45-3.3,2.14l-27.97,9.37c-2.07-4.62-3.85-9.74-5.58-14.7-1.54-4.4-3.12-8.95-4.93-13.25-.2-1.16-.35-2.35-.31-3.43l.05-.49c.02-.13.04-.28.06-.45l.07-.34c.03-.12.06-.26.09-.35l.08-.29c.03-.11.06-.23.06-.23l.11-.33c.09-.25.18-.53.28-.76.1-.24.22-.48.34-.71.16-.31.41-.72.58-1,.06-.1.15-.21.22-.32l.05-.07c.12-.14.25-.3.41-.5l.64-.74c.09-.07.17-.15.26-.22,2.33-2.01,5.23-3.08,8.07-3.01.09,0,.19,0,.28,0,.08,0,.15.02.24.03.16.01.31.02.48.02l1.14.24c.16.05.37.1.63.16.34.12.76.27,1.07.4.32.13.65.29.96.45.21.11.45.27.67.4l.68.46c.1.07.23.17.38.29l.18.15c.1.1.23.22.34.32l.35.33c1.77,1.97,2.76,4.51,3.56,6.97l.36,1.1.92.7c1.83,1.4,3.65.81,7.25-.36.69-.22,1.31-.44,1.61-.5.64-.11,1.74-.18,2.6-.17.11,0,.22,0,.33,0l1.06.18c.15.04.34.07.55.11l.1.03c.12.03.26.07.29.08.35.12.83.28,1.18.43.29.13.6.26.91.43.27.14.63.36.92.54.14.09.33.23.43.31.11.09.23.19.32.26.08.06.2.16.28.23l.7.61c2.04,2.15,3.29,5.49,3.2,8.56-.02.13-.03.27-.05.43Z"/>
      <g>
        <rect class="cls-7" x="51.28" y="118.42" width="289.44" height="66.48" rx="33.24" ry="33.24"/>
        <g>
          <path class="cls-4" d="M250.65,152.11c-.74-.48-1.57-.72-2.49-.72-1.03,0-1.91.2-2.65.61-.71.37-1.29.85-1.75,1.44-.46.59-.8,1.22-1.01,1.88-.21.67-.32,1.27-.32,1.83l9.65-2.94c-.18-.96-.65-1.66-1.43-2.11Z"/>
          <polygon class="cls-4" points="94.48 153.13 94.48 155.5 93.81 155.5 93.81 157.36 96.75 157.36 96.75 153.13 94.48 153.13"/>
          <polygon class="cls-4" points="125.46 157.36 125.46 155.5 124.78 155.5 124.78 153.13 122.55 153.13 122.55 157.36 125.46 157.36"/>
          <path class="cls-4" d="M318.11,152.11c-.74-.48-1.57-.72-2.49-.72-1.03,0-1.91.2-2.65.61-.71.37-1.29.85-1.75,1.44-.46.59-.8,1.22-1.01,1.88-.21.67-.32,1.27-.32,1.83l9.65-2.94c-.18-.96-.65-1.66-1.43-2.11Z"/>
          <polygon class="cls-4" points="103.16 149.38 103.16 160.83 105.12 160.83 105.12 161.4 114.15 161.4 114.15 160.83 116.08 160.83 116.08 149.38 103.16 149.38"/>
          <polygon class="cls-14" points="93.96 132.41 87.49 132.41 87.49 142.34 82.66 142.34 82.66 147.28 79.4 147.28 79.4 142.34 74.57 142.34 74.57 132.41 68.16 132.41 68.16 144.44 72.99 144.44 72.99 149.38 77.77 149.38 77.77 169.12 84.29 169.12 84.29 149.38 89.07 149.38 89.07 144.44 93.96 144.44 93.96 132.41"/>
          <polygon class="cls-14" points="114.15 166.13 105.12 166.13 105.12 165.56 101.58 165.56 101.58 169.13 117.66 169.13 117.66 165.56 114.15 165.56 114.15 166.13"/>
          <polygon class="cls-14" points="96.75 159.72 100.6 159.72 100.6 160.83 103.16 160.83 103.16 149.38 116.08 149.38 116.08 160.83 118.67 160.83 118.67 159.72 122.52 159.72 122.52 157.36 122.55 157.36 122.55 153.13 122.52 153.13 122.52 148.4 122.55 148.4 122.55 147.28 117.66 147.28 117.66 142.34 101.58 142.34 101.58 147.28 96.75 147.28 96.75 159.72"/>
          <polygon class="cls-14" points="151.89 162.09 138.96 162.09 138.96 142.34 132.55 142.34 132.55 164.24 137.38 164.24 137.38 169.12 153.46 169.12 153.46 164.24 158.35 164.24 158.35 142.34 151.89 142.34 151.89 162.09"/>
          <path class="cls-14" d="M190.72,163.33c-.5.98-1.04,1.72-1.62,2.24-.56.49-1.17.73-1.84.73-.76,0-1.26-.34-1.49-1.01-.23-.7-.19-1.68.13-2.93l2.41-8.97c.73-2.81.63-5.03-.31-6.68-.91-1.68-2.51-2.52-4.82-2.52-1.61,0-3.07.44-4.38,1.33-1.01.68-1.92,1.65-2.73,2.88-.01-.09-.01-.18-.03-.27-.2-1.25-.73-2.21-1.58-2.88-.85-.7-2-1.05-3.46-1.05-1.08,0-2.07.21-2.98.64-.91.43-1.72,1.05-2.45,1.88-.7.82-1.34,1.82-1.93,2.97l-1.01,1.97h1.71l.83-1.6c.5-1.01,1.02-1.75,1.58-2.24.58-.52,1.18-.78,1.8-.78.82,0,1.34.35,1.58,1.05.23.7.18,1.68-.18,2.93l-4.69,17.48h6.18l4.29-16.02c.24-.92.37-1.77.41-2.56.54-.84,1.12-1.5,1.74-1.98.79-.58,1.64-.87,2.54-.87,1.11,0,1.83.44,2.15,1.33.35.85.31,2.14-.13,3.84l-2.32,8.65c-.44,1.68-.55,3.14-.35,4.39.23,1.22.77,2.17,1.62,2.84.88.67,2.03,1.01,3.46,1.01,1.11,0,2.1-.21,2.98-.64.91-.43,1.72-1.05,2.45-1.88.73-.82,1.39-1.82,1.97-2.97l.96-1.92h-1.71l-.79,1.6Z"/>
          <path class="cls-14" d="M209.02,163.33c-1.02,1.98-2.18,2.97-3.46,2.97-.79,0-1.31-.37-1.58-1.1s-.19-1.69.22-2.88l3.33-9.84c.58-1.62.76-3.04.53-4.26-.23-1.25-.79-2.23-1.66-2.93-.88-.73-2.06-1.1-3.55-1.1-1.58,0-2.96.44-4.16,1.33-1.17.88-2.23,2.27-3.2,4.16l-1.01,1.97h1.71l.83-1.6c.5-1.04,1.02-1.8,1.58-2.29.58-.49,1.2-.73,1.84-.73.82,0,1.34.37,1.58,1.1.26.73.19,1.69-.22,2.88l-3.33,9.84c-.55,1.59-.73,3.01-.52,4.26.23,1.25.79,2.24,1.66,2.97.91.7,2.09,1.05,3.55,1.05,1.58,0,2.96-.43,4.16-1.28,1.2-.88,2.28-2.29,3.24-4.21l.96-1.92h-1.71l-.79,1.6Z"/>
          <path class="cls-14" d="M254.41,160.15c-.32,0-.6.13-.85.39-.92,1-1.91,1.7-2.97,2.11-1.03.37-2.12.55-3.29.55-.74,0-1.48-.2-2.23-.61-.71-.41-1.29-.98-1.75-1.72l11.09-3.44c1.24-.41,1.86-1.24,1.86-2.49,0-1.18-.55-2.57-1.64-4.16-.78-1.03-1.79-1.81-3.02-2.33-1.2-.52-2.48-.78-3.82-.78-1.63,0-3.18.35-4.67,1.05-1.45.67-2.53,1.72-3.23,3.16-1.1,2.29-1.65,4.32-1.65,6.1,0,1.66.32,3.07.95,4.21.64,1.15,1.45,2.09,2.44,2.83.99.7,2.05,1.22,3.18,1.55,1.17.33,2.26.5,3.29.5s2.03-.17,3.02-.5c.99-.3,1.87-.68,2.65-1.16.78-.52,1.4-1.05,1.86-1.61.5-.55.74-1.09.74-1.61s-.23-.98-.69-1.39c-.42-.44-.85-.67-1.27-.67ZM242.74,155.33c.21-.67.55-1.29,1.01-1.88.46-.59,1.04-1.07,1.75-1.44.74-.41,1.63-.61,2.65-.61.92,0,1.75.24,2.49.72.78.44,1.26,1.15,1.43,2.11l-9.65,2.94c0-.55.11-1.16.32-1.83Z"/>
          <path class="cls-14" d="M278.6,147.79c-2.16.11-4.21.63-6.15,1.55-1.95.89-3.62,2.07-5.04,3.55-.67-1.29-1.41-2.4-2.23-3.33-.81-.92-1.52-1.39-2.12-1.39s-1.15.24-1.64.72c-.46.44-.69.98-.69,1.61,0,.3.12.65.37,1.05.25.41.53.81.85,1.22.32.37.62.74.9,1.11.32.33.53.59.64.78.28.63.58,1.42.9,2.38.35.96.53,2.16.53,3.6,0,1.07-.05,2.16-.16,3.27-.07,1.07-.16,2.12-.26,3.16,0,.44.19.78.58,1,.43.26.88.39,1.38.39s.95-.09,1.38-.28c.42-.18.65-.52.69-1,.18-.92.28-1.87.32-2.83.07-.96.11-1.92.11-2.88,0-.78-.05-1.51-.16-2.22-.07-.74-.11-1.48-.11-2.22,1.06-1.4,2.46-2.53,4.19-3.38,1.77-.85,3.82-1.55,6.15-2.11.39,0,.67-.17.85-.5.21-.37.32-.76.32-1.16,0-.48-.14-.92-.42-1.33-.25-.44-.64-.7-1.17-.78Z"/>
          <path class="cls-14" d="M233.89,146.91c-.53-.44-1.11-.67-1.75-.67-.28,0-.55.07-.8.22-.25.15-.41.41-.48.78-1.24,2.99-2.44,5.95-3.61,8.87-1.17,2.88-2.23,5.54-3.18,7.98-.28-1.26-.6-2.6-.96-4.05-.35-1.48-.73-2.96-1.11-4.43-.35-1.48-.73-2.92-1.11-4.32-.35-1.44-.71-2.75-1.06-3.93-.14-.48-.41-.81-.8-1-.39-.22-.78-.33-1.17-.33-.57,0-1.06.15-1.49.44-.42.3-.64.68-.64,1.16,0,.11.02.2.05.28l4.99,17.85c.18.81.55,1.59,1.11,2.33.57.74,1.25,1.11,2.07,1.11.57,0,1.15-.26,1.75-.78.64-.48,1.25-1.37,1.86-2.66.85-1.7,1.59-3.31,2.23-4.82.64-1.51,1.22-2.97,1.75-4.38.53-1.4,1.04-2.77,1.54-4.1.49-1.33,1.03-2.66,1.59-3.99v-.11s.05-.09.05-.17c0-.44-.28-.87-.85-1.27Z"/>
          <path class="cls-14" d="M323.15,160.82c-.42-.44-.85-.67-1.27-.67-.32,0-.6.13-.85.39-.92,1-1.91,1.7-2.97,2.11-1.03.37-2.12.55-3.29.55-.74,0-1.49-.2-2.23-.61-.71-.41-1.29-.98-1.75-1.72l11.09-3.44c1.24-.41,1.86-1.24,1.86-2.49,0-1.18-.55-2.57-1.64-4.16-.78-1.03-1.79-1.81-3.02-2.33-1.2-.52-2.48-.78-3.82-.78-1.63,0-3.18.35-4.67,1.05-1.45.67-2.53,1.72-3.24,3.16-1.1,2.29-1.64,4.32-1.64,6.1,0,1.66.32,3.07.96,4.21.64,1.15,1.45,2.09,2.44,2.83.99.7,2.05,1.22,3.18,1.55,1.17.33,2.26.5,3.29.5s2.03-.17,3.02-.5c.99-.3,1.87-.68,2.65-1.16.78-.52,1.4-1.05,1.86-1.61.5-.55.74-1.09.74-1.61s-.23-.98-.69-1.39ZM310.21,155.33c.21-.67.55-1.29,1.01-1.88.46-.59,1.04-1.07,1.75-1.44.74-.41,1.63-.61,2.65-.61.92,0,1.75.24,2.49.72.78.44,1.26,1.15,1.43,2.11l-9.65,2.94c0-.55.11-1.16.32-1.83Z"/>
          <path class="cls-14" d="M298.06,157.49c-.88-.52-1.86-.91-2.92-1.16-1.06-.3-2.05-.59-2.97-.89-.88-.33-1.63-.72-2.23-1.16-.6-.48-.9-1.16-.9-2.05,0-.96.26-1.75.8-2.38.57-.67,1.41-1,2.55-1,.71,0,1.52.13,2.44.39.92.26,1.98.7,3.18,1.33.21.07.39.11.53.11.39,0,.81-.18,1.27-.55.46-.37.69-.87.69-1.5,0-.44-.23-.89-.69-1.33-.46-.48-1.06-.91-1.8-1.27-.71-.37-1.5-.67-2.39-.89-.88-.26-1.73-.39-2.55-.39-1.31,0-2.46.2-3.45.61-.99.37-1.82.89-2.49,1.55-.67.66-1.18,1.46-1.54,2.38-.35.89-.53,1.85-.53,2.88,0,.92.18,1.64.53,2.16.74,1.33,1.57,2.31,2.49,2.94.95.63,1.93,1.11,2.92,1.44.64.22,1.33.44,2.07.66.78.22,1.49.48,2.12.78.67.26,1.22.61,1.64,1.05.46.41.69.91.69,1.5,0,.74-.32,1.31-.95,1.72-.64.41-1.75.61-3.34.61-.81,0-1.77-.09-2.87-.28-1.1-.22-2.26-.63-3.5-1.22h-.16s-.09-.06-.16-.06c-.46,0-.83.22-1.12.67-.25.41-.37.85-.37,1.33,0,.63.26,1.15.8,1.55.53.41,1.2.72,2.01.94.85.26,1.79.44,2.81.55,1.03.11,2.02.17,2.97.17,2.33,0,4.17-.48,5.52-1.44,1.38-.92,2.07-2.36,2.07-4.32,0-1.44-.3-2.57-.9-3.38-.6-.85-1.36-1.53-2.28-2.05Z"/>
          <path class="cls-6" d="M201.48,137.68c.26.2.37.56.27.88l-.64,2.05c-.23.73.57,1.33,1.16.88l1.67-1.27c.26-.2.62-.2.89,0l1.67,1.27c.59.45,1.39-.16,1.16-.88l-.64-2.05c-.1-.32,0-.68.27-.88l1.67-1.27c.59-.45.29-1.43-.44-1.43h-2.06c-.33,0-.62-.22-.72-.54l-.64-2.05c-.23-.73-1.21-.73-1.44,0l-.64,2.05c-.1.32-.39.54-.72.54h-2.06c-.73,0-1.03.98-.44,1.43l1.67,1.27Z"/>
          <polygon class="cls-6" points="105.12 160.83 100.6 160.83 100.6 159.72 96.75 159.72 96.75 157.36 93.81 157.36 93.81 155.5 94.48 155.5 94.48 153.13 96.75 153.13 96.75 148.4 92.22 148.4 92.22 150.77 89.96 150.77 89.96 154.31 89.28 154.31 89.28 159.03 92.22 159.03 92.22 162.09 96.07 162.09 96.07 164.45 100.6 164.45 100.6 165.56 105.12 165.56 105.12 160.83"/>
          <rect class="cls-6" x="105.12" y="161.4" width="4.5" height="4.73"/>
          <polygon class="cls-6" points="129.31 150.77 127.05 150.77 127.05 148.4 122.52 148.4 122.52 153.13 124.78 153.13 124.78 155.5 125.46 155.5 125.46 157.36 122.52 157.36 122.52 159.72 118.67 159.72 118.67 160.83 114.15 160.83 114.15 161.4 109.62 161.4 109.62 166.13 114.15 166.13 114.15 165.56 118.67 165.56 118.67 164.45 123.2 164.45 123.2 162.09 127.05 162.09 127.05 159.03 129.99 159.03 129.99 154.31 129.31 154.31 129.31 150.77"/>
        </g>
      </g>
      <g>
        <rect class="cls-8" x="64.08" y="341.57" width="9.27" height="17.68"/>
        <rect class="cls-1" x="64.08" y="290.31" width="9.27" height="47.65"/>
        <rect class="cls-3" x="64.08" y="264.43" width="9.27" height="22.26"/>
        <rect class="cls-8" x="152.95" y="352.59" width="9.27" height="6.67"/>
        <rect class="cls-13" x="76.96" y="290.31" width="85.25" height="58.66"/>
        <path class="cls-14" d="M163.68,286.69h-86.72v-23.4c0-1.37-1.11-2.48-2.48-2.48h-10.4v-16.73c0-1.29-1.05-2.35-2.35-2.35h-11.81c-1.29,0-2.35,1.05-2.35,2.35v95.14c0,1.29,1.05,2.35,2.35,2.35h10.54v18.72c0,1.42,1.16,2.58,2.58,2.58h11.34c1.42,0,2.58-1.16,2.58-2.58v-7.71h72.37v7.52c0,1.52,1.24,2.76,2.76,2.76h11.3c1.34,0,2.44-1.09,2.44-2.44v-71.59c0-1.19-.97-2.15-2.15-2.15ZM152.95,352.59h9.27v6.67h-9.27v-6.67ZM64.08,290.31h9.27v47.65h-9.27v-47.65ZM73.35,286.69h-9.27v-22.26h9.27v22.26ZM51.2,245.36h9.27v92.6h-9.27v-92.6ZM64.08,341.57h9.27v17.68h-9.27v-17.68ZM76.96,290.31h85.25v58.66h-85.25v-58.66Z"/>
        <rect class="cls-8" x="51.2" y="245.36" width="9.27" height="92.6"/>
      </g>
      <g>
        <rect class="cls-11" x="251.42" y="338.8" width="7.94" height="19.77"/>
        <rect class="cls-11" x="348.91" y="338.8" width="7.94" height="19.77"/>
        <rect class="cls-11" x="262.93" y="338.8" width="82.42" height="19.77"/>
        <rect class="cls-16" x="360.42" y="362.14" width="7.94" height="19.77"/>
        <rect class="cls-16" x="262.93" y="362.14" width="7.94" height="19.77"/>
        <path class="cls-9" d="M369.53,358.57h-9.11v-20.95c0-1.32-1.07-2.39-2.39-2.39h-107.78c-1.32,0-2.39,1.07-2.39,2.39v22.12c0,1.32,1.07,2.39,2.39,2.39h9.12v19.77h-9.12c-1.32,0-2.39,1.07-2.39,2.39v22.12c0,1.32,1.07,2.39,2.39,2.39h107.78c1.32,0,2.39-1.07,2.39-2.39v-20.95h9.11c1.32,0,2.39-1.07,2.39-2.39v-22.12c0-1.32-1.07-2.39-2.39-2.39ZM356.85,338.8v19.77h-7.94v-19.77h7.94ZM274.43,381.91v-19.77h82.42v19.77h-82.42ZM262.93,362.14h7.94v19.77h-7.94v-19.77ZM348.91,385.48h7.94v19.77h-7.94v-19.77ZM345.35,338.8v19.77h-82.42v-19.77h82.42ZM251.42,338.8h7.94v19.77h-7.94v-19.77ZM251.42,385.48h7.94v19.77h-7.94v-19.77ZM262.93,385.48h82.42v19.77h-82.42v-19.77ZM368.36,381.91h-7.94v-19.77h7.94v19.77Z"/>
        <rect class="cls-16" x="274.43" y="362.14" width="82.42" height="19.77"/>
        <rect class="cls-12" x="348.91" y="385.48" width="7.94" height="19.77"/>
        <rect class="cls-12" x="251.42" y="385.48" width="7.94" height="19.77"/>
        <rect class="cls-12" x="262.93" y="385.48" width="82.42" height="19.77"/>
      </g>
      <g>
        <path class="cls-6" d="M130.69,400.01c.08,6.92,2.54,12.3,6.93,15.15,1.49.97,3.13,1.6,4.87,1.93-2.28-4.58-3.46-9.42-3.46-14.32,0-17.27,14.5-32.2,35.43-39.16-.67-.68-1.4-1.28-2.19-1.79-9.41-6.11-24.83.88-34.38,15.59-4.73,7.27-7.28,15.3-7.2,22.59Z"/>
        <path class="cls-6" d="M227.55,363.68c20.84,6.98,35.26,21.88,35.26,39.1,0,4.9-1.18,9.76-3.47,14.34,1.85-.32,3.57-.96,5.1-1.96,4.39-2.85,6.85-8.23,6.93-15.15.08-7.3-2.47-15.32-7.2-22.59h0c-7.21-11.09-17.75-17.8-26.54-17.8-2.86,0-5.53.71-7.84,2.21-.82.53-1.57,1.16-2.24,1.85Z"/>
        <path class="cls-2" d="M268.49,431.58l-17.27-6.85h-44.58l-.12,1.57c-.04.47-.28.9-.66,1.17-.38.28-.86.37-1.32.26l-2.59-.62c-.61-.15-1.25-.15-1.85,0l-2.59.62c-.12.03-.25.04-.37.04-.34,0-.67-.11-.94-.31-.38-.28-.62-.7-.66-1.17l-.13-1.57h-44.79l-17.27,6.85c-1.95.77-3.43,2.36-4.08,4.35-.65,1.99-.38,4.15.74,5.91l15,23.68c4.07,6.42,6.48,13.83,6.96,21.42l1.79,27.98c.13,2.09,1.18,3.99,2.87,5.22,1.69,1.23,3.83,1.64,5.85,1.12l27.16-6.95c3.68-.94,7.47-1.41,11.26-1.41s7.58.47,11.26,1.41l27.16,6.95c2.03.52,4.16.11,5.85-1.12s2.74-3.13,2.87-5.22l1.79-27.98c.48-7.59,2.89-15,6.96-21.42l15-23.68c1.12-1.77,1.39-3.92.74-5.91-.65-1.99-2.13-3.58-4.08-4.35ZM201.04,506.74c-20.45,0-37.09-16.64-37.09-37.09s16.64-37.09,37.09-37.09,37.09,16.64,37.09,37.09-16.64,37.09-37.09,37.09Z"/>
        <path class="cls-2" d="M200.93,364.46c-31.37,0-56.89,17.19-56.89,38.33,0,4.81,1.38,9.6,4.01,14.07h47.16l1.38-.57c.58-.24,1.09-.62,1.5-1.09l1.73-2.02c.31-.36.75-.56,1.22-.56h0c.47,0,.91.2,1.22.56l1.73,2.02c.4.47.92.85,1.5,1.09l1.38.57h46.94c2.63-4.47,4.01-9.26,4.01-14.07,0-21.13-25.52-38.33-56.89-38.33ZM177.21,401.09c-2.36,0-4.28-1.91-4.28-4.28s1.91-4.28,4.28-4.28,4.28,1.91,4.28,4.28-1.91,4.28-4.28,4.28ZM200.93,406.83c-2.4,0-4.35-1.29-4.35-2.87s1.95-2.87,4.35-2.87,4.35,1.29,4.35,2.87-1.95,2.87-4.35,2.87ZM200.92,387.49c-.66,0-1.33-.11-1.98-.36-2.11-.84-3.47-3.02-4.05-6.48-.03-.24-.69-5.22,2.35-7.53,2.05-1.56,5.15-1.45,9.22.32l-.8,1.83c-3.3-1.44-5.8-1.63-7.21-.56-2.11,1.59-1.59,5.6-1.59,5.64.45,2.69,1.4,4.36,2.81,4.92,2.45.98,5.75-1.47,5.78-1.5l1.21,1.59c-.14.11-2.85,2.13-5.74,2.13ZM241.17,389.83c.32.57.26,1.27-.15,1.78-.4.5-1.07.71-1.68.52-.64-.19-1.31-.25-1.99-.17-2.24.27-4.04,2.09-4.27,4.32-.15,1.41.29,2.76,1.23,3.8,1.17,1.3,3.03,1.89,4.72,1.5.7-.16,1.42.11,1.83.68.41.57.44,1.33.08,1.93-2.58,4.3-7.3,6.97-12.31,6.97-3.98,0-7.81-1.67-10.52-4.59-2.75-2.96-4.09-6.81-3.79-10.86.51-6.91,6.1-12.59,13-13.2,5.65-.5,11.09,2.36,13.85,7.31Z"/>
        <path class="cls-14" d="M277.32,434.38c-1.11-3.41-3.66-6.13-6.99-7.45l-11.76-4.67c3.12-.28,6.03-1.24,8.59-2.91,5.84-3.79,9.11-10.65,9.21-19.29.09-8.27-2.75-17.28-8.01-25.37-11.06-17.02-29.58-24.67-41.3-17.06-1.86,1.21-3.43,2.73-4.73,4.5-6.68-1.73-13.89-2.68-21.42-2.68s-14.59.93-21.21,2.62c-1.31-1.76-2.89-3.25-4.72-4.44-11.71-7.61-30.24.04-41.3,17.06-5.26,8.09-8.1,17.1-8.01,25.37.1,8.65,3.37,15.5,9.21,19.29,2.56,1.66,5.45,2.59,8.51,2.85l-11.89,4.72c-3.33,1.32-5.88,4.04-6.99,7.45-1.11,3.41-.64,7.1,1.28,10.13l15,23.68c3.62,5.72,5.76,12.31,6.19,19.06l1.79,27.98c.23,3.58,2.02,6.84,4.92,8.95,2.9,2.11,6.56,2.81,10.03,1.92l27.16-6.95c6.56-1.68,13.49-1.68,20.04,0l27.16,6.95c.99.25,1.99.38,2.99.38,2.51,0,4.97-.79,7.05-2.3,2.9-2.11,4.7-5.37,4.92-8.95l1.79-27.98c.43-6.75,2.57-13.35,6.19-19.06l15-23.68c1.92-3.03,2.38-6.72,1.28-10.13ZM271.82,441.84l-15,23.68c-4.07,6.42-6.48,13.83-6.96,21.42l-1.79,27.98c-.13,2.09-1.18,3.99-2.87,5.22s-3.83,1.64-5.85,1.12l-27.16-6.95c-3.68-.94-7.47-1.41-11.26-1.41s-7.58.47-11.26,1.41l-27.16,6.95c-2.03.52-4.16.11-5.85-1.12-1.69-1.23-2.74-3.13-2.87-5.22l-1.79-27.98c-.48-7.59-2.89-15-6.96-21.42l-15-23.68c-1.12-1.77-1.39-3.92-.74-5.91.65-1.99,2.13-3.58,4.08-4.35l17.27-6.85h44.79l.13,1.57c.04.47.28.9.66,1.17.28.2.61.31.94.31.12,0,.25-.01.37-.04l2.59-.62c.61-.15,1.25-.15,1.85,0l2.59.62c.46.11.94.01,1.32-.26.38-.28.62-.7.66-1.17l.12-1.57h44.58l17.27,6.85c1.94.77,3.43,2.36,4.08,4.35.65,1.99.38,4.15-.74,5.91ZM172.28,361.83c.8.52,1.52,1.12,2.19,1.79-20.92,6.96-35.43,21.89-35.43,39.16,0,4.89,1.18,9.74,3.46,14.32-1.74-.33-3.38-.97-4.87-1.93-4.39-2.85-6.85-8.23-6.93-15.15-.08-7.3,2.47-15.32,7.2-22.59,9.55-14.7,24.97-21.7,34.38-15.59ZM264.18,377.42h0c4.73,7.27,7.28,15.3,7.2,22.59-.08,6.92-2.54,12.3-6.93,15.15-1.53.99-3.24,1.64-5.1,1.96,2.28-4.58,3.47-9.44,3.47-14.34,0-17.22-14.43-32.12-35.26-39.1.68-.69,1.42-1.31,2.24-1.85,2.31-1.5,4.98-2.21,7.84-2.21,8.78,0,19.33,6.7,26.54,17.8ZM206.92,422.73c.1-.29.22-.57.39-.84l1.39-2.27c.14-.23.21-.5.23-.77h45.56v3.87h-47.56ZM204.56,425.68l-2.14-.51c-.91-.22-1.87-.22-2.78,0l-2.14.51-.17-2.19c-.07-.93-.37-1.85-.86-2.65l-1.15-1.87,2.03-.84c.86-.36,1.64-.92,2.25-1.64l1.43-1.67,1.43,1.67c.61.71,1.39,1.28,2.25,1.64l2.03.84-1.15,1.87c-.49.8-.79,1.71-.86,2.65l-.17,2.19ZM146.05,418.85h47.11c.01.27.08.53.23.77l1.39,2.27c.16.26.29.54.39.84h-49.11v-3.87ZM257.82,402.78c0,4.81-1.38,9.6-4.01,14.07h-46.94l-1.38-.57c-.58-.24-1.09-.62-1.5-1.09l-1.73-2.02c-.31-.36-.75-.56-1.22-.56h0c-.47,0-.91.2-1.22.56l-1.73,2.02c-.4.47-.92.85-1.5,1.09l-1.38.57h-47.16c-2.63-4.47-4.01-9.26-4.01-14.07,0-21.13,25.52-38.33,56.89-38.33s56.89,17.19,56.89,38.33Z"/>
        <path class="cls-14" d="M199.67,385.27c-1.41-.56-2.36-2.23-2.81-4.92,0-.04-.52-4.04,1.59-5.64,1.41-1.07,3.91-.87,7.21.56l.8-1.83c-4.07-1.77-7.17-1.88-9.22-.32-3.04,2.31-2.39,7.29-2.35,7.53.58,3.46,1.95,5.64,4.05,6.48.65.26,1.32.36,1.98.36,2.89,0,5.6-2.02,5.74-2.13l-1.21-1.59s-3.33,2.47-5.78,1.5Z"/>
        <path class="cls-14" d="M177.21,392.54c-2.36,0-4.28,1.91-4.28,4.28s1.91,4.28,4.28,4.28,4.28-1.91,4.28-4.28-1.91-4.28-4.28-4.28Z"/>
        <path class="cls-5" d="M216.32,395.87c-.26,3.48.9,6.8,3.26,9.35,2.33,2.51,5.63,3.95,9.06,3.95,4.19,0,8-2.06,10.3-5.53-2.26.33-4.58-.51-6.11-2.21-1.3-1.45-1.94-3.4-1.73-5.35.33-3.16,2.86-5.73,6.02-6.1.61-.07,1.22-.06,1.82.02-2.29-3.45-6.18-5.53-10.33-5.53-.37,0-.74.02-1.1.05-5.93.53-10.74,5.41-11.18,11.36ZM228.92,396.81c0,2.36-1.91,4.28-4.28,4.28s-4.28-1.91-4.28-4.28,1.91-4.28,4.28-4.28,4.28,1.91,4.28,4.28Z"/>
        <path class="cls-14" d="M214.32,395.72c-.3,4.04,1.05,7.9,3.79,10.86,2.71,2.92,6.54,4.59,10.52,4.59,5.01,0,9.73-2.67,12.31-6.97.36-.61.33-1.37-.08-1.93-.42-.57-1.14-.84-1.83-.68-1.7.39-3.55-.19-4.72-1.5-.94-1.04-1.38-2.39-1.23-3.8.23-2.24,2.03-4.06,4.27-4.32.68-.08,1.35-.02,1.99.17.62.19,1.28-.02,1.68-.52.41-.51.47-1.21.15-1.78-2.76-4.95-8.2-7.81-13.85-7.31-6.9.62-12.48,6.29-13,13.2ZM238.93,389.99c-.6-.09-1.21-.09-1.82-.02-3.16.38-5.69,2.94-6.02,6.1-.2,1.95.43,3.9,1.73,5.35,1.53,1.7,3.86,2.54,6.11,2.21-2.3,3.48-6.11,5.53-10.3,5.53-3.42,0-6.72-1.44-9.06-3.95-2.36-2.55-3.52-5.87-3.26-9.35.44-5.95,5.25-10.83,11.18-11.36.37-.03.74-.05,1.1-.05,4.15,0,8.04,2.08,10.33,5.53Z"/>
        <circle class="cls-14" cx="224.64" cy="396.81" r="4.28"/>
        <path class="cls-14" d="M200.93,401.09c-2.4,0-4.35,1.29-4.35,2.87s1.95,2.87,4.35,2.87,4.35-1.29,4.35-2.87-1.95-2.87-4.35-2.87Z"/>
        <path class="cls-6" d="M254.48,418.85h-45.56c-.01.27-.08.53-.23.77l-1.39,2.27c-.16.26-.29.54-.39.84h47.56v-3.87Z"/>
        <path class="cls-6" d="M195.15,422.73c-.1-.29-.22-.57-.39-.84l-1.39-2.27c-.14-.23-.21-.5-.23-.77h-47.11v3.87h49.11Z"/>
        <path class="cls-5" d="M205.6,420.85l1.15-1.87-2.03-.84c-.86-.36-1.64-.92-2.25-1.64l-1.43-1.67-1.43,1.67c-.61.71-1.39,1.28-2.25,1.64l-2.03.84,1.15,1.87c.49.8.79,1.71.86,2.65l.17,2.19,2.14-.51c.91-.22,1.87-.22,2.78,0l2.14.51.17-2.19c.07-.93.37-1.85.86-2.65Z"/>
        <path class="cls-6" d="M201.04,434.56c-19.35,0-35.09,15.74-35.09,35.09s15.74,35.09,35.09,35.09,35.09-15.74,35.09-35.09-15.74-35.09-35.09-35.09ZM227.9,463.58s-.03.16-.07.28c-.02.07-.04.16-.06.22-.03.12-.07.29-.11.43l-.05.22c-.03.12-.06.25-.09.35-.03.1-.08.24-.12.35l-.05.14c-.03.09-.06.18-.09.26l-.04.12c-.03.09-.06.18-.08.25-.41,1-1.11,2.02-1.73,2.93l-.29.42c-.13.19-.27.36-.43.52l-21.22,21.22c-.7.71-1.63,1.06-2.56,1.06s-1.85-.35-2.55-1.05l-20.25-20.15c-1.62-1.71-2.77-3.44-3.53-5.3-.06-.16-.11-.31-.14-.42l-.04-.12c-.03-.1-.06-.19-.08-.25-.01-.05-.04-.12-.06-.18-.03-.09-.05-.16-.06-.19l-.04-.15c-.03-.12-.06-.25-.08-.34l-.03-.16c-.03-.15-.07-.32-.09-.45l-.04-.25c-.03-.16-.06-.33-.08-.47-.08-1.09-.08-2.63,0-3.63.02-.18.05-.37.08-.55l.04-.22c.03-.18.08-.44.12-.63.03-.15.09-.36.13-.5.01-.05.04-.14.08-.24l.08-.26c.03-.12.06-.24.09-.34l.13-.26c1.4-3.7,4.31-6.66,8.19-8.34l.12-.08.29-.1c.1-.03.2-.07.28-.09l.17-.06c.09-.03.18-.06.21-.07l.12-.03c.13-.03.27-.07.38-.09.06-.01.15-.04.22-.06.12-.03.22-.06.27-.07.07-.01.14-.03.22-.04.14-.03.28-.06.39-.08l.29-.04c.19-.03.39-.06.55-.07.89-.08,2.17-.05,3,0h.05c.25.03.6.08.86.13.18.03.43.08.62.12.15.03.35.09.5.12l.15.04c.12.03.24.06.34.09.11.03.26.09.38.12l.12.04c.08.03.17.05.24.08,1.15.43,2.9,1.47,3.85,2.2.48.37,1.41,1.33,2.77,2.77.56.6,1.29,1.36,1.72,1.78.47-.45,1.27-1.27,1.9-1.92,1.37-1.41,2.24-2.3,2.69-2.64.89-.68,2.48-1.66,3.48-2.07.08-.03.17-.06.26-.09l.48-.16c.17-.06.29-.1.38-.12.1-.03.22-.06.35-.09l.25-.06c.13-.04.29-.08.4-.1.25-.05.46-.1.61-.12.26-.04.6-.09.85-.12.96-.06,2.19-.06,3.04,0,.25.03.52.07.76.1l.12.02c.12.02.26.05.4.08l.21.04c.08.01.19.04.32.08l.37.1c.05.02.13.05.19.06.09.03.15.04.2.05.13.03.24.06.33.09l.12.04c.09.03.18.06.25.09,3.96,1.57,7.08,4.79,8.57,8.81l.06.17c.03.09.06.19.08.25.04.15.09.34.12.5l.04.15c.03.12.06.25.08.35.01.06.04.15.06.22.03.12.06.22.06.27.04.26.09.58.12.84.07,1.01.07,2.42,0,3.39-.04.31-.08.64-.13.9Z"/>
        <path class="cls-14" d="M201.04,432.56c-20.45,0-37.09,16.64-37.09,37.09s16.64,37.09,37.09,37.09,37.09-16.64,37.09-37.09-16.64-37.09-37.09-37.09ZM201.04,504.74c-19.35,0-35.09-15.74-35.09-35.09s15.74-35.09,35.09-35.09,35.09,15.74,35.09,35.09-15.74,35.09-35.09,35.09Z"/>
        <path class="cls-5" d="M225.93,458.78l-.02-.06c-.03-.12-.07-.26-.09-.36-.01-.06-.03-.14-.05-.22l-.05-.2c-.03-.13-.07-.3-.1-.42l-.1-.31c-1.25-3.4-4.03-6.26-7.41-7.6l-.39-.12c-.11-.02-.22-.05-.33-.08-.08-.02-.22-.07-.31-.1l-.2-.05c-.07-.02-.13-.04-.18-.04l-.25-.05c-.1-.02-.2-.04-.29-.06l-.12-.02c-.21-.03-.44-.07-.63-.09-.73-.05-1.87-.05-2.69,0-.18.02-.48.07-.7.1-.13.02-.31.06-.46.09-.16.03-.27.06-.38.09l-.3.07c-.08.02-.16.04-.22.06l-.64.21c-.06.02-.14.05-.21.07l-.1.03c-.79.32-2.25,1.22-3.03,1.81-.36.27-1.53,1.47-2.46,2.44-2.34,2.41-2.54,2.56-2.95,2.66-.22.05-.55.05-.77,0-.43-.09-.66-.31-2.78-2.54-.95-1.01-2.13-2.26-2.52-2.55-.83-.63-2.4-1.57-3.34-1.92l-.32-.11c-.1-.03-.22-.08-.31-.1-.06-.02-.13-.03-.21-.05l-.21-.05c-.13-.03-.3-.08-.42-.1-.16-.03-.37-.08-.52-.11-.21-.04-.5-.08-.72-.1-.82-.05-1.96-.06-2.69,0-.12.01-.27.04-.41.06l-.35.05c-.06,0-.14.03-.22.05-.11.02-.22.05-.31.06l-.1.03c-.11.03-.23.06-.32.08-.08.02-.19.05-.29.07l-.13.03c-.13.05-.23.08-.3.1l-.2.07c-.08.05-.18.1-.32.15-3.32,1.44-5.85,4-7.05,7.18-.04.11-.08.2-.12.27,0,.03-.01.05-.02.08-.02.08-.04.17-.06.25l-.12.35c-.03.11-.07.28-.1.4-.03.15-.08.37-.1.52l-.05.26c-.02.13-.05.27-.06.38-.06.86-.06,2.31,0,3.24,0,.05.03.18.05.31l.05.29c.02.1.04.23.07.35l.04.18c.01.06.04.15.06.23l.05.19c.04.09.08.21.11.31l.1.31c.03.1.07.22.1.31.65,1.58,1.67,3.1,3.1,4.61l20.23,20.12c.63.63,1.66.63,2.29,0l21.22-21.22c.07-.07.13-.15.19-.23l.29-.43c.56-.82,1.2-1.75,1.53-2.56.04-.15.07-.23.1-.32l.1-.31c.04-.12.08-.23.1-.31.02-.07.04-.14.06-.22l.05-.2c.05-.18.08-.32.1-.41.02-.09.05-.21.08-.32l.03-.12c.03-.2.08-.5.1-.72.06-.83.06-2.14,0-3.01-.02-.19-.07-.48-.1-.71Z"/>
        <path class="cls-14" d="M228.02,459.3c-.03-.26-.08-.58-.12-.84,0-.04-.03-.15-.06-.27-.02-.07-.04-.16-.06-.22-.02-.1-.05-.22-.08-.35l-.04-.15c-.04-.15-.08-.35-.12-.5-.02-.07-.05-.16-.08-.25l-.06-.17c-1.48-4.02-4.6-7.23-8.57-8.81-.08-.03-.16-.06-.25-.09l-.12-.04c-.09-.03-.2-.06-.33-.09-.05-.01-.11-.02-.2-.05-.06-.02-.14-.05-.19-.06l-.37-.1c-.12-.03-.24-.06-.32-.08l-.21-.04c-.14-.03-.28-.06-.4-.08l-.12-.02c-.24-.04-.51-.08-.76-.1-.85-.06-2.08-.06-3.04,0-.25.03-.59.08-.85.12-.16.03-.37.07-.61.12-.11.02-.27.06-.4.1l-.25.06c-.12.03-.25.06-.35.09-.09.03-.21.07-.38.12l-.48.16c-.09.03-.19.06-.26.09-1,.41-2.59,1.39-3.48,2.07-.45.34-1.31,1.22-2.69,2.64-.63.65-1.43,1.47-1.9,1.92-.43-.43-1.15-1.19-1.72-1.78-1.36-1.44-2.29-2.4-2.77-2.77-.95-.72-2.7-1.77-3.85-2.2-.07-.03-.16-.05-.24-.08l-.12-.04c-.11-.04-.26-.09-.38-.12-.1-.03-.22-.06-.34-.09l-.15-.04c-.15-.04-.35-.09-.5-.12-.18-.04-.44-.09-.62-.12-.26-.04-.61-.09-.86-.12h-.05c-.83-.05-2.11-.08-3,0-.16.01-.36.04-.55.07l-.29.04c-.11.01-.25.04-.39.08-.07.02-.15.03-.22.04-.05,0-.15.03-.27.07-.07.02-.16.04-.22.06-.11.02-.25.06-.38.09l-.12.03s-.11.03-.21.07l-.17.06c-.08.02-.18.06-.28.09l-.29.1-.12.08c-3.88,1.68-6.79,4.64-8.19,8.34l-.13.26c-.03.1-.06.22-.09.34l-.08.26c-.03.1-.06.19-.08.24-.04.15-.09.36-.13.5-.04.18-.1.45-.12.63l-.04.22c-.03.18-.07.36-.08.55-.07,1-.07,2.54,0,3.63.02.14.05.3.08.47l.04.25c.02.13.05.29.09.45l.03.16c.02.1.05.22.08.34l.04.15s.03.1.06.19c.02.05.04.12.06.18.02.06.05.15.08.25l.04.12c.04.11.08.26.14.42.76,1.86,1.91,3.58,3.53,5.3l20.25,20.15c.7.7,1.63,1.05,2.55,1.05s1.85-.35,2.56-1.06l21.22-21.22c.16-.16.3-.34.43-.52l.29-.42c.62-.9,1.32-1.93,1.73-2.93.03-.07.06-.15.08-.25l.04-.12c.03-.08.06-.17.09-.26l.05-.14c.04-.11.09-.25.12-.35.03-.1.06-.23.09-.35l.05-.22c.04-.14.08-.31.11-.43.01-.06.04-.15.06-.22.03-.12.06-.23.07-.28.04-.26.09-.59.13-.9.07-.97.07-2.38,0-3.39ZM226.04,462.5c-.03.23-.07.52-.1.72l-.03.12c-.03.11-.06.23-.08.32-.02.1-.06.23-.1.41l-.05.2c-.02.07-.03.15-.06.22-.02.08-.06.19-.1.31l-.1.31c-.03.09-.06.17-.1.32-.33.81-.97,1.74-1.53,2.56l-.29.43c-.06.08-.12.16-.19.23l-21.22,21.22c-.63.63-1.65.63-2.29,0l-20.23-20.12c-1.43-1.51-2.45-3.03-3.1-4.61-.03-.09-.07-.22-.1-.31l-.1-.31c-.03-.1-.07-.22-.11-.31l-.05-.19c-.02-.08-.04-.17-.06-.23l-.04-.18c-.03-.12-.05-.25-.07-.35l-.05-.29c-.02-.13-.05-.26-.05-.31-.07-.94-.07-2.38,0-3.24.01-.11.04-.24.06-.38l.05-.26c.02-.15.07-.37.1-.52.03-.12.07-.29.1-.4l.12-.35c.02-.08.04-.16.06-.25,0-.03.01-.05.02-.08.04-.07.08-.16.12-.27,1.2-3.18,3.73-5.74,7.05-7.18.14-.05.24-.1.32-.15l.2-.07c.08-.02.18-.06.3-.1l.13-.03c.1-.03.21-.06.29-.07.09-.02.22-.05.32-.08l.1-.03c.09-.02.2-.04.31-.06.08-.02.16-.04.22-.05l.35-.05c.14-.02.29-.05.41-.06.72-.06,1.86-.05,2.69,0,.22.02.5.07.72.1.15.03.37.07.52.11.12.03.29.07.42.1l.21.05c.07.02.15.03.21.05.09.03.22.07.31.1l.32.11c.94.35,2.52,1.29,3.34,1.92.39.29,1.57,1.54,2.52,2.55,2.11,2.23,2.35,2.45,2.78,2.54.22.05.56.05.77,0,.42-.09.61-.25,2.95-2.66.94-.96,2.1-2.16,2.46-2.44.78-.59,2.24-1.49,3.03-1.81l.1-.03c.07-.02.14-.04.21-.07l.64-.21c.07-.02.15-.04.22-.06l.3-.07c.1-.03.22-.06.38-.09.15-.03.33-.07.46-.09.23-.04.52-.08.7-.1.82-.05,1.96-.05,2.69,0,.18.02.42.06.63.09l.12.02c.08.01.19.04.29.06l.25.05s.11.03.18.04l.2.05c.09.03.24.08.31.1.11.03.23.06.33.08l.39.12c3.38,1.34,6.16,4.2,7.41,7.6l.1.31c.04.12.07.29.1.42l.05.2c.02.08.04.16.05.22.02.11.06.25.09.36l.02.06c.04.24.08.53.1.71.06.87.06,2.18,0,3.01Z"/>
      </g>
      <g>
        <rect class="cls-15" x="33.81" y="487.87" width="95.83" height="16.35"/>
        <path class="cls-6" d="M130.85,483.92h-33.11c8.11-3.12,15.13-8.78,20.27-16.13.35-.5-.04-1.19-.65-1.15-32.79,1.99-32.79-45.7.07-43.65.6.04.99-.63.67-1.13-21.91-33.96-77.47-18.28-76.97,22.95,0,17.86,11.26,33.13,27.06,39.1h-35.58c-1.51,0-2.74,1.23-2.74,2.74v18.77c0,1.51,1.23,2.74,2.74,2.74h98.25c1.51,0,2.74-1.23,2.74-2.74v-18.77c0-1.51-1.23-2.74-2.74-2.74ZM129.64,504.22H33.81v-16.35h95.83v16.35ZM45.07,444.82c0-20.87,16.98-37.84,37.84-37.84,10.3,0,19.88,4.05,26.95,11.27.42.43.2,1.15-.39,1.25-27.37,4.72-27.36,45.98.05,50.66.57.1.81.79.42,1.22-22.07,23.94-65.94,6.64-64.87-26.55Z"/>
        <path class="cls-15" d="M109.94,471.37c.39-.42.15-1.12-.42-1.22-27.42-4.68-27.42-45.94-.05-50.66.59-.1.8-.82.39-1.25-7.07-7.22-16.65-11.27-26.95-11.27-20.87,0-37.84,16.98-37.84,37.84-1.06,33.19,42.81,50.49,64.87,26.55Z"/>
      </g>
    </g>
  </g>
</svg>