<svg width="50" height="50" viewBox="0 0 50 50" fill="none" xmlns="http://www.w3.org/2000/svg">
<mask id="mask0_102005_156" style="mask-type:alpha" maskUnits="userSpaceOnUse" x="0" y="0" width="50" height="50">
<rect width="50" height="50" fill="#D9D9D9"/>
</mask>
<g mask="url(#mask0_102005_156)">
<path d="M15.8854 13.3334L21.7187 5.78127C22.1354 5.22571 22.6302 4.81773 23.2031 4.55731C23.776 4.2969 24.375 4.16669 25 4.16669C25.625 4.16669 26.2239 4.2969 26.7968 4.55731C27.3698 4.81773 27.8645 5.22571 28.2812 5.78127L34.1145 13.3334L42.9687 16.3021C43.8715 16.5799 44.5833 17.092 45.1041 17.8386C45.625 18.5851 45.8854 19.4097 45.8854 20.3125C45.8854 20.7292 45.8246 21.1459 45.7031 21.5625C45.5816 21.9792 45.3819 22.3785 45.1041 22.7604L39.375 30.8854L39.5833 39.4271C39.618 40.6424 39.2187 41.6667 38.3854 42.5C37.552 43.3334 36.5798 43.75 35.4687 43.75C35.3993 43.75 35.0173 43.6979 34.3229 43.5938L25 40.9896L15.677 43.5938C15.5034 43.6632 15.3125 43.7066 15.1041 43.724C14.8958 43.7413 14.7048 43.75 14.5312 43.75C13.4201 43.75 12.4479 43.3334 11.6145 42.5C10.7812 41.6667 10.3819 40.6424 10.4166 39.4271L10.625 30.8334L4.94788 22.7604C4.6701 22.3785 4.47045 21.9792 4.34892 21.5625C4.22739 21.1459 4.16663 20.7292 4.16663 20.3125C4.16663 19.4445 4.41836 18.6372 4.92183 17.8906C5.42531 17.1441 6.12843 16.6146 7.03121 16.3021L15.8854 13.3334ZM18.4375 16.9271L8.33329 20.2604L14.7916 29.5834L14.5833 39.5313L25 36.6667L35.4166 39.5834L35.2083 29.5834L41.6666 20.3646L31.5625 16.9271L25 8.33335L18.4375 16.9271Z" fill="#0831B4"/>
</g>
</svg>
