<svg width="50" height="50" viewBox="0 0 50 50" fill="none" xmlns="http://www.w3.org/2000/svg">
<mask id="mask0_102005_157" style="mask-type:alpha" maskUnits="userSpaceOnUse" x="0" y="0" width="50" height="50">
<rect width="50" height="50" fill="#D9D9D9"/>
</mask>
<g mask="url(#mask0_102005_157)">
<path d="M25.2083 45.8334C22.2916 45.8334 19.5573 45.2778 17.0052 44.1667C14.4531 43.0556 12.2309 41.5538 10.3385 39.6615C8.44614 37.7691 6.9444 35.5469 5.83329 32.9948C4.72218 30.4427 4.16663 27.7084 4.16663 24.7917C4.16663 19.7222 5.78121 15.2518 9.01038 11.3802C12.2395 7.5087 16.3541 5.10419 21.3541 4.16669C20.7291 7.60419 20.9201 10.9636 21.927 14.2448C22.934 17.5261 24.6701 20.3993 27.1354 22.8646C29.6007 25.3299 32.4739 27.066 35.7552 28.0729C39.0364 29.0799 42.3958 29.2709 45.8333 28.6459C44.9305 33.6459 42.5347 37.7604 38.6458 40.9896C34.7569 44.2188 30.2777 45.8334 25.2083 45.8334ZM25.2083 41.6667C28.2639 41.6667 31.0937 40.9028 33.6979 39.375C36.302 37.8472 38.3507 35.7465 39.8437 33.0729C36.8576 32.7952 34.0277 32.04 31.3541 30.8073C28.6805 29.5747 26.2847 27.8993 24.1666 25.7813C22.0486 23.6632 20.3645 21.2674 19.1145 18.5938C17.8645 15.9202 17.118 13.0903 16.875 10.1042C14.2013 11.5972 12.1093 13.6545 10.5989 16.2761C9.0885 18.8976 8.33329 21.7361 8.33329 24.7917C8.33329 29.4792 9.97392 33.4636 13.2552 36.7448C16.5364 40.0261 20.5208 41.6667 25.2083 41.6667Z" fill="#0831B4"/>
</g>
</svg>
