<svg width="50" height="50" viewBox="0 0 50 50" fill="none" xmlns="http://www.w3.org/2000/svg">
<mask id="mask0_102005_155" style="mask-type:alpha" maskUnits="userSpaceOnUse" x="0" y="0" width="50" height="50">
<rect width="50" height="50" fill="#D9D9D9"/>
</mask>
<g mask="url(#mask0_102005_155)">
<path d="M23.3855 21.9271C24.1146 21.9271 24.731 21.6754 25.2344 21.1719C25.7379 20.6684 25.9896 20.0521 25.9896 19.3229C25.9896 18.5938 25.7379 17.9775 25.2344 17.474C24.731 16.9705 24.1146 16.7188 23.3855 16.7188C22.6563 16.7188 22.04 16.9705 21.5365 17.474C21.033 17.9775 20.7813 18.5938 20.7813 19.3229C20.7813 20.0521 21.033 20.6684 21.5365 21.1719C22.04 21.6754 22.6563 21.9271 23.3855 21.9271ZM42.8126 45.8334C41.3542 45.8334 39.3924 45.2257 36.9271 44.0104C34.4619 42.7952 31.823 41.1459 29.0105 39.0625C28.3508 39.2361 27.6824 39.3663 27.0053 39.4531C26.3282 39.54 25.6424 39.5834 24.948 39.5834C20.8855 39.5834 17.448 38.1771 14.6355 35.3646C11.823 32.5521 10.4167 29.1146 10.4167 25.0521C10.4167 24.3577 10.4688 23.6632 10.573 22.9688C10.6771 22.2743 10.816 21.5972 10.9896 20.9375C8.94103 18.125 7.30041 15.4948 6.06777 13.0469C4.83513 10.599 4.21881 8.64585 4.21881 7.18752C4.21881 6.25002 4.47923 5.51217 5.00006 4.97398C5.52089 4.43578 6.2327 4.16669 7.13548 4.16669C8.03826 4.16669 9.21013 4.47919 10.6511 5.10419C12.0921 5.72919 14.0799 6.78822 16.6146 8.28127C15.8855 8.66322 15.2084 9.06252 14.5834 9.47919C13.9584 9.89585 13.3508 10.3472 12.7605 10.8334C12.1008 10.4514 11.4584 10.1215 10.8334 9.84377C10.2084 9.56599 9.54867 9.27085 8.85423 8.95835C9.47923 10.2778 10.1476 11.5625 10.8594 12.8125C11.5712 14.0625 12.3265 15.2952 13.1251 16.5104C14.4445 14.6354 16.1285 13.1597 18.1771 12.0834C20.2258 11.007 22.4827 10.4688 24.948 10.4688C29.0105 10.4688 32.4567 11.8837 35.2865 14.7136C38.1164 17.5434 39.5313 20.9896 39.5313 25.0521C39.5313 27.5174 38.9844 29.7743 37.8907 31.8229C36.7969 33.8716 35.3126 35.5556 33.4376 36.875C34.6528 37.6736 35.8942 38.4375 37.1615 39.1667C38.4289 39.8959 39.7223 40.5556 41.0417 41.1459C40.764 40.4861 40.4775 39.8438 40.1824 39.2188C39.8872 38.5938 39.5487 37.9514 39.1667 37.2917C39.6876 36.7014 40.1563 36.0764 40.573 35.4167C40.9896 34.757 41.3716 34.0799 41.7188 33.3854C43.316 36.0938 44.4011 38.1163 44.974 39.4531C45.5469 40.79 45.8334 41.9097 45.8334 42.8125C45.8334 43.8195 45.5556 44.5747 45.0001 45.0782C44.4445 45.5816 43.7153 45.8334 42.8126 45.8334ZM28.5938 31.3021C29.1841 31.3021 29.6789 31.1025 30.0782 30.7031C30.4775 30.3038 30.6771 29.8091 30.6771 29.2188C30.6771 28.6285 30.4775 28.1337 30.0782 27.7344C29.6789 27.3351 29.1841 27.1354 28.5938 27.1354C28.0035 27.1354 27.5087 27.3351 27.1094 27.7344C26.7101 28.1337 26.5105 28.6285 26.5105 29.2188C26.5105 29.8091 26.7101 30.3038 27.1094 30.7031C27.5087 31.1025 28.0035 31.3021 28.5938 31.3021ZM31.198 24.0104C31.6494 24.0104 32.0226 23.8629 32.3178 23.5677C32.6129 23.2726 32.7605 22.8993 32.7605 22.4479C32.7605 21.9966 32.6129 21.6233 32.3178 21.3281C32.0226 21.033 31.6494 20.8854 31.198 20.8854C30.7466 20.8854 30.3733 21.033 30.0782 21.3281C29.7831 21.6233 29.6355 21.9966 29.6355 22.4479C29.6355 22.8993 29.7831 23.2726 30.0782 23.5677C30.3733 23.8629 30.7466 24.0104 31.198 24.0104ZM24.3751 35.3646C22.6042 33.8368 20.9028 32.257 19.2709 30.625C17.639 28.9931 16.0765 27.2917 14.5834 25.5209C14.6528 26.8403 14.948 28.0816 15.4688 29.2448C15.9896 30.408 16.7015 31.441 17.6042 32.3438C18.507 33.2466 19.5313 33.9584 20.6771 34.4792C21.823 35 23.0556 35.2952 24.3751 35.3646ZM29.7396 34.2709C31.4063 33.4028 32.7605 32.1441 33.8021 30.4948C34.8438 28.8455 35.3646 27.0139 35.3646 25C35.3646 22.1181 34.349 19.6702 32.3178 17.6563C30.2865 15.6424 27.8299 14.6354 24.948 14.6354C22.9341 14.6354 21.1112 15.1563 19.4792 16.1979C17.8473 17.2396 16.5973 18.5938 15.7292 20.2604C17.7084 22.8993 19.8785 25.3993 22.2396 27.7604C24.6008 30.1215 27.1008 32.2917 29.7396 34.2709Z" fill="#0831B4"/>
</g>
</svg>
