<svg width="50" height="50" viewBox="0 0 50 50" fill="none" xmlns="http://www.w3.org/2000/svg">
<mask id="mask0_102005_160" style="mask-type:alpha" maskUnits="userSpaceOnUse" x="0" y="0" width="50" height="50">
<rect width="50" height="50" fill="#D9D9D9"/>
</mask>
<g mask="url(#mask0_102005_160)">
<path d="M23.3854 21.9271C24.1146 21.9271 24.7309 21.6754 25.2344 21.1719C25.7379 20.6684 25.9896 20.0521 25.9896 19.3229C25.9896 18.5938 25.7379 17.9775 25.2344 17.474C24.7309 16.9705 24.1146 16.7188 23.3854 16.7188C22.6563 16.7188 22.0399 16.9705 21.5365 17.474C21.033 17.9775 20.7813 18.5938 20.7813 19.3229C20.7813 20.0521 21.033 20.6684 21.5365 21.1719C22.0399 21.6754 22.6563 21.9271 23.3854 21.9271ZM42.8125 45.8334C41.3542 45.8334 39.3924 45.2257 36.9271 44.0104C34.4618 42.7952 31.8229 41.1459 29.0104 39.0625C28.3507 39.2361 27.6823 39.3663 27.0052 39.4531C26.3281 39.54 25.6424 39.5834 24.9479 39.5834C20.8854 39.5834 17.4479 38.1771 14.6354 35.3646C11.8229 32.5521 10.4167 29.1146 10.4167 25.0521C10.4167 24.3577 10.4688 23.6632 10.5729 22.9688C10.6771 22.2743 10.816 21.5972 10.9896 20.9375C8.94097 18.125 7.30035 15.4948 6.06771 13.0469C4.83507 10.599 4.21875 8.64585 4.21875 7.18752C4.21875 6.25002 4.47917 5.51217 5 4.97398C5.52083 4.43578 6.23264 4.16669 7.13542 4.16669C8.03819 4.16669 9.21007 4.47919 10.651 5.10419C12.092 5.72919 14.0799 6.78822 16.6146 8.28127C15.8854 8.66322 15.2083 9.06252 14.5833 9.47919C13.9583 9.89585 13.3507 10.3472 12.7604 10.8334C12.1007 10.4514 11.4583 10.1215 10.8333 9.84377C10.2083 9.56599 9.54861 9.27085 8.85417 8.95835C9.47917 10.2778 10.1476 11.5625 10.8594 12.8125C11.5712 14.0625 12.3264 15.2952 13.125 16.5104C14.4444 14.6354 16.1285 13.1597 18.1771 12.0834C20.2257 11.007 22.4826 10.4688 24.9479 10.4688C29.0104 10.4688 32.4566 11.8837 35.2865 14.7136C38.1163 17.5434 39.5313 20.9896 39.5313 25.0521C39.5313 27.5174 38.9844 29.7743 37.8906 31.8229C36.7969 33.8716 35.3125 35.5556 33.4375 36.875C34.6528 37.6736 35.8941 38.4375 37.1615 39.1667C38.4288 39.8959 39.7222 40.5556 41.0417 41.1459C40.7639 40.4861 40.4774 39.8438 40.1823 39.2188C39.8872 38.5938 39.5486 37.9514 39.1667 37.2917C39.6875 36.7014 40.1563 36.0764 40.5729 35.4167C40.9896 34.757 41.3715 34.0799 41.7188 33.3854C43.316 36.0938 44.401 38.1163 44.974 39.4531C45.5469 40.79 45.8333 41.9097 45.8333 42.8125C45.8333 43.8195 45.5556 44.5747 45 45.0782C44.4445 45.5816 43.7153 45.8334 42.8125 45.8334ZM28.5938 31.3021C29.184 31.3021 29.6788 31.1025 30.0781 30.7031C30.4774 30.3038 30.6771 29.8091 30.6771 29.2188C30.6771 28.6285 30.4774 28.1337 30.0781 27.7344C29.6788 27.3351 29.184 27.1354 28.5938 27.1354C28.0035 27.1354 27.5087 27.3351 27.1094 27.7344C26.7101 28.1337 26.5104 28.6285 26.5104 29.2188C26.5104 29.8091 26.7101 30.3038 27.1094 30.7031C27.5087 31.1025 28.0035 31.3021 28.5938 31.3021ZM31.1979 24.0104C31.6493 24.0104 32.0226 23.8629 32.3177 23.5677C32.6129 23.2726 32.7604 22.8993 32.7604 22.4479C32.7604 21.9966 32.6129 21.6233 32.3177 21.3281C32.0226 21.033 31.6493 20.8854 31.1979 20.8854C30.7465 20.8854 30.3733 21.033 30.0781 21.3281C29.783 21.6233 29.6354 21.9966 29.6354 22.4479C29.6354 22.8993 29.783 23.2726 30.0781 23.5677C30.3733 23.8629 30.7465 24.0104 31.1979 24.0104ZM24.375 35.3646C22.6042 33.8368 20.9028 32.257 19.2708 30.625C17.6389 28.9931 16.0764 27.2917 14.5833 25.5209C14.6528 26.8403 14.9479 28.0816 15.4688 29.2448C15.9896 30.408 16.7014 31.441 17.6042 32.3438C18.5069 33.2466 19.5313 33.9584 20.6771 34.4792C21.8229 35 23.0556 35.2952 24.375 35.3646ZM29.7396 34.2709C31.4063 33.4028 32.7604 32.1441 33.8021 30.4948C34.8438 28.8455 35.3646 27.0139 35.3646 25C35.3646 22.1181 34.349 19.6702 32.3177 17.6563C30.2865 15.6424 27.8299 14.6354 24.9479 14.6354C22.934 14.6354 21.1111 15.1563 19.4792 16.1979C17.8472 17.2396 16.5972 18.5938 15.7292 20.2604C17.7083 22.8993 19.8785 25.3993 22.2396 27.7604C24.6007 30.1215 27.1007 32.2917 29.7396 34.2709Z" fill="#E8EFFF"/>
</g>
</svg>
