<svg width="50" height="50" viewBox="0 0 50 50" fill="none" xmlns="http://www.w3.org/2000/svg">
<mask id="mask0_102005_957" style="mask-type:alpha" maskUnits="userSpaceOnUse" x="0" y="0" width="50" height="50">
<rect width="50" height="50" fill="#D9D9D9"/>
</mask>
<g mask="url(#mask0_102005_957)">
<path d="M25 43.75L21.9791 41.0417C18.4722 37.882 15.5729 35.1563 13.2812 32.8646C10.9895 30.573 9.16663 28.5157 7.81246 26.6927C6.45829 24.8698 5.51211 23.1945 4.97392 21.6667C4.43572 20.1389 4.16663 18.5764 4.16663 16.9792C4.16663 13.7153 5.26038 10.9896 7.44788 8.80212C9.63538 6.61462 12.3611 5.52087 15.625 5.52087C17.4305 5.52087 19.1493 5.90282 20.7812 6.66671C22.4132 7.4306 23.8194 8.50699 25 9.89587C26.1805 8.50699 27.5868 7.4306 29.2187 6.66671C30.8507 5.90282 32.5694 5.52087 34.375 5.52087C37.6389 5.52087 40.3645 6.61462 42.552 8.80212C44.7395 10.9896 45.8333 13.7153 45.8333 16.9792C45.8333 18.5764 45.5642 20.1389 45.026 21.6667C44.4878 23.1945 43.5416 24.8698 42.1875 26.6927C40.8333 28.5157 39.0104 30.573 36.7187 32.8646C34.427 35.1563 31.5277 37.882 28.0208 41.0417L25 43.75ZM25 38.125C28.3333 35.1389 31.0763 32.5782 33.2291 30.4427C35.3819 28.3073 37.0833 26.4497 38.3333 24.8698C39.5833 23.29 40.4514 21.8837 40.9375 20.6511C41.4236 19.4184 41.6666 18.1945 41.6666 16.9792C41.6666 14.8959 40.9722 13.1598 39.5833 11.7709C38.1944 10.382 36.4583 9.68754 34.375 9.68754C32.743 9.68754 31.2326 10.1476 29.8437 11.0677C28.4548 11.9879 27.5 13.1598 26.9791 14.5834H23.0208C22.5 13.1598 21.5451 11.9879 20.1562 11.0677C18.7673 10.1476 17.2569 9.68754 15.625 9.68754C13.5416 9.68754 11.8055 10.382 10.4166 11.7709C9.02774 13.1598 8.33329 14.8959 8.33329 16.9792C8.33329 18.1945 8.57635 19.4184 9.06246 20.6511C9.54857 21.8837 10.4166 23.29 11.6666 24.8698C12.9166 26.4497 14.618 28.3073 16.7708 30.4427C18.9236 32.5782 21.6666 35.1389 25 38.125Z" fill="#F2F9FF"/>
</g>
</svg>
